<ttFont>
    <TTGlyph name="A" xMin="-27" yMin="-3" xMax="627" yMax="682">
      <contour>
        <pt x="132" y="143" on="1"/>
        <pt x="115" y="114" on="0"/>
        <pt x="100" y="77" on="0"/>
        <pt x="105" y="54" on="0"/>
        <pt x="127" y="43" on="0"/>
        <pt x="147" y="40" on="1"/>
        <pt x="151" y="19" on="0"/>
        <pt x="150" y="-3" on="1"/>
        <pt x="126" y="-1" on="0"/>
        <pt x="81" y="0" on="0"/>
        <pt x="58" y="0" on="1"/>
        <pt x="32" y="0" on="0"/>
        <pt x="-5" y="-1" on="0"/>
        <pt x="-27" y="-3" on="1"/>
        <pt x="-27" y="8" on="0"/>
        <pt x="-24" y="30" on="0"/>
        <pt x="-19" y="40" on="1"/>
        <pt x="-5" y="44" on="0"/>
        <pt x="17" y="58" on="0"/>
        <pt x="39" y="83" on="0"/>
        <pt x="65" y="122" on="0"/>
        <pt x="82" y="151" on="1"/>
        <pt x="159" y="282" on="0"/>
        <pt x="307" y="543" on="0"/>
        <pt x="381" y="676" on="1"/>
        <pt x="390" y="680" on="0"/>
        <pt x="412" y="682" on="0"/>
        <pt x="420" y="682" on="1"/>
        <pt x="459" y="545" on="0"/>
        <pt x="531" y="271" on="0"/>
        <pt x="564" y="132" on="1"/>
        <pt x="571" y="104" on="0"/>
        <pt x="583" y="71" on="0"/>
        <pt x="596" y="52" on="0"/>
        <pt x="612" y="43" on="0"/>
        <pt x="623" y="40" on="1"/>
        <pt x="626" y="29" on="0"/>
        <pt x="627" y="8" on="0"/>
        <pt x="626" y="-3" on="1"/>
        <pt x="601" y="-1" on="0"/>
        <pt x="538" y="0" on="0"/>
        <pt x="515" y="0" on="1"/>
        <pt x="489" y="0" on="0"/>
        <pt x="431" y="-1" on="0"/>
        <pt x="401" y="-3" on="1"/>
        <pt x="401" y="8" on="0"/>
        <pt x="404" y="30" on="0"/>
        <pt x="409" y="40" on="1"/>
        <pt x="431" y="43" on="0"/>
        <pt x="458" y="52" on="0"/>
        <pt x="470" y="70" on="0"/>
        <pt x="470" y="99" on="0"/>
        <pt x="464" y="122" on="1"/>
        <pt x="441" y="219" on="1"/>
        <pt x="378" y="219" on="0"/>
        <pt x="234" y="217" on="0"/>
        <pt x="174" y="215" on="1"/>
      </contour>
      <contour>
        <pt x="429" y="265" on="1"/>
        <pt x="418" y="311" on="0"/>
        <pt x="394" y="402" on="0"/>
        <pt x="381" y="447" on="1"/>
        <pt x="373" y="476" on="0"/>
        <pt x="362" y="521" on="0"/>
        <pt x="357" y="552" on="1"/>
        <pt x="342" y="521" on="0"/>
        <pt x="316" y="472" on="0"/>
        <pt x="299" y="440" on="1"/>
        <pt x="276" y="396" on="0"/>
        <pt x="228" y="309" on="0"/>
        <pt x="203" y="265" on="1"/>
      </contour>
    </TTGlyph>
    <TTGlyph name="AE" xMin="-27" yMin="-3" xMax="855" yMax="679">
      <contour>
        <pt x="535" y="341" on="1"/>
        <pt x="577" y="341" on="1"/>
        <pt x="608" y="341" on="0"/>
        <pt x="652" y="348" on="0"/>
        <pt x="682" y="367" on="0"/>
        <pt x="699" y="399" on="0"/>
        <pt x="703" y="424" on="1"/>
        <pt x="716" y="426" on="0"/>
        <pt x="737" y="427" on="0"/>
        <pt x="751" y="425" on="1"/>
        <pt x="745" y="400" on="0"/>
        <pt x="735" y="353" on="0"/>
        <pt x="730" y="314" on="1"/>
        <pt x="725" y="278" on="0"/>
        <pt x="720" y="224" on="0"/>
        <pt x="718" y="199" on="1"/>
        <pt x="704" y="201" on="0"/>
        <pt x="681" y="206" on="0"/>
        <pt x="672" y="212" on="1"/>
        <pt x="676" y="262" on="0"/>
        <pt x="634" y="298" on="0"/>
        <pt x="573" y="298" on="1"/>
        <pt x="527" y="298" on="1"/>
        <pt x="501" y="143" on="1"/>
        <pt x="496" y="111" on="0"/>
        <pt x="497" y="72" on="0"/>
        <pt x="513" y="51" on="0"/>
        <pt x="549" y="45" on="0"/>
        <pt x="578" y="45" on="1"/>
        <pt x="624" y="45" on="0"/>
        <pt x="684" y="62" on="0"/>
        <pt x="725" y="94" on="0"/>
        <pt x="755" y="142" on="0"/>
        <pt x="770" y="172" on="1"/>
        <pt x="784" y="170" on="0"/>
        <pt x="806" y="160" on="0"/>
        <pt x="815" y="150" on="1"/>
        <pt x="798" y="118" on="0"/>
        <pt x="770" y="41" on="0"/>
        <pt x="761" y="-3" on="1"/>
        <pt x="716" y="-1" on="0"/>
        <pt x="624" y="0" on="0"/>
        <pt x="568" y="0" on="1"/>
        <pt x="495" y="0" on="0"/>
        <pt x="376" y="-1" on="0"/>
        <pt x="316" y="-3" on="1"/>
        <pt x="316" y="20" on="0"/>
        <pt x="323" y="40" on="1"/>
        <pt x="346" y="43" on="0"/>
        <pt x="374" y="54" on="0"/>
        <pt x="392" y="76" on="0"/>
        <pt x="402" y="114" on="0"/>
        <pt x="407" y="143" on="1"/>
        <pt x="434" y="298" on="1"/>
        <pt x="392" y="298" on="0"/>
        <pt x="309" y="297" on="0"/>
        <pt x="271" y="295" on="1"/>
        <pt x="145" y="122" on="1"/>
        <pt x="118" y="85" on="0"/>
        <pt x="118" y="48" on="0"/>
        <pt x="147" y="40" on="1"/>
        <pt x="151" y="19" on="0"/>
        <pt x="150" y="-3" on="1"/>
        <pt x="126" y="-1" on="0"/>
        <pt x="81" y="0" on="0"/>
        <pt x="58" y="0" on="1"/>
        <pt x="32" y="0" on="0"/>
        <pt x="-5" y="-1" on="0"/>
        <pt x="-27" y="-3" on="1"/>
        <pt x="-27" y="8" on="0"/>
        <pt x="-24" y="30" on="0"/>
        <pt x="-19" y="40" on="1"/>
        <pt x="-5" y="44" on="0"/>
        <pt x="19" y="55" on="0"/>
        <pt x="44" y="76" on="0"/>
        <pt x="75" y="110" on="0"/>
        <pt x="96" y="137" on="1"/>
        <pt x="175" y="240" on="0"/>
        <pt x="326" y="444" on="0"/>
        <pt x="395" y="538" on="1"/>
        <pt x="459" y="627" on="0"/>
        <pt x="363" y="636" on="1"/>
        <pt x="359" y="655" on="0"/>
        <pt x="362" y="679" on="1"/>
        <pt x="393" y="678" on="0"/>
        <pt x="446" y="677" on="0"/>
        <pt x="499" y="676" on="0"/>
        <pt x="557" y="676" on="0"/>
        <pt x="592" y="676" on="1"/>
        <pt x="650" y="676" on="0"/>
        <pt x="777" y="677" on="0"/>
        <pt x="855" y="679" on="1"/>
        <pt x="850" y="641" on="0"/>
        <pt x="846" y="551" on="0"/>
        <pt x="848" y="516" on="1"/>
        <pt x="829" y="508" on="0"/>
        <pt x="798" y="509" on="1"/>
        <pt x="797" y="541" on="0"/>
        <pt x="788" y="587" on="0"/>
        <pt x="760" y="617" on="0"/>
        <pt x="704" y="631" on="0"/>
        <pt x="656" y="631" on="1"/>
        <pt x="584" y="631" on="1"/>
      </contour>
      <contour>
        <pt x="493" y="614" on="1"/>
        <pt x="463" y="567" on="0"/>
        <pt x="375" y="439" on="0"/>
        <pt x="304" y="341" on="1"/>
        <pt x="442" y="341" on="1"/>
        <pt x="472" y="514" on="1"/>
        <pt x="477" y="543" on="0"/>
        <pt x="488" y="594" on="0"/>
        <pt x="494" y="614" on="1"/>
      </contour>
    </TTGlyph>
    <TTGlyph name="Aacute" xMin="-27" yMin="-3" xMax="627" yMax="942">
      <component glyphName="A" x="0" y="0" flags="0x204"/>
      <component glyphName="acute" x="240" y="218" flags="0x4"/>
    </TTGlyph>
    <TTGlyph name="Acircumflex" xMin="-27" yMin="-3" xMax="627" yMax="926">
      <component glyphName="A" x="0" y="0" flags="0x204"/>
      <component glyphName="circumflex" x="218" y="218" flags="0x4"/>
    </TTGlyph>
    <TTGlyph name="Adieresis" xMin="-27" yMin="-3" xMax="627" yMax="858">
      <component glyphName="A" x="0" y="0" flags="0x204"/>
      <component glyphName="dieresis" x="126" y="218" flags="0x4"/>
    </TTGlyph>
    <TTGlyph name="Agrave" xMin="-27" yMin="-3" xMax="627" yMax="932">
      <component glyphName="A" x="0" y="0" flags="0x204"/>
      <component glyphName="grave" x="154" y="218" flags="0x4"/>
    </TTGlyph>
    <TTGlyph name="Aring" xMin="-27" yMin="-3" xMax="627" yMax="926">
      <component glyphName="A" x="0" y="0" flags="0x204"/>
      <component glyphName="ring" x="141" y="218" flags="0x4"/>
    </TTGlyph>
    <TTGlyph name="Atilde" xMin="-27" yMin="-3" xMax="627" yMax="845">
      <component glyphName="A" x="0" y="0" flags="0x204"/>
      <component glyphName="tilde" x="160" y="218" flags="0x4"/>
    </TTGlyph>
    <TTGlyph name="B" xMin="25" yMin="-3" xMax="584" yMax="679">
      <contour>
        <pt x="189" y="554" on="1"/>
        <pt x="193" y="579" on="0"/>
        <pt x="191" y="610" on="0"/>
        <pt x="176" y="627" on="0"/>
        <pt x="149" y="634" on="0"/>
        <pt x="130" y="636" on="1"/>
        <pt x="128" y="647" on="0"/>
        <pt x="126" y="667" on="0"/>
        <pt x="128" y="679" on="1"/>
        <pt x="163" y="677" on="0"/>
        <pt x="211" y="676" on="0"/>
        <pt x="238" y="676" on="1"/>
        <pt x="274" y="676" on="0"/>
        <pt x="346" y="679" on="0"/>
        <pt x="380" y="679" on="1"/>
        <pt x="485" y="679" on="0"/>
        <pt x="584" y="602" on="0"/>
        <pt x="568" y="512" on="1"/>
        <pt x="557" y="456" on="0"/>
        <pt x="464" y="375" on="0"/>
        <pt x="397" y="366" on="1"/>
        <pt x="493" y="361" on="0"/>
        <pt x="578" y="265" on="0"/>
        <pt x="559" y="170" on="1"/>
        <pt x="543" y="93" on="0"/>
        <pt x="405" y="0" on="0"/>
        <pt x="293" y="0" on="1"/>
        <pt x="264" y="0" on="0"/>
        <pt x="196" y="0" on="0"/>
        <pt x="124" y="-1" on="0"/>
        <pt x="55" y="-2" on="0"/>
        <pt x="25" y="-3" on="1"/>
        <pt x="26" y="22" on="0"/>
        <pt x="33" y="40" on="1"/>
        <pt x="56" y="43" on="0"/>
        <pt x="84" y="54" on="0"/>
        <pt x="102" y="77" on="0"/>
        <pt x="112" y="114" on="0"/>
        <pt x="117" y="143" on="1"/>
      </contour>
      <contour>
        <pt x="281" y="376" on="1"/>
        <pt x="362" y="376" on="0"/>
        <pt x="453" y="445" on="0"/>
        <pt x="464" y="502" on="1"/>
        <pt x="477" y="570" on="0"/>
        <pt x="409" y="636" on="0"/>
        <pt x="342" y="636" on="1"/>
        <pt x="332" y="636" on="0"/>
        <pt x="310" y="634" on="0"/>
        <pt x="296" y="630" on="1"/>
        <pt x="252" y="376" on="1"/>
      </contour>
      <contour>
        <pt x="210" y="133" on="1"/>
        <pt x="204" y="102" on="0"/>
        <pt x="205" y="66" on="0"/>
        <pt x="222" y="47" on="0"/>
        <pt x="256" y="42" on="0"/>
        <pt x="283" y="42" on="1"/>
        <pt x="348" y="42" on="0"/>
        <pt x="439" y="110" on="0"/>
        <pt x="450" y="165" on="1"/>
        <pt x="468" y="255" on="0"/>
        <pt x="384" y="331" on="0"/>
        <pt x="269" y="331" on="1"/>
        <pt x="244" y="331" on="1"/>
      </contour>
    </TTGlyph>
    <TTGlyph name="C" xMin="42" yMin="-9" xMax="656" yMax="685">
      <contour>
        <pt x="444" y="685" on="1"/>
        <pt x="507" y="685" on="0"/>
        <pt x="606" y="656" on="0"/>
        <pt x="656" y="626" on="1"/>
        <pt x="643" y="592" on="0"/>
        <pt x="628" y="518" on="0"/>
        <pt x="623" y="475" on="1"/>
        <pt x="598" y="465" on="0"/>
        <pt x="569" y="473" on="1"/>
        <pt x="576" y="526" on="0"/>
        <pt x="565" y="593" on="0"/>
        <pt x="533" y="630" on="0"/>
        <pt x="483" y="644" on="0"/>
        <pt x="451" y="644" on="1"/>
        <pt x="387" y="644" on="0"/>
        <pt x="284" y="595" on="0"/>
        <pt x="210" y="511" on="0"/>
        <pt x="164" y="397" on="0"/>
        <pt x="157" y="333" on="1"/>
        <pt x="151" y="277" on="0"/>
        <pt x="168" y="175" on="0"/>
        <pt x="217" y="98" on="0"/>
        <pt x="299" y="52" on="0"/>
        <pt x="358" y="52" on="1"/>
        <pt x="413" y="52" on="0"/>
        <pt x="513" y="83" on="0"/>
        <pt x="558" y="110" on="1"/>
        <pt x="572" y="96" on="0"/>
        <pt x="574" y="72" on="1"/>
        <pt x="515" y="30" on="0"/>
        <pt x="395" y="-9" on="0"/>
        <pt x="331" y="-9" on="1"/>
        <pt x="254" y="-9" on="0"/>
        <pt x="140" y="43" on="0"/>
        <pt x="69" y="135" on="0"/>
        <pt x="42" y="257" on="0"/>
        <pt x="51" y="328" on="1"/>
        <pt x="63" y="422" on="0"/>
        <pt x="141" y="557" on="0"/>
        <pt x="250" y="644" on="0"/>
        <pt x="380" y="685" on="0"/>
      </contour>
    </TTGlyph>
    <TTGlyph name="Ccedilla" xMin="43" yMin="-244" xMax="656" yMax="685">
      <contour>
        <pt x="286" y="-7" on="1"/>
        <pt x="220" y="1" on="0"/>
        <pt x="124" y="59" on="0"/>
        <pt x="65" y="148" on="0"/>
        <pt x="43" y="263" on="0"/>
        <pt x="51" y="328" on="1"/>
        <pt x="63" y="422" on="0"/>
        <pt x="141" y="557" on="0"/>
        <pt x="250" y="644" on="0"/>
        <pt x="380" y="685" on="0"/>
        <pt x="444" y="685" on="1"/>
        <pt x="507" y="685" on="0"/>
        <pt x="606" y="656" on="0"/>
        <pt x="656" y="626" on="1"/>
        <pt x="643" y="592" on="0"/>
        <pt x="628" y="518" on="0"/>
        <pt x="623" y="475" on="1"/>
        <pt x="598" y="465" on="0"/>
        <pt x="569" y="473" on="1"/>
        <pt x="576" y="526" on="0"/>
        <pt x="565" y="593" on="0"/>
        <pt x="533" y="630" on="0"/>
        <pt x="483" y="644" on="0"/>
        <pt x="451" y="644" on="1"/>
        <pt x="387" y="644" on="0"/>
        <pt x="284" y="595" on="0"/>
        <pt x="210" y="511" on="0"/>
        <pt x="164" y="397" on="0"/>
        <pt x="157" y="333" on="1"/>
        <pt x="151" y="277" on="0"/>
        <pt x="168" y="175" on="0"/>
        <pt x="217" y="98" on="0"/>
        <pt x="299" y="52" on="0"/>
        <pt x="358" y="52" on="1"/>
        <pt x="413" y="52" on="0"/>
        <pt x="513" y="83" on="0"/>
        <pt x="558" y="110" on="1"/>
        <pt x="572" y="96" on="0"/>
        <pt x="574" y="72" on="1"/>
        <pt x="517" y="31" on="0"/>
        <pt x="401" y="-7" on="0"/>
        <pt x="340" y="-9" on="1"/>
        <pt x="302" y="-55" on="1"/>
        <pt x="339" y="-63" on="0"/>
        <pt x="372" y="-112" on="0"/>
        <pt x="363" y="-158" on="1"/>
        <pt x="354" y="-201" on="0"/>
        <pt x="273" y="-244" on="0"/>
        <pt x="216" y="-242" on="1"/>
        <pt x="212" y="-229" on="0"/>
        <pt x="215" y="-210" on="1"/>
        <pt x="252" y="-210" on="0"/>
        <pt x="299" y="-186" on="0"/>
        <pt x="304" y="-160" on="1"/>
        <pt x="309" y="-131" on="0"/>
        <pt x="278" y="-101" on="0"/>
        <pt x="250" y="-101" on="1"/>
        <pt x="243" y="-95" on="0"/>
        <pt x="237" y="-76" on="0"/>
        <pt x="240" y="-63" on="1"/>
      </contour>
    </TTGlyph>
    <TTGlyph name="D" xMin="25" yMin="-3" xMax="727" yMax="679">
      <contour>
        <pt x="190" y="554" on="1"/>
        <pt x="194" y="579" on="0"/>
        <pt x="191" y="610" on="0"/>
        <pt x="176" y="627" on="0"/>
        <pt x="149" y="635" on="0"/>
        <pt x="130" y="637" on="1"/>
        <pt x="127" y="648" on="0"/>
        <pt x="126" y="669" on="0"/>
        <pt x="128" y="679" on="1"/>
        <pt x="160" y="677" on="0"/>
        <pt x="235" y="676" on="0"/>
        <pt x="266" y="676" on="1"/>
        <pt x="298" y="676" on="0"/>
        <pt x="362" y="679" on="0"/>
        <pt x="392" y="679" on="1"/>
        <pt x="437" y="679" on="0"/>
        <pt x="527" y="667" on="0"/>
        <pt x="607" y="637" on="0"/>
        <pt x="673" y="585" on="0"/>
        <pt x="715" y="506" on="0"/>
        <pt x="727" y="396" on="0"/>
        <pt x="713" y="323" on="1"/>
        <pt x="698" y="240" on="0"/>
        <pt x="623" y="119" on="0"/>
        <pt x="510" y="39" on="0"/>
        <pt x="365" y="0" on="0"/>
        <pt x="279" y="0" on="1"/>
        <pt x="276" y="0" on="1"/>
        <pt x="249" y="0" on="0"/>
        <pt x="185" y="0" on="0"/>
        <pt x="119" y="-1" on="0"/>
        <pt x="54" y="-2" on="0"/>
        <pt x="25" y="-3" on="1"/>
        <pt x="27" y="22" on="0"/>
        <pt x="33" y="40" on="1"/>
        <pt x="55" y="43" on="0"/>
        <pt x="84" y="54" on="0"/>
        <pt x="102" y="76" on="0"/>
        <pt x="113" y="114" on="0"/>
        <pt x="118" y="143" on="1"/>
      </contour>
      <contour>
        <pt x="211" y="133" on="1"/>
        <pt x="206" y="105" on="0"/>
        <pt x="206" y="71" on="0"/>
        <pt x="221" y="52" on="0"/>
        <pt x="254" y="45" on="0"/>
        <pt x="283" y="45" on="1"/>
        <pt x="344" y="45" on="0"/>
        <pt x="451" y="75" on="0"/>
        <pt x="535" y="140" on="0"/>
        <pt x="595" y="242" on="0"/>
        <pt x="609" y="315" on="1"/>
        <pt x="627" y="408" on="0"/>
        <pt x="600" y="531" on="0"/>
        <pt x="530" y="605" on="0"/>
        <pt x="426" y="636" on="0"/>
        <pt x="367" y="636" on="1"/>
        <pt x="347" y="636" on="0"/>
        <pt x="313" y="632" on="0"/>
        <pt x="296" y="628" on="1"/>
      </contour>
    </TTGlyph>
    <TTGlyph name="E" xMin="19" yMin="-3" xMax="558" yMax="679">
      <contour>
        <pt x="242" y="364" on="1"/>
        <pt x="283" y="364" on="1"/>
        <pt x="314" y="364" on="0"/>
        <pt x="358" y="371" on="0"/>
        <pt x="388" y="389" on="0"/>
        <pt x="405" y="421" on="0"/>
        <pt x="409" y="446" on="1"/>
        <pt x="422" y="448" on="0"/>
        <pt x="443" y="449" on="0"/>
        <pt x="457" y="447" on="1"/>
        <pt x="451" y="422" on="0"/>
        <pt x="441" y="375" on="0"/>
        <pt x="436" y="336" on="1"/>
        <pt x="431" y="300" on="0"/>
        <pt x="426" y="246" on="0"/>
        <pt x="424" y="221" on="1"/>
        <pt x="410" y="223" on="0"/>
        <pt x="387" y="228" on="0"/>
        <pt x="378" y="234" on="1"/>
        <pt x="382" y="284" on="0"/>
        <pt x="340" y="319" on="0"/>
        <pt x="279" y="319" on="1"/>
        <pt x="234" y="319" on="1"/>
        <pt x="204" y="143" on="1"/>
        <pt x="199" y="111" on="0"/>
        <pt x="199" y="73" on="0"/>
        <pt x="215" y="52" on="0"/>
        <pt x="249" y="45" on="0"/>
        <pt x="277" y="45" on="1"/>
        <pt x="281" y="45" on="1"/>
        <pt x="327" y="45" on="0"/>
        <pt x="387" y="62" on="0"/>
        <pt x="428" y="94" on="0"/>
        <pt x="458" y="142" on="0"/>
        <pt x="473" y="172" on="1"/>
        <pt x="487" y="170" on="0"/>
        <pt x="509" y="160" on="0"/>
        <pt x="518" y="150" on="1"/>
        <pt x="501" y="118" on="0"/>
        <pt x="473" y="41" on="0"/>
        <pt x="464" y="-3" on="1"/>
        <pt x="419" y="-1" on="0"/>
        <pt x="327" y="0" on="0"/>
        <pt x="271" y="0" on="1"/>
        <pt x="198" y="0" on="0"/>
        <pt x="79" y="-1" on="0"/>
        <pt x="19" y="-3" on="1"/>
        <pt x="19" y="20" on="0"/>
        <pt x="26" y="40" on="1"/>
        <pt x="49" y="43" on="0"/>
        <pt x="77" y="54" on="0"/>
        <pt x="95" y="76" on="0"/>
        <pt x="105" y="114" on="0"/>
        <pt x="110" y="143" on="1"/>
        <pt x="182" y="554" on="1"/>
        <pt x="186" y="579" on="0"/>
        <pt x="185" y="609" on="0"/>
        <pt x="173" y="626" on="0"/>
        <pt x="148" y="633" on="0"/>
        <pt x="129" y="636" on="1"/>
        <pt x="127" y="646" on="0"/>
        <pt x="126" y="667" on="0"/>
        <pt x="128" y="679" on="1"/>
        <pt x="180" y="677" on="0"/>
        <pt x="268" y="676" on="0"/>
        <pt x="295" y="676" on="1"/>
        <pt x="353" y="676" on="0"/>
        <pt x="480" y="677" on="0"/>
        <pt x="558" y="679" on="1"/>
        <pt x="553" y="641" on="0"/>
        <pt x="549" y="551" on="0"/>
        <pt x="551" y="516" on="1"/>
        <pt x="532" y="508" on="0"/>
        <pt x="501" y="509" on="1"/>
        <pt x="500" y="541" on="0"/>
        <pt x="491" y="587" on="0"/>
        <pt x="463" y="617" on="0"/>
        <pt x="407" y="631" on="0"/>
        <pt x="359" y="631" on="1"/>
        <pt x="287" y="631" on="1"/>
      </contour>
    </TTGlyph>
    <TTGlyph name="Eacute" xMin="19" yMin="-3" xMax="558" yMax="942">
      <component glyphName="E" x="0" y="0" flags="0x204"/>
      <component glyphName="acute" x="181" y="218" flags="0x4"/>
    </TTGlyph>
    <TTGlyph name="Ecircumflex" xMin="19" yMin="-3" xMax="558" yMax="926">
      <component glyphName="circumflex" x="159" y="218" flags="0x4"/>
      <component glyphName="E" x="0" y="0" flags="0x4"/>
    </TTGlyph>
    <TTGlyph name="Edieresis" xMin="19" yMin="-3" xMax="558" yMax="858">
      <component glyphName="dieresis" x="67" y="218" flags="0x4"/>
      <component glyphName="E" x="0" y="0" flags="0x4"/>
    </TTGlyph>
    <TTGlyph name="Egrave" xMin="19" yMin="-3" xMax="558" yMax="932">
      <component glyphName="grave" x="95" y="218" flags="0x4"/>
      <component glyphName="E" x="0" y="0" flags="0x4"/>
    </TTGlyph>
    <TTGlyph name="Eth" xMin="25" yMin="-3" xMax="727" yMax="679">
      <contour>
        <pt x="190" y="554" on="1"/>
        <pt x="194" y="579" on="0"/>
        <pt x="191" y="610" on="0"/>
        <pt x="176" y="627" on="0"/>
        <pt x="149" y="635" on="0"/>
        <pt x="130" y="637" on="1"/>
        <pt x="127" y="648" on="0"/>
        <pt x="126" y="669" on="0"/>
        <pt x="128" y="679" on="1"/>
        <pt x="160" y="677" on="0"/>
        <pt x="235" y="676" on="0"/>
        <pt x="266" y="676" on="1"/>
        <pt x="298" y="676" on="0"/>
        <pt x="362" y="679" on="0"/>
        <pt x="392" y="679" on="1"/>
        <pt x="437" y="679" on="0"/>
        <pt x="527" y="667" on="0"/>
        <pt x="607" y="637" on="0"/>
        <pt x="673" y="585" on="0"/>
        <pt x="715" y="506" on="0"/>
        <pt x="727" y="396" on="0"/>
        <pt x="713" y="323" on="1"/>
        <pt x="698" y="240" on="0"/>
        <pt x="623" y="119" on="0"/>
        <pt x="510" y="39" on="0"/>
        <pt x="365" y="0" on="0"/>
        <pt x="279" y="0" on="1"/>
        <pt x="276" y="0" on="1"/>
        <pt x="249" y="0" on="0"/>
        <pt x="185" y="0" on="0"/>
        <pt x="119" y="-1" on="0"/>
        <pt x="54" y="-2" on="0"/>
        <pt x="25" y="-3" on="1"/>
        <pt x="27" y="22" on="0"/>
        <pt x="33" y="40" on="1"/>
        <pt x="55" y="43" on="0"/>
        <pt x="84" y="54" on="0"/>
        <pt x="102" y="76" on="0"/>
        <pt x="113" y="114" on="0"/>
        <pt x="118" y="143" on="1"/>
        <pt x="147" y="306" on="1"/>
        <pt x="127" y="306" on="0"/>
        <pt x="94" y="305" on="0"/>
        <pt x="80" y="304" on="1"/>
        <pt x="81" y="331" on="0"/>
        <pt x="91" y="349" on="1"/>
        <pt x="154" y="349" on="1"/>
      </contour>
      <contour>
        <pt x="211" y="133" on="1"/>
        <pt x="206" y="105" on="0"/>
        <pt x="206" y="71" on="0"/>
        <pt x="221" y="52" on="0"/>
        <pt x="254" y="45" on="0"/>
        <pt x="283" y="45" on="1"/>
        <pt x="344" y="45" on="0"/>
        <pt x="451" y="75" on="0"/>
        <pt x="535" y="140" on="0"/>
        <pt x="595" y="242" on="0"/>
        <pt x="609" y="315" on="1"/>
        <pt x="627" y="408" on="0"/>
        <pt x="600" y="531" on="0"/>
        <pt x="530" y="605" on="0"/>
        <pt x="426" y="636" on="0"/>
        <pt x="367" y="636" on="1"/>
        <pt x="347" y="636" on="0"/>
        <pt x="313" y="632" on="0"/>
        <pt x="296" y="628" on="1"/>
        <pt x="248" y="349" on="1"/>
        <pt x="314" y="349" on="1"/>
        <pt x="316" y="326" on="0"/>
        <pt x="307" y="307" on="1"/>
        <pt x="241" y="307" on="1"/>
      </contour>
    </TTGlyph>
    <TTGlyph name="Euro" xMin="46" yMin="-9" xMax="721" yMax="685">
      <contour>
        <pt x="133" y="407" on="1"/>
        <pt x="155" y="480" on="0"/>
        <pt x="235" y="585" on="0"/>
        <pt x="337" y="653" on="0"/>
        <pt x="452" y="685" on="0"/>
        <pt x="509" y="685" on="1"/>
        <pt x="572" y="685" on="0"/>
        <pt x="671" y="656" on="0"/>
        <pt x="721" y="626" on="1"/>
        <pt x="708" y="592" on="0"/>
        <pt x="693" y="518" on="0"/>
        <pt x="688" y="475" on="1"/>
        <pt x="663" y="465" on="0"/>
        <pt x="634" y="473" on="1"/>
        <pt x="641" y="526" on="0"/>
        <pt x="630" y="593" on="0"/>
        <pt x="598" y="630" on="0"/>
        <pt x="548" y="644" on="0"/>
        <pt x="516" y="644" on="1"/>
        <pt x="462" y="644" on="0"/>
        <pt x="371" y="608" on="0"/>
        <pt x="301" y="545" on="0"/>
        <pt x="250" y="458" on="0"/>
        <pt x="236" y="407" on="1"/>
        <pt x="503" y="407" on="1"/>
        <pt x="501" y="377" on="0"/>
        <pt x="487" y="355" on="1"/>
        <pt x="428" y="355" on="0"/>
        <pt x="294" y="355" on="0"/>
        <pt x="225" y="354" on="1"/>
        <pt x="223" y="340" on="0"/>
        <pt x="219" y="304" on="0"/>
        <pt x="220" y="285" on="1"/>
        <pt x="484" y="285" on="1"/>
        <pt x="482" y="255" on="0"/>
        <pt x="468" y="233" on="1"/>
        <pt x="411" y="233" on="0"/>
        <pt x="287" y="233" on="0"/>
        <pt x="224" y="232" on="1"/>
        <pt x="230" y="193" on="0"/>
        <pt x="259" y="127" on="0"/>
        <pt x="308" y="79" on="0"/>
        <pt x="378" y="52" on="0"/>
        <pt x="423" y="52" on="1"/>
        <pt x="478" y="52" on="0"/>
        <pt x="578" y="83" on="0"/>
        <pt x="623" y="110" on="1"/>
        <pt x="637" y="96" on="0"/>
        <pt x="639" y="72" on="1"/>
        <pt x="580" y="30" on="0"/>
        <pt x="460" y="-9" on="0"/>
        <pt x="396" y="-9" on="1"/>
        <pt x="333" y="-9" on="0"/>
        <pt x="233" y="27" on="0"/>
        <pt x="163" y="90" on="0"/>
        <pt x="121" y="178" on="0"/>
        <pt x="115" y="230" on="1"/>
        <pt x="48" y="230" on="1"/>
        <pt x="46" y="244" on="0"/>
        <pt x="50" y="274" on="0"/>
        <pt x="57" y="285" on="1"/>
        <pt x="113" y="285" on="1"/>
        <pt x="113" y="302" on="0"/>
        <pt x="118" y="340" on="0"/>
        <pt x="120" y="352" on="1"/>
        <pt x="58" y="352" on="1"/>
        <pt x="56" y="386" on="0"/>
        <pt x="71" y="407" on="1"/>
      </contour>
    </TTGlyph>
    <TTGlyph name="F" xMin="25" yMin="-3" xMax="563" yMax="679">
      <contour>
        <pt x="187" y="554" on="1"/>
        <pt x="191" y="577" on="0"/>
        <pt x="191" y="606" on="0"/>
        <pt x="179" y="624" on="0"/>
        <pt x="152" y="633" on="0"/>
        <pt x="130" y="636" on="1"/>
        <pt x="125" y="657" on="0"/>
        <pt x="128" y="679" on="1"/>
        <pt x="160" y="677" on="0"/>
        <pt x="241" y="676" on="0"/>
        <pt x="300" y="676" on="1"/>
        <pt x="358" y="676" on="0"/>
        <pt x="485" y="677" on="0"/>
        <pt x="563" y="679" on="1"/>
        <pt x="558" y="641" on="0"/>
        <pt x="554" y="551" on="0"/>
        <pt x="556" y="516" on="1"/>
        <pt x="537" y="508" on="0"/>
        <pt x="506" y="509" on="1"/>
        <pt x="505" y="541" on="0"/>
        <pt x="496" y="587" on="0"/>
        <pt x="468" y="617" on="0"/>
        <pt x="412" y="631" on="0"/>
        <pt x="364" y="631" on="1"/>
        <pt x="292" y="631" on="1"/>
        <pt x="243" y="342" on="1"/>
        <pt x="291" y="342" on="1"/>
        <pt x="322" y="342" on="0"/>
        <pt x="366" y="350" on="0"/>
        <pt x="396" y="369" on="0"/>
        <pt x="413" y="401" on="0"/>
        <pt x="417" y="426" on="1"/>
        <pt x="430" y="428" on="0"/>
        <pt x="451" y="429" on="0"/>
        <pt x="465" y="427" on="1"/>
        <pt x="459" y="402" on="0"/>
        <pt x="449" y="355" on="0"/>
        <pt x="444" y="316" on="1"/>
        <pt x="439" y="280" on="0"/>
        <pt x="434" y="226" on="0"/>
        <pt x="432" y="201" on="1"/>
        <pt x="418" y="203" on="0"/>
        <pt x="395" y="208" on="0"/>
        <pt x="386" y="214" on="1"/>
        <pt x="390" y="264" on="0"/>
        <pt x="348" y="299" on="0"/>
        <pt x="287" y="299" on="1"/>
        <pt x="236" y="299" on="1"/>
        <pt x="209" y="142" on="1"/>
        <pt x="204" y="113" on="0"/>
        <pt x="202" y="77" on="0"/>
        <pt x="216" y="56" on="0"/>
        <pt x="250" y="44" on="0"/>
        <pt x="280" y="40" on="1"/>
        <pt x="283" y="30" on="0"/>
        <pt x="284" y="11" on="0"/>
        <pt x="283" y="-3" on="1"/>
        <pt x="245" y="-1" on="0"/>
        <pt x="190" y="0" on="0"/>
        <pt x="156" y="0" on="1"/>
        <pt x="119" y="0" on="0"/>
        <pt x="59" y="-1" on="0"/>
        <pt x="25" y="-3" on="1"/>
        <pt x="26" y="22" on="0"/>
        <pt x="33" y="40" on="1"/>
        <pt x="55" y="44" on="0"/>
        <pt x="83" y="55" on="0"/>
        <pt x="100" y="75" on="0"/>
        <pt x="109" y="107" on="0"/>
        <pt x="114" y="132" on="1"/>
      </contour>
    </TTGlyph>
    <TTGlyph name="G" xMin="41" yMin="-9" xMax="687" yMax="685">
      <contour>
        <pt x="453" y="685" on="1"/>
        <pt x="531" y="685" on="0"/>
        <pt x="639" y="656" on="0"/>
        <pt x="687" y="626" on="1"/>
        <pt x="674" y="591" on="0"/>
        <pt x="659" y="520" on="0"/>
        <pt x="654" y="476" on="1"/>
        <pt x="631" y="466" on="0"/>
        <pt x="600" y="474" on="1"/>
        <pt x="606" y="529" on="0"/>
        <pt x="592" y="596" on="0"/>
        <pt x="555" y="632" on="0"/>
        <pt x="498" y="644" on="0"/>
        <pt x="461" y="644" on="1"/>
        <pt x="395" y="644" on="0"/>
        <pt x="289" y="599" on="0"/>
        <pt x="212" y="516" on="0"/>
        <pt x="165" y="402" on="0"/>
        <pt x="158" y="333" on="1"/>
        <pt x="152" y="278" on="0"/>
        <pt x="164" y="173" on="0"/>
        <pt x="208" y="90" on="0"/>
        <pt x="288" y="40" on="0"/>
        <pt x="349" y="40" on="1"/>
        <pt x="379" y="40" on="0"/>
        <pt x="427" y="46" on="0"/>
        <pt x="453" y="56" on="1"/>
        <pt x="464" y="60" on="0"/>
        <pt x="479" y="71" on="0"/>
        <pt x="489" y="91" on="0"/>
        <pt x="497" y="124" on="0"/>
        <pt x="502" y="151" on="1"/>
        <pt x="510" y="195" on="0"/>
        <pt x="514" y="246" on="0"/>
        <pt x="501" y="273" on="0"/>
        <pt x="470" y="282" on="0"/>
        <pt x="442" y="284" on="1"/>
        <pt x="438" y="305" on="0"/>
        <pt x="441" y="327" on="1"/>
        <pt x="474" y="325" on="0"/>
        <pt x="533" y="324" on="0"/>
        <pt x="564" y="324" on="1"/>
        <pt x="579" y="324" on="0"/>
        <pt x="605" y="324" on="0"/>
        <pt x="632" y="325" on="0"/>
        <pt x="662" y="326" on="0"/>
        <pt x="681" y="327" on="1"/>
        <pt x="680" y="302" on="0"/>
        <pt x="672" y="284" on="1"/>
        <pt x="656" y="282" on="0"/>
        <pt x="635" y="274" on="0"/>
        <pt x="620" y="249" on="0"/>
        <pt x="607" y="201" on="0"/>
        <pt x="600" y="161" on="1"/>
        <pt x="592" y="121" on="0"/>
        <pt x="590" y="81" on="0"/>
        <pt x="596" y="66" on="1"/>
        <pt x="548" y="34" on="0"/>
        <pt x="406" y="-9" on="0"/>
        <pt x="321" y="-9" on="1"/>
        <pt x="247" y="-9" on="0"/>
        <pt x="137" y="41" on="0"/>
        <pt x="68" y="131" on="0"/>
        <pt x="41" y="254" on="0"/>
        <pt x="51" y="328" on="1"/>
        <pt x="63" y="423" on="0"/>
        <pt x="141" y="558" on="0"/>
        <pt x="252" y="645" on="0"/>
        <pt x="385" y="685" on="0"/>
      </contour>
    </TTGlyph>
    <TTGlyph name="Germandbls" xMin="-2" yMin="-9" xMax="676" yMax="679">
      <contour>
        <pt x="137" y="427" on="1"/>
        <pt x="150" y="501" on="0"/>
        <pt x="205" y="599" on="0"/>
        <pt x="285" y="656" on="0"/>
        <pt x="384" y="679" on="0"/>
        <pt x="440" y="679" on="1"/>
        <pt x="472" y="679" on="0"/>
        <pt x="527" y="676" on="0"/>
        <pt x="553" y="676" on="1"/>
        <pt x="580" y="676" on="0"/>
        <pt x="637" y="677" on="0"/>
        <pt x="663" y="679" on="1"/>
        <pt x="676" y="658" on="0"/>
        <pt x="673" y="631" on="1"/>
        <pt x="639" y="583" on="0"/>
        <pt x="539" y="453" on="0"/>
        <pt x="483" y="388" on="1"/>
        <pt x="571" y="375" on="0"/>
        <pt x="660" y="259" on="0"/>
        <pt x="644" y="168" on="1"/>
        <pt x="638" y="131" on="0"/>
        <pt x="601" y="67" on="0"/>
        <pt x="541" y="19" on="0"/>
        <pt x="460" y="-9" on="0"/>
        <pt x="409" y="-9" on="1"/>
        <pt x="348" y="-9" on="0"/>
        <pt x="272" y="24" on="0"/>
        <pt x="244" y="53" on="1"/>
        <pt x="255" y="84" on="0"/>
        <pt x="272" y="156" on="0"/>
        <pt x="274" y="185" on="1"/>
        <pt x="286" y="190" on="0"/>
        <pt x="320" y="192" on="0"/>
        <pt x="331" y="188" on="1"/>
        <pt x="328" y="146" on="0"/>
        <pt x="332" y="88" on="0"/>
        <pt x="349" y="54" on="0"/>
        <pt x="382" y="39" on="0"/>
        <pt x="409" y="39" on="1"/>
        <pt x="435" y="39" on="0"/>
        <pt x="479" y="62" on="0"/>
        <pt x="511" y="98" on="0"/>
        <pt x="532" y="142" on="0"/>
        <pt x="536" y="164" on="1"/>
        <pt x="549" y="242" on="0"/>
        <pt x="474" y="343" on="0"/>
        <pt x="373" y="357" on="1"/>
        <pt x="362" y="374" on="0"/>
        <pt x="365" y="396" on="1"/>
        <pt x="412" y="448" on="0"/>
        <pt x="512" y="575" on="0"/>
        <pt x="555" y="635" on="1"/>
        <pt x="518" y="636" on="0"/>
        <pt x="458" y="638" on="0"/>
        <pt x="420" y="638" on="1"/>
        <pt x="386" y="638" on="0"/>
        <pt x="326" y="619" on="0"/>
        <pt x="277" y="570" on="0"/>
        <pt x="240" y="487" on="0"/>
        <pt x="230" y="424" on="1"/>
        <pt x="159" y="0" on="1"/>
        <pt x="137" y="0" on="0"/>
        <pt x="99" y="0" on="0"/>
        <pt x="62" y="-1" on="0"/>
        <pt x="22" y="-2" on="0"/>
        <pt x="-2" y="-3" on="1"/>
        <pt x="-2" y="22" on="0"/>
        <pt x="6" y="40" on="1"/>
        <pt x="26" y="42" on="0"/>
        <pt x="53" y="51" on="0"/>
        <pt x="70" y="70" on="0"/>
        <pt x="80" y="102" on="0"/>
        <pt x="85" y="127" on="1"/>
      </contour>
    </TTGlyph>
    <TTGlyph name="H" xMin="29" yMin="-3" xMax="769" yMax="679">
      <contour>
        <pt x="588" y="549" on="1"/>
        <pt x="592" y="574" on="0"/>
        <pt x="590" y="606" on="0"/>
        <pt x="576" y="624" on="0"/>
        <pt x="549" y="633" on="0"/>
        <pt x="528" y="636" on="1"/>
        <pt x="526" y="646" on="0"/>
        <pt x="525" y="667" on="0"/>
        <pt x="527" y="679" on="1"/>
        <pt x="582" y="676" on="0"/>
        <pt x="647" y="676" on="1"/>
        <pt x="709" y="676" on="0"/>
        <pt x="769" y="679" on="1"/>
        <pt x="768" y="667" on="0"/>
        <pt x="765" y="646" on="0"/>
        <pt x="760" y="636" on="1"/>
        <pt x="741" y="633" on="0"/>
        <pt x="715" y="623" on="0"/>
        <pt x="698" y="604" on="0"/>
        <pt x="686" y="573" on="0"/>
        <pt x="682" y="549" on="1"/>
        <pt x="609" y="127" on="1"/>
        <pt x="604" y="102" on="0"/>
        <pt x="605" y="70" on="0"/>
        <pt x="619" y="52" on="0"/>
        <pt x="646" y="43" on="0"/>
        <pt x="668" y="40" on="1"/>
        <pt x="673" y="20" on="0"/>
        <pt x="670" y="-3" on="1"/>
        <pt x="610" y="0" on="0"/>
        <pt x="549" y="0" on="1"/>
        <pt x="520" y="0" on="0"/>
        <pt x="454" y="-1" on="0"/>
        <pt x="428" y="-3" on="1"/>
        <pt x="428" y="22" on="0"/>
        <pt x="436" y="40" on="1"/>
        <pt x="456" y="42" on="0"/>
        <pt x="483" y="51" on="0"/>
        <pt x="500" y="70" on="0"/>
        <pt x="510" y="102" on="0"/>
        <pt x="515" y="127" on="1"/>
        <pt x="549" y="325" on="1"/>
        <pt x="518" y="325" on="0"/>
        <pt x="437" y="325" on="0"/>
        <pt x="353" y="324" on="0"/>
        <pt x="273" y="322" on="0"/>
        <pt x="243" y="320" on="1"/>
        <pt x="210" y="127" on="1"/>
        <pt x="205" y="102" on="0"/>
        <pt x="206" y="70" on="0"/>
        <pt x="220" y="52" on="0"/>
        <pt x="247" y="43" on="0"/>
        <pt x="269" y="40" on="1"/>
        <pt x="274" y="20" on="0"/>
        <pt x="271" y="-3" on="1"/>
        <pt x="211" y="0" on="0"/>
        <pt x="150" y="0" on="1"/>
        <pt x="121" y="0" on="0"/>
        <pt x="55" y="-1" on="0"/>
        <pt x="29" y="-3" on="1"/>
        <pt x="29" y="22" on="0"/>
        <pt x="37" y="40" on="1"/>
        <pt x="57" y="42" on="0"/>
        <pt x="84" y="51" on="0"/>
        <pt x="101" y="70" on="0"/>
        <pt x="111" y="102" on="0"/>
        <pt x="116" y="127" on="1"/>
        <pt x="189" y="549" on="1"/>
        <pt x="193" y="574" on="0"/>
        <pt x="191" y="606" on="0"/>
        <pt x="177" y="624" on="0"/>
        <pt x="150" y="633" on="0"/>
        <pt x="129" y="636" on="1"/>
        <pt x="127" y="646" on="0"/>
        <pt x="126" y="667" on="0"/>
        <pt x="128" y="679" on="1"/>
        <pt x="183" y="676" on="0"/>
        <pt x="248" y="676" on="1"/>
        <pt x="310" y="676" on="0"/>
        <pt x="370" y="679" on="1"/>
        <pt x="369" y="667" on="0"/>
        <pt x="366" y="646" on="0"/>
        <pt x="361" y="636" on="1"/>
        <pt x="342" y="633" on="0"/>
        <pt x="316" y="623" on="0"/>
        <pt x="299" y="604" on="0"/>
        <pt x="287" y="573" on="0"/>
        <pt x="283" y="549" on="1"/>
        <pt x="252" y="368" on="1"/>
        <pt x="557" y="368" on="1"/>
      </contour>
    </TTGlyph>
    <TTGlyph name="I" xMin="29" yMin="-3" xMax="370" yMax="679">
      <contour>
        <pt x="189" y="549" on="1"/>
        <pt x="193" y="574" on="0"/>
        <pt x="191" y="606" on="0"/>
        <pt x="177" y="624" on="0"/>
        <pt x="150" y="633" on="0"/>
        <pt x="129" y="636" on="1"/>
        <pt x="127" y="646" on="0"/>
        <pt x="126" y="667" on="0"/>
        <pt x="128" y="679" on="1"/>
        <pt x="183" y="676" on="0"/>
        <pt x="248" y="676" on="1"/>
        <pt x="310" y="676" on="0"/>
        <pt x="370" y="679" on="1"/>
        <pt x="369" y="667" on="0"/>
        <pt x="366" y="646" on="0"/>
        <pt x="361" y="636" on="1"/>
        <pt x="342" y="633" on="0"/>
        <pt x="316" y="623" on="0"/>
        <pt x="299" y="604" on="0"/>
        <pt x="287" y="573" on="0"/>
        <pt x="283" y="549" on="1"/>
        <pt x="210" y="127" on="1"/>
        <pt x="205" y="102" on="0"/>
        <pt x="206" y="70" on="0"/>
        <pt x="220" y="52" on="0"/>
        <pt x="247" y="43" on="0"/>
        <pt x="269" y="40" on="1"/>
        <pt x="274" y="20" on="0"/>
        <pt x="271" y="-3" on="1"/>
        <pt x="211" y="0" on="0"/>
        <pt x="150" y="0" on="1"/>
        <pt x="121" y="0" on="0"/>
        <pt x="55" y="-1" on="0"/>
        <pt x="29" y="-3" on="1"/>
        <pt x="29" y="22" on="0"/>
        <pt x="37" y="40" on="1"/>
        <pt x="57" y="42" on="0"/>
        <pt x="84" y="51" on="0"/>
        <pt x="101" y="70" on="0"/>
        <pt x="111" y="102" on="0"/>
        <pt x="116" y="127" on="1"/>
      </contour>
    </TTGlyph>
    <TTGlyph name="Iacute" xMin="29" yMin="-3" xMax="416" yMax="942">
      <component glyphName="acute" x="87" y="218" flags="0x4"/>
      <component glyphName="I" x="0" y="0" flags="0x4"/>
    </TTGlyph>
    <TTGlyph name="Icircumflex" xMin="29" yMin="-3" xMax="421" yMax="926">
      <component glyphName="circumflex" x="65" y="218" flags="0x4"/>
      <component glyphName="I" x="0" y="0" flags="0x4"/>
    </TTGlyph>
    <TTGlyph name="Idieresis" xMin="29" yMin="-3" xMax="408" yMax="858">
      <component glyphName="dieresis" x="-26" y="218" flags="0x4"/>
      <component glyphName="I" x="0" y="0" flags="0x4"/>
    </TTGlyph>
    <TTGlyph name="Igrave" xMin="29" yMin="-3" xMax="370" yMax="932">
      <component glyphName="grave" x="1" y="218" flags="0x4"/>
      <component glyphName="I" x="0" y="0" flags="0x4"/>
    </TTGlyph>
    <TTGlyph name="J" xMin="-52" yMin="-249" xMax="381" yMax="679">
      <contour>
        <pt x="200" y="554" on="1"/>
        <pt x="204" y="575" on="0"/>
        <pt x="203" y="604" on="0"/>
        <pt x="190" y="623" on="0"/>
        <pt x="163" y="633" on="0"/>
        <pt x="140" y="636" on="1"/>
        <pt x="135" y="653" on="0"/>
        <pt x="138" y="679" on="1"/>
        <pt x="159" y="677" on="0"/>
        <pt x="222" y="676" on="0"/>
        <pt x="254" y="676" on="1"/>
        <pt x="275" y="676" on="0"/>
        <pt x="307" y="676" on="0"/>
        <pt x="335" y="677" on="0"/>
        <pt x="363" y="678" on="0"/>
        <pt x="381" y="679" on="1"/>
        <pt x="380" y="654" on="0"/>
        <pt x="373" y="636" on="1"/>
        <pt x="353" y="633" on="0"/>
        <pt x="326" y="622" on="0"/>
        <pt x="308" y="602" on="0"/>
        <pt x="296" y="569" on="0"/>
        <pt x="292" y="544" on="1"/>
        <pt x="218" y="120" on="1"/>
        <pt x="206" y="50" on="0"/>
        <pt x="176" y="-57" on="0"/>
        <pt x="121" y="-143" on="0"/>
        <pt x="33" y="-215" on="0"/>
        <pt x="-36" y="-249" on="1"/>
        <pt x="-44" y="-244" on="0"/>
        <pt x="-52" y="-226" on="0"/>
        <pt x="-52" y="-215" on="1"/>
        <pt x="-21" y="-193" on="0"/>
        <pt x="32" y="-144" on="0"/>
        <pt x="73" y="-84" on="0"/>
        <pt x="102" y="-9" on="0"/>
        <pt x="110" y="39" on="1"/>
      </contour>
    </TTGlyph>
    <TTGlyph name="K" xMin="29" yMin="-9" xMax="680" yMax="679">
      <contour>
        <pt x="449" y="546" on="1"/>
        <pt x="475" y="571" on="0"/>
        <pt x="500" y="603" on="0"/>
        <pt x="505" y="624" on="0"/>
        <pt x="491" y="634" on="0"/>
        <pt x="477" y="636" on="1"/>
        <pt x="475" y="647" on="0"/>
        <pt x="471" y="668" on="0"/>
        <pt x="473" y="679" on="1"/>
        <pt x="503" y="677" on="0"/>
        <pt x="550" y="676" on="0"/>
        <pt x="582" y="676" on="1"/>
        <pt x="610" y="676" on="0"/>
        <pt x="650" y="677" on="0"/>
        <pt x="680" y="679" on="1"/>
        <pt x="680" y="670" on="0"/>
        <pt x="679" y="645" on="0"/>
        <pt x="675" y="636" on="1"/>
        <pt x="654" y="633" on="0"/>
        <pt x="620" y="624" on="0"/>
        <pt x="585" y="604" on="0"/>
        <pt x="544" y="572" on="0"/>
        <pt x="517" y="547" on="1"/>
        <pt x="330" y="371" on="1"/>
        <pt x="372" y="326" on="0"/>
        <pt x="443" y="214" on="0"/>
        <pt x="480" y="133" on="1"/>
        <pt x="496" y="98" on="0"/>
        <pt x="522" y="74" on="0"/>
        <pt x="537" y="74" on="1"/>
        <pt x="547" y="74" on="0"/>
        <pt x="560" y="80" on="0"/>
        <pt x="571" y="90" on="1"/>
        <pt x="590" y="80" on="0"/>
        <pt x="601" y="58" on="1"/>
        <pt x="575" y="26" on="0"/>
        <pt x="522" y="-9" on="0"/>
        <pt x="485" y="-9" on="1"/>
        <pt x="454" y="-7" on="0"/>
        <pt x="413" y="32" on="0"/>
        <pt x="396" y="77" on="1"/>
        <pt x="361" y="167" on="0"/>
        <pt x="290" y="291" on="0"/>
        <pt x="247" y="339" on="1"/>
        <pt x="210" y="127" on="1"/>
        <pt x="205" y="102" on="0"/>
        <pt x="205" y="70" on="0"/>
        <pt x="216" y="51" on="0"/>
        <pt x="240" y="42" on="0"/>
        <pt x="259" y="40" on="1"/>
        <pt x="264" y="20" on="0"/>
        <pt x="261" y="-3" on="1"/>
        <pt x="231" y="-1" on="0"/>
        <pt x="179" y="0" on="0"/>
        <pt x="150" y="0" on="1"/>
        <pt x="121" y="0" on="0"/>
        <pt x="55" y="-1" on="0"/>
        <pt x="29" y="-3" on="1"/>
        <pt x="29" y="22" on="0"/>
        <pt x="37" y="40" on="1"/>
        <pt x="57" y="42" on="0"/>
        <pt x="84" y="51" on="0"/>
        <pt x="101" y="70" on="0"/>
        <pt x="111" y="102" on="0"/>
        <pt x="116" y="127" on="1"/>
        <pt x="189" y="549" on="1"/>
        <pt x="193" y="574" on="0"/>
        <pt x="191" y="606" on="0"/>
        <pt x="177" y="624" on="0"/>
        <pt x="150" y="633" on="0"/>
        <pt x="129" y="636" on="1"/>
        <pt x="127" y="646" on="0"/>
        <pt x="126" y="667" on="0"/>
        <pt x="128" y="679" on="1"/>
        <pt x="183" y="676" on="0"/>
        <pt x="248" y="676" on="1"/>
        <pt x="310" y="676" on="0"/>
        <pt x="370" y="679" on="1"/>
        <pt x="369" y="667" on="0"/>
        <pt x="366" y="646" on="0"/>
        <pt x="361" y="636" on="1"/>
        <pt x="342" y="633" on="0"/>
        <pt x="316" y="623" on="0"/>
        <pt x="299" y="604" on="0"/>
        <pt x="287" y="573" on="0"/>
        <pt x="283" y="549" on="1"/>
        <pt x="250" y="357" on="1"/>
      </contour>
    </TTGlyph>
    <TTGlyph name="L" xMin="25" yMin="-3" xMax="524" yMax="679">
      <contour>
        <pt x="287" y="45" on="1"/>
        <pt x="329" y="45" on="0"/>
        <pt x="386" y="58" on="0"/>
        <pt x="429" y="88" on="0"/>
        <pt x="462" y="137" on="0"/>
        <pt x="480" y="172" on="1"/>
        <pt x="494" y="170" on="0"/>
        <pt x="515" y="160" on="0"/>
        <pt x="524" y="150" on="1"/>
        <pt x="491" y="86" on="0"/>
        <pt x="471" y="-3" on="1"/>
        <pt x="457" y="-2" on="0"/>
        <pt x="413" y="-1" on="0"/>
        <pt x="362" y="0" on="0"/>
        <pt x="306" y="0" on="0"/>
        <pt x="279" y="0" on="1"/>
        <pt x="250" y="0" on="0"/>
        <pt x="186" y="0" on="0"/>
        <pt x="120" y="-1" on="0"/>
        <pt x="55" y="-2" on="0"/>
        <pt x="25" y="-3" on="1"/>
        <pt x="26" y="8" on="0"/>
        <pt x="28" y="29" on="0"/>
        <pt x="32" y="40" on="1"/>
        <pt x="54" y="42" on="0"/>
        <pt x="83" y="53" on="0"/>
        <pt x="101" y="76" on="0"/>
        <pt x="111" y="114" on="0"/>
        <pt x="116" y="143" on="1"/>
        <pt x="188" y="554" on="1"/>
        <pt x="196" y="601" on="0"/>
        <pt x="168" y="631" on="0"/>
        <pt x="130" y="636" on="1"/>
        <pt x="128" y="646" on="0"/>
        <pt x="127" y="668" on="0"/>
        <pt x="128" y="679" on="1"/>
        <pt x="156" y="677" on="0"/>
        <pt x="215" y="676" on="0"/>
        <pt x="246" y="676" on="1"/>
        <pt x="277" y="676" on="0"/>
        <pt x="346" y="676" on="0"/>
        <pt x="375" y="678" on="1"/>
        <pt x="375" y="654" on="0"/>
        <pt x="367" y="636" on="1"/>
        <pt x="344" y="633" on="0"/>
        <pt x="315" y="623" on="0"/>
        <pt x="296" y="602" on="0"/>
        <pt x="284" y="567" on="0"/>
        <pt x="280" y="541" on="1"/>
        <pt x="209" y="133" on="1"/>
        <pt x="204" y="105" on="0"/>
        <pt x="204" y="71" on="0"/>
        <pt x="220" y="52" on="0"/>
        <pt x="253" y="45" on="0"/>
        <pt x="281" y="45" on="1"/>
      </contour>
    </TTGlyph>
    <TTGlyph name="M" xMin="-27" yMin="-9" xMax="877" yMax="679">
      <contour>
        <pt x="797" y="530" on="1"/>
        <pt x="785" y="315" on="0"/>
        <pt x="770" y="163" on="1"/>
        <pt x="766" y="126" on="0"/>
        <pt x="768" y="81" on="0"/>
        <pt x="780" y="56" on="0"/>
        <pt x="803" y="44" on="0"/>
        <pt x="820" y="40" on="1"/>
        <pt x="822" y="30" on="0"/>
        <pt x="823" y="8" on="0"/>
        <pt x="822" y="-3" on="1"/>
        <pt x="799" y="-1" on="0"/>
        <pt x="733" y="0" on="0"/>
        <pt x="700" y="0" on="1"/>
        <pt x="664" y="0" on="0"/>
        <pt x="605" y="-1" on="0"/>
        <pt x="580" y="-3" on="1"/>
        <pt x="580" y="19" on="0"/>
        <pt x="588" y="40" on="1"/>
        <pt x="612" y="44" on="0"/>
        <pt x="643" y="57" on="0"/>
        <pt x="662" y="84" on="0"/>
        <pt x="671" y="127" on="0"/>
        <pt x="674" y="160" on="1"/>
        <pt x="682" y="241" on="0"/>
        <pt x="695" y="415" on="0"/>
        <pt x="700" y="509" on="1"/>
        <pt x="630" y="378" on="0"/>
        <pt x="482" y="121" on="0"/>
        <pt x="405" y="-4" on="1"/>
        <pt x="395" y="-8" on="0"/>
        <pt x="375" y="-9" on="0"/>
        <pt x="364" y="-9" on="1"/>
        <pt x="332" y="123" on="0"/>
        <pt x="260" y="385" on="0"/>
        <pt x="218" y="519" on="1"/>
        <pt x="197" y="430" on="0"/>
        <pt x="153" y="264" on="0"/>
        <pt x="135" y="198" on="1"/>
        <pt x="122" y="151" on="0"/>
        <pt x="114" y="94" on="0"/>
        <pt x="123" y="61" on="0"/>
        <pt x="152" y="45" on="0"/>
        <pt x="177" y="40" on="1"/>
        <pt x="179" y="29" on="0"/>
        <pt x="180" y="8" on="0"/>
        <pt x="179" y="-3" on="1"/>
        <pt x="148" y="-1" on="0"/>
        <pt x="96" y="0" on="0"/>
        <pt x="76" y="0" on="1"/>
        <pt x="53" y="0" on="0"/>
        <pt x="8" y="-1" on="0"/>
        <pt x="-27" y="-3" on="1"/>
        <pt x="-27" y="7" on="0"/>
        <pt x="-24" y="29" on="0"/>
        <pt x="-19" y="40" on="1"/>
        <pt x="1" y="45" on="0"/>
        <pt x="29" y="62" on="0"/>
        <pt x="50" y="95" on="0"/>
        <pt x="70" y="148" on="0"/>
        <pt x="82" y="190" on="1"/>
        <pt x="108" y="278" on="0"/>
        <pt x="155" y="455" on="0"/>
        <pt x="176" y="546" on="1"/>
        <pt x="182" y="573" on="0"/>
        <pt x="183" y="606" on="0"/>
        <pt x="171" y="625" on="0"/>
        <pt x="146" y="634" on="0"/>
        <pt x="126" y="636" on="1"/>
        <pt x="124" y="648" on="0"/>
        <pt x="123" y="668" on="0"/>
        <pt x="125" y="679" on="1"/>
        <pt x="148" y="677" on="0"/>
        <pt x="185" y="676" on="0"/>
        <pt x="202" y="676" on="1"/>
        <pt x="222" y="676" on="0"/>
        <pt x="255" y="677" on="0"/>
        <pt x="274" y="679" on="1"/>
        <pt x="318" y="538" on="0"/>
        <pt x="394" y="260" on="0"/>
        <pt x="428" y="120" on="1"/>
        <pt x="509" y="257" on="0"/>
        <pt x="664" y="535" on="0"/>
        <pt x="739" y="679" on="1"/>
        <pt x="761" y="677" on="0"/>
        <pt x="789" y="676" on="0"/>
        <pt x="804" y="676" on="1"/>
        <pt x="819" y="676" on="0"/>
        <pt x="858" y="677" on="0"/>
        <pt x="877" y="679" on="1"/>
        <pt x="877" y="656" on="0"/>
        <pt x="870" y="636" on="1"/>
        <pt x="850" y="634" on="0"/>
        <pt x="824" y="623" on="0"/>
        <pt x="808" y="599" on="0"/>
        <pt x="799" y="560" on="0"/>
      </contour>
    </TTGlyph>
    <TTGlyph name="N" xMin="24" yMin="-9" xMax="759" yMax="679">
      <contour>
        <pt x="191" y="601" on="1"/>
        <pt x="180" y="620" on="0"/>
        <pt x="154" y="634" on="0"/>
        <pt x="130" y="636" on="1"/>
        <pt x="125" y="654" on="0"/>
        <pt x="128" y="679" on="1"/>
        <pt x="143" y="677" on="0"/>
        <pt x="171" y="676" on="0"/>
        <pt x="188" y="676" on="1"/>
        <pt x="231" y="676" on="0"/>
        <pt x="257" y="679" on="1"/>
        <pt x="336" y="551" on="0"/>
        <pt x="494" y="282" on="0"/>
        <pt x="566" y="151" on="1"/>
        <pt x="597" y="323" on="0"/>
        <pt x="626" y="499" on="1"/>
        <pt x="632" y="538" on="0"/>
        <pt x="634" y="588" on="0"/>
        <pt x="621" y="618" on="0"/>
        <pt x="594" y="632" on="0"/>
        <pt x="572" y="636" on="1"/>
        <pt x="570" y="646" on="0"/>
        <pt x="569" y="667" on="0"/>
        <pt x="571" y="679" on="1"/>
        <pt x="593" y="677" on="0"/>
        <pt x="642" y="676" on="0"/>
        <pt x="662" y="676" on="1"/>
        <pt x="685" y="676" on="0"/>
        <pt x="739" y="677" on="0"/>
        <pt x="759" y="679" on="1"/>
        <pt x="759" y="670" on="0"/>
        <pt x="755" y="646" on="0"/>
        <pt x="751" y="636" on="1"/>
        <pt x="734" y="631" on="0"/>
        <pt x="711" y="614" on="0"/>
        <pt x="694" y="581" on="0"/>
        <pt x="681" y="529" on="0"/>
        <pt x="675" y="489" on="1"/>
        <pt x="655" y="364" on="0"/>
        <pt x="613" y="120" on="0"/>
        <pt x="590" y="-4" on="1"/>
        <pt x="582" y="-7" on="0"/>
        <pt x="560" y="-9" on="0"/>
        <pt x="549" y="-9" on="1"/>
        <pt x="473" y="128" on="0"/>
        <pt x="316" y="397" on="0"/>
        <pt x="234" y="531" on="1"/>
        <pt x="220" y="443" on="0"/>
        <pt x="189" y="270" on="0"/>
        <pt x="172" y="182" on="1"/>
        <pt x="164" y="142" on="0"/>
        <pt x="162" y="91" on="0"/>
        <pt x="174" y="59" on="0"/>
        <pt x="203" y="44" on="0"/>
        <pt x="226" y="40" on="1"/>
        <pt x="231" y="23" on="0"/>
        <pt x="228" y="-3" on="1"/>
        <pt x="198" y="-1" on="0"/>
        <pt x="139" y="0" on="0"/>
        <pt x="119" y="0" on="1"/>
        <pt x="96" y="0" on="0"/>
        <pt x="57" y="-1" on="0"/>
        <pt x="24" y="-3" on="1"/>
        <pt x="25" y="21" on="0"/>
        <pt x="31" y="40" on="1"/>
        <pt x="50" y="43" on="0"/>
        <pt x="77" y="58" on="0"/>
        <pt x="97" y="88" on="0"/>
        <pt x="112" y="136" on="0"/>
        <pt x="119" y="172" on="1"/>
        <pt x="139" y="278" on="0"/>
        <pt x="176" y="490" on="0"/>
        <pt x="194" y="596" on="1"/>
      </contour>
    </TTGlyph>
    <TTGlyph name="Ntilde" xMin="24" yMin="-9" xMax="759" yMax="845">
      <component glyphName="N" x="0" y="0" flags="0x204"/>
      <component glyphName="tilde" x="186" y="218" flags="0x4"/>
    </TTGlyph>
    <TTGlyph name="O" xMin="42" yMin="-9" xMax="722" yMax="685">
      <contour>
        <pt x="426" y="685" on="1"/>
        <pt x="498" y="685" on="0"/>
        <pt x="617" y="634" on="0"/>
        <pt x="694" y="536" on="0"/>
        <pt x="722" y="390" on="0"/>
        <pt x="704" y="296" on="1"/>
        <pt x="692" y="233" on="0"/>
        <pt x="628" y="122" on="0"/>
        <pt x="533" y="39" on="0"/>
        <pt x="409" y="-9" on="0"/>
        <pt x="337" y="-9" on="1"/>
        <pt x="262" y="-9" on="0"/>
        <pt x="144" y="47" on="0"/>
        <pt x="69" y="148" on="0"/>
        <pt x="42" y="289" on="0"/>
        <pt x="59" y="375" on="1"/>
        <pt x="71" y="440" on="0"/>
        <pt x="138" y="553" on="0"/>
        <pt x="235" y="637" on="0"/>
        <pt x="357" y="685" on="0"/>
      </contour>
      <contour>
        <pt x="407" y="641" on="1"/>
        <pt x="362" y="641" on="0"/>
        <pt x="282" y="600" on="0"/>
        <pt x="218" y="529" on="0"/>
        <pt x="173" y="435" on="0"/>
        <pt x="163" y="382" on="1"/>
        <pt x="149" y="311" on="0"/>
        <pt x="162" y="185" on="0"/>
        <pt x="211" y="90" on="0"/>
        <pt x="296" y="35" on="0"/>
        <pt x="355" y="35" on="1"/>
        <pt x="404" y="35" on="0"/>
        <pt x="486" y="74" on="0"/>
        <pt x="549" y="144" on="0"/>
        <pt x="592" y="238" on="0"/>
        <pt x="602" y="294" on="1"/>
        <pt x="616" y="370" on="0"/>
        <pt x="598" y="498" on="0"/>
        <pt x="544" y="590" on="0"/>
        <pt x="460" y="641" on="0"/>
      </contour>
    </TTGlyph>
    <TTGlyph name="Oacute" xMin="42" yMin="-9" xMax="722" yMax="942">
      <component glyphName="O" x="0" y="0" flags="0x204"/>
      <component glyphName="acute" x="261" y="218" flags="0x4"/>
    </TTGlyph>
    <TTGlyph name="Ocircumflex" xMin="42" yMin="-9" xMax="722" yMax="926">
      <component glyphName="O" x="0" y="0" flags="0x204"/>
      <component glyphName="circumflex" x="239" y="218" flags="0x4"/>
    </TTGlyph>
    <TTGlyph name="Odieresis" xMin="42" yMin="-9" xMax="722" yMax="858">
      <component glyphName="O" x="0" y="0" flags="0x204"/>
      <component glyphName="dieresis" x="147" y="218" flags="0x4"/>
    </TTGlyph>
    <TTGlyph name="Ograve" xMin="42" yMin="-9" xMax="722" yMax="932">
      <component glyphName="grave" x="175" y="218" flags="0x4"/>
      <component glyphName="O" x="0" y="0" flags="0x4"/>
    </TTGlyph>
    <TTGlyph name="Oslash" xMin="42" yMin="-9" xMax="724" yMax="685">
      <contour>
        <pt x="114" y="87" on="1"/>
        <pt x="72" y="138" on="0"/>
        <pt x="42" y="284" on="0"/>
        <pt x="59" y="375" on="1"/>
        <pt x="71" y="440" on="0"/>
        <pt x="138" y="553" on="0"/>
        <pt x="235" y="637" on="0"/>
        <pt x="357" y="685" on="0"/>
        <pt x="426" y="685" on="1"/>
        <pt x="538" y="685" on="0"/>
        <pt x="613" y="627" on="1"/>
        <pt x="666" y="685" on="1"/>
        <pt x="682" y="685" on="0"/>
        <pt x="708" y="673" on="0"/>
        <pt x="715" y="664" on="1"/>
        <pt x="648" y="594" on="1"/>
        <pt x="691" y="545" on="0"/>
        <pt x="724" y="396" on="0"/>
        <pt x="704" y="296" on="1"/>
        <pt x="692" y="233" on="0"/>
        <pt x="628" y="122" on="0"/>
        <pt x="533" y="39" on="0"/>
        <pt x="409" y="-9" on="0"/>
        <pt x="337" y="-9" on="1"/>
        <pt x="280" y="-9" on="0"/>
        <pt x="185" y="23" on="0"/>
        <pt x="148" y="53" on="1"/>
        <pt x="93" y="-9" on="1"/>
        <pt x="77" y="-9" on="0"/>
        <pt x="53" y="4" on="0"/>
        <pt x="48" y="15" on="1"/>
      </contour>
      <contour>
        <pt x="556" y="566" on="1"/>
        <pt x="529" y="602" on="0"/>
        <pt x="453" y="641" on="0"/>
        <pt x="407" y="641" on="1"/>
        <pt x="362" y="641" on="0"/>
        <pt x="282" y="600" on="0"/>
        <pt x="218" y="529" on="0"/>
        <pt x="173" y="435" on="0"/>
        <pt x="163" y="382" on="1"/>
        <pt x="151" y="317" on="0"/>
        <pt x="158" y="202" on="0"/>
        <pt x="178" y="156" on="1"/>
      </contour>
      <contour>
        <pt x="581" y="524" on="1"/>
        <pt x="488" y="426" on="0"/>
        <pt x="291" y="212" on="0"/>
        <pt x="202" y="113" on="1"/>
        <pt x="228" y="76" on="0"/>
        <pt x="304" y="35" on="0"/>
        <pt x="355" y="35" on="1"/>
        <pt x="404" y="35" on="0"/>
        <pt x="486" y="74" on="0"/>
        <pt x="549" y="144" on="0"/>
        <pt x="592" y="238" on="0"/>
        <pt x="602" y="294" on="1"/>
        <pt x="615" y="363" on="0"/>
        <pt x="602" y="479" on="0"/>
      </contour>
    </TTGlyph>
    <TTGlyph name="Otilde" xMin="42" yMin="-9" xMax="722" yMax="845">
      <component glyphName="tilde" x="181" y="218" flags="0x4"/>
      <component glyphName="O" x="0" y="0" flags="0x4"/>
    </TTGlyph>
    <TTGlyph name="P" xMin="25" yMin="-3" xMax="606" yMax="679">
      <contour>
        <pt x="187" y="554" on="1"/>
        <pt x="191" y="577" on="0"/>
        <pt x="191" y="606" on="0"/>
        <pt x="179" y="624" on="0"/>
        <pt x="152" y="633" on="0"/>
        <pt x="130" y="636" on="1"/>
        <pt x="125" y="657" on="0"/>
        <pt x="128" y="679" on="1"/>
        <pt x="142" y="678" on="0"/>
        <pt x="179" y="677" on="0"/>
        <pt x="217" y="676" on="0"/>
        <pt x="253" y="676" on="0"/>
        <pt x="266" y="676" on="1"/>
        <pt x="276" y="676" on="0"/>
        <pt x="308" y="677" on="0"/>
        <pt x="345" y="678" on="0"/>
        <pt x="385" y="679" on="0"/>
        <pt x="403" y="679" on="1"/>
        <pt x="512" y="679" on="0"/>
        <pt x="606" y="561" on="0"/>
        <pt x="586" y="455" on="1"/>
        <pt x="577" y="408" on="0"/>
        <pt x="531" y="333" on="0"/>
        <pt x="463" y="280" on="0"/>
        <pt x="375" y="251" on="0"/>
        <pt x="325" y="251" on="1"/>
        <pt x="282" y="251" on="0"/>
        <pt x="260" y="263" on="1"/>
        <pt x="259" y="271" on="0"/>
        <pt x="265" y="297" on="0"/>
        <pt x="269" y="303" on="1"/>
        <pt x="279" y="300" on="0"/>
        <pt x="305" y="296" on="0"/>
        <pt x="320" y="296" on="1"/>
        <pt x="388" y="296" on="0"/>
        <pt x="475" y="374" on="0"/>
        <pt x="490" y="452" on="1"/>
        <pt x="507" y="540" on="0"/>
        <pt x="444" y="635" on="0"/>
        <pt x="356" y="635" on="1"/>
        <pt x="340" y="635" on="0"/>
        <pt x="310" y="633" on="0"/>
        <pt x="292" y="628" on="1"/>
        <pt x="209" y="142" on="1"/>
        <pt x="204" y="113" on="0"/>
        <pt x="202" y="77" on="0"/>
        <pt x="216" y="56" on="0"/>
        <pt x="250" y="44" on="0"/>
        <pt x="280" y="40" on="1"/>
        <pt x="283" y="30" on="0"/>
        <pt x="284" y="11" on="0"/>
        <pt x="283" y="-3" on="1"/>
        <pt x="245" y="-1" on="0"/>
        <pt x="190" y="0" on="0"/>
        <pt x="156" y="0" on="1"/>
        <pt x="119" y="0" on="0"/>
        <pt x="59" y="-1" on="0"/>
        <pt x="25" y="-3" on="1"/>
        <pt x="26" y="22" on="0"/>
        <pt x="33" y="40" on="1"/>
        <pt x="55" y="44" on="0"/>
        <pt x="83" y="55" on="0"/>
        <pt x="100" y="75" on="0"/>
        <pt x="109" y="107" on="0"/>
        <pt x="114" y="132" on="1"/>
      </contour>
    </TTGlyph>
    <TTGlyph name="Q" xMin="42" yMin="-219" xMax="749" yMax="685">
      <contour>
        <pt x="721" y="-120" on="1"/>
        <pt x="731" y="-124" on="0"/>
        <pt x="746" y="-142" on="0"/>
        <pt x="749" y="-153" on="1"/>
        <pt x="743" y="-163" on="0"/>
        <pt x="721" y="-186" on="0"/>
        <pt x="691" y="-206" on="0"/>
        <pt x="654" y="-219" on="0"/>
        <pt x="633" y="-219" on="1"/>
        <pt x="592" y="-219" on="0"/>
        <pt x="529" y="-184" on="0"/>
        <pt x="498" y="-134" on="1"/>
        <pt x="468" y="-85" on="0"/>
        <pt x="397" y="-17" on="0"/>
        <pt x="337" y="-9" on="1"/>
        <pt x="262" y="-9" on="0"/>
        <pt x="144" y="47" on="0"/>
        <pt x="69" y="148" on="0"/>
        <pt x="42" y="289" on="0"/>
        <pt x="59" y="375" on="1"/>
        <pt x="71" y="440" on="0"/>
        <pt x="138" y="553" on="0"/>
        <pt x="235" y="637" on="0"/>
        <pt x="357" y="685" on="0"/>
        <pt x="426" y="685" on="1"/>
        <pt x="498" y="685" on="0"/>
        <pt x="617" y="634" on="0"/>
        <pt x="694" y="536" on="0"/>
        <pt x="722" y="390" on="0"/>
        <pt x="704" y="296" on="1"/>
        <pt x="695" y="246" on="0"/>
        <pt x="650" y="155" on="0"/>
        <pt x="584" y="80" on="0"/>
        <pt x="499" y="23" on="0"/>
        <pt x="449" y="8" on="1"/>
        <pt x="492" y="-6" on="0"/>
        <pt x="573" y="-60" on="0"/>
        <pt x="610" y="-93" on="1"/>
        <pt x="642" y="-122" on="0"/>
        <pt x="674" y="-138" on="0"/>
        <pt x="691" y="-136" on="1"/>
        <pt x="700" y="-135" on="0"/>
        <pt x="716" y="-126" on="0"/>
      </contour>
      <contour>
        <pt x="163" y="382" on="1"/>
        <pt x="149" y="311" on="0"/>
        <pt x="162" y="185" on="0"/>
        <pt x="211" y="90" on="0"/>
        <pt x="296" y="35" on="0"/>
        <pt x="355" y="35" on="1"/>
        <pt x="404" y="35" on="0"/>
        <pt x="486" y="74" on="0"/>
        <pt x="549" y="144" on="0"/>
        <pt x="592" y="238" on="0"/>
        <pt x="602" y="294" on="1"/>
        <pt x="616" y="370" on="0"/>
        <pt x="598" y="498" on="0"/>
        <pt x="544" y="590" on="0"/>
        <pt x="460" y="641" on="0"/>
        <pt x="407" y="641" on="1"/>
        <pt x="362" y="641" on="0"/>
        <pt x="282" y="600" on="0"/>
        <pt x="218" y="529" on="0"/>
        <pt x="173" y="435" on="0"/>
      </contour>
    </TTGlyph>
    <TTGlyph name="R" xMin="29" yMin="-9" xMax="628" yMax="679">
      <contour>
        <pt x="190" y="554" on="1"/>
        <pt x="197" y="597" on="0"/>
        <pt x="170" y="631" on="0"/>
        <pt x="129" y="636" on="1"/>
        <pt x="125" y="655" on="0"/>
        <pt x="128" y="679" on="1"/>
        <pt x="165" y="677" on="0"/>
        <pt x="221" y="676" on="0"/>
        <pt x="256" y="676" on="1"/>
        <pt x="298" y="676" on="0"/>
        <pt x="380" y="679" on="0"/>
        <pt x="421" y="679" on="1"/>
        <pt x="529" y="679" on="0"/>
        <pt x="628" y="583" on="0"/>
        <pt x="611" y="495" on="1"/>
        <pt x="598" y="428" on="0"/>
        <pt x="480" y="339" on="0"/>
        <pt x="386" y="322" on="1"/>
        <pt x="398" y="306" on="0"/>
        <pt x="419" y="274" on="0"/>
        <pt x="440" y="235" on="0"/>
        <pt x="462" y="185" on="0"/>
        <pt x="475" y="152" on="1"/>
        <pt x="492" y="110" on="0"/>
        <pt x="523" y="74" on="0"/>
        <pt x="537" y="74" on="1"/>
        <pt x="547" y="74" on="0"/>
        <pt x="560" y="80" on="0"/>
        <pt x="571" y="90" on="1"/>
        <pt x="590" y="80" on="0"/>
        <pt x="601" y="58" on="1"/>
        <pt x="575" y="26" on="0"/>
        <pt x="522" y="-9" on="0"/>
        <pt x="485" y="-9" on="1"/>
        <pt x="443" y="-9" on="0"/>
        <pt x="402" y="56" on="0"/>
        <pt x="385" y="116" on="1"/>
        <pt x="366" y="178" on="0"/>
        <pt x="325" y="266" on="0"/>
        <pt x="299" y="306" on="1"/>
        <pt x="283" y="304" on="0"/>
        <pt x="253" y="305" on="0"/>
        <pt x="241" y="306" on="1"/>
        <pt x="209" y="122" on="1"/>
        <pt x="204" y="97" on="0"/>
        <pt x="205" y="67" on="0"/>
        <pt x="216" y="50" on="0"/>
        <pt x="240" y="43" on="0"/>
        <pt x="258" y="40" on="1"/>
        <pt x="260" y="29" on="0"/>
        <pt x="261" y="8" on="0"/>
        <pt x="260" y="-3" on="1"/>
        <pt x="241" y="-2" on="0"/>
        <pt x="212" y="-1" on="0"/>
        <pt x="186" y="0" on="0"/>
        <pt x="160" y="0" on="0"/>
        <pt x="144" y="0" on="1"/>
        <pt x="109" y="0" on="0"/>
        <pt x="58" y="-1" on="0"/>
        <pt x="29" y="-3" on="1"/>
        <pt x="29" y="8" on="0"/>
        <pt x="32" y="30" on="0"/>
        <pt x="37" y="40" on="1"/>
        <pt x="59" y="42" on="0"/>
        <pt x="86" y="53" on="0"/>
        <pt x="103" y="74" on="0"/>
        <pt x="112" y="107" on="0"/>
        <pt x="117" y="132" on="1"/>
      </contour>
      <contour>
        <pt x="249" y="353" on="1"/>
        <pt x="260" y="351" on="0"/>
        <pt x="279" y="351" on="0"/>
        <pt x="289" y="351" on="1"/>
        <pt x="331" y="351" on="0"/>
        <pt x="406" y="370" on="0"/>
        <pt x="466" y="406" on="0"/>
        <pt x="506" y="461" on="0"/>
        <pt x="513" y="497" on="1"/>
        <pt x="526" y="566" on="0"/>
        <pt x="456" y="636" on="0"/>
        <pt x="378" y="636" on="1"/>
        <pt x="330" y="636" on="0"/>
        <pt x="296" y="627" on="1"/>
      </contour>
    </TTGlyph>
    <TTGlyph name="S" xMin="2" yMin="-9" xMax="454" yMax="685">
      <contour>
        <pt x="298" y="685" on="1"/>
        <pt x="350" y="685" on="0"/>
        <pt x="429" y="658" on="0"/>
        <pt x="454" y="638" on="1"/>
        <pt x="449" y="604" on="0"/>
        <pt x="443" y="543" on="0"/>
        <pt x="443" y="509" on="1"/>
        <pt x="418" y="499" on="0"/>
        <pt x="388" y="504" on="1"/>
        <pt x="386" y="582" on="0"/>
        <pt x="335" y="639" on="0"/>
        <pt x="291" y="639" on="1"/>
        <pt x="242" y="639" on="0"/>
        <pt x="181" y="594" on="0"/>
        <pt x="173" y="541" on="1"/>
        <pt x="167" y="501" on="0"/>
        <pt x="204" y="442" on="0"/>
        <pt x="267" y="391" on="0"/>
        <pt x="340" y="342" on="0"/>
        <pt x="401" y="282" on="0"/>
        <pt x="434" y="206" on="0"/>
        <pt x="425" y="153" on="1"/>
        <pt x="419" y="117" on="0"/>
        <pt x="380" y="57" on="0"/>
        <pt x="322" y="14" on="0"/>
        <pt x="249" y="-9" on="0"/>
        <pt x="209" y="-9" on="1"/>
        <pt x="171" y="-9" on="0"/>
        <pt x="110" y="1" on="0"/>
        <pt x="61" y="20" on="0"/>
        <pt x="20" y="47" on="0"/>
        <pt x="2" y="63" on="1"/>
        <pt x="13" y="98" on="0"/>
        <pt x="29" y="168" on="0"/>
        <pt x="31" y="202" on="1"/>
        <pt x="43" y="207" on="0"/>
        <pt x="73" y="208" on="0"/>
        <pt x="85" y="204" on="1"/>
        <pt x="80" y="116" on="0"/>
        <pt x="135" y="39" on="0"/>
        <pt x="211" y="39" on="1"/>
        <pt x="256" y="39" on="0"/>
        <pt x="320" y="92" on="0"/>
        <pt x="328" y="136" on="1"/>
        <pt x="336" y="179" on="0"/>
        <pt x="301" y="239" on="0"/>
        <pt x="240" y="289" on="0"/>
        <pt x="167" y="336" on="0"/>
        <pt x="107" y="396" on="0"/>
        <pt x="75" y="477" on="0"/>
        <pt x="85" y="535" on="1"/>
        <pt x="97" y="604" on="0"/>
        <pt x="207" y="685" on="0"/>
      </contour>
    </TTGlyph>
    <TTGlyph name="T" xMin="63" yMin="-3" xMax="609" yMax="679">
      <contour>
        <pt x="242" y="637" on="1"/>
        <pt x="215" y="637" on="0"/>
        <pt x="175" y="623" on="0"/>
        <pt x="144" y="592" on="0"/>
        <pt x="121" y="544" on="0"/>
        <pt x="110" y="510" on="1"/>
        <pt x="95" y="510" on="0"/>
        <pt x="71" y="515" on="0"/>
        <pt x="63" y="524" on="1"/>
        <pt x="68" y="540" on="0"/>
        <pt x="79" y="579" on="0"/>
        <pt x="88" y="620" on="0"/>
        <pt x="96" y="661" on="0"/>
        <pt x="99" y="679" on="1"/>
        <pt x="141" y="677" on="0"/>
        <pt x="275" y="676" on="0"/>
        <pt x="350" y="676" on="1"/>
        <pt x="428" y="676" on="0"/>
        <pt x="567" y="677" on="0"/>
        <pt x="609" y="679" on="1"/>
        <pt x="603" y="644" on="0"/>
        <pt x="596" y="563" on="0"/>
        <pt x="596" y="521" on="1"/>
        <pt x="585" y="515" on="0"/>
        <pt x="562" y="512" on="0"/>
        <pt x="548" y="513" on="1"/>
        <pt x="548" y="547" on="0"/>
        <pt x="539" y="595" on="0"/>
        <pt x="516" y="624" on="0"/>
        <pt x="476" y="637" on="0"/>
        <pt x="445" y="637" on="1"/>
        <pt x="395" y="637" on="1"/>
        <pt x="305" y="122" on="1"/>
        <pt x="301" y="101" on="0"/>
        <pt x="301" y="72" on="0"/>
        <pt x="315" y="54" on="0"/>
        <pt x="345" y="43" on="0"/>
        <pt x="372" y="40" on="1"/>
        <pt x="377" y="19" on="0"/>
        <pt x="374" y="-3" on="1"/>
        <pt x="342" y="-1" on="0"/>
        <pt x="276" y="0" on="0"/>
        <pt x="246" y="0" on="1"/>
        <pt x="213" y="0" on="0"/>
        <pt x="142" y="-1" on="0"/>
        <pt x="115" y="-3" on="1"/>
        <pt x="115" y="22" on="0"/>
        <pt x="122" y="41" on="1"/>
        <pt x="146" y="44" on="0"/>
        <pt x="178" y="54" on="0"/>
        <pt x="197" y="74" on="0"/>
        <pt x="208" y="107" on="0"/>
        <pt x="213" y="132" on="1"/>
        <pt x="301" y="637" on="1"/>
      </contour>
    </TTGlyph>
    <TTGlyph name="Thorn" xMin="29" yMin="-3" xMax="575" yMax="679">
      <contour>
        <pt x="189" y="549" on="1"/>
        <pt x="193" y="574" on="0"/>
        <pt x="191" y="606" on="0"/>
        <pt x="177" y="624" on="0"/>
        <pt x="150" y="633" on="0"/>
        <pt x="129" y="636" on="1"/>
        <pt x="127" y="646" on="0"/>
        <pt x="126" y="667" on="0"/>
        <pt x="128" y="679" on="1"/>
        <pt x="183" y="676" on="0"/>
        <pt x="248" y="676" on="1"/>
        <pt x="310" y="676" on="0"/>
        <pt x="370" y="679" on="1"/>
        <pt x="369" y="667" on="0"/>
        <pt x="366" y="646" on="0"/>
        <pt x="361" y="636" on="1"/>
        <pt x="341" y="633" on="0"/>
        <pt x="315" y="623" on="0"/>
        <pt x="298" y="603" on="0"/>
        <pt x="287" y="568" on="0"/>
        <pt x="281" y="539" on="1"/>
        <pt x="307" y="540" on="0"/>
        <pt x="362" y="540" on="0"/>
        <pt x="386" y="540" on="1"/>
        <pt x="442" y="540" on="0"/>
        <pt x="518" y="509" on="0"/>
        <pt x="561" y="455" on="0"/>
        <pt x="575" y="384" on="0"/>
        <pt x="568" y="344" on="1"/>
        <pt x="562" y="310" on="0"/>
        <pt x="522" y="241" on="0"/>
        <pt x="457" y="186" on="0"/>
        <pt x="367" y="151" on="0"/>
        <pt x="311" y="151" on="1"/>
        <pt x="288" y="151" on="0"/>
        <pt x="253" y="158" on="0"/>
        <pt x="243" y="166" on="1"/>
        <pt x="238" y="182" on="0"/>
        <pt x="244" y="198" on="1"/>
        <pt x="259" y="189" on="0"/>
        <pt x="296" y="189" on="1"/>
        <pt x="324" y="189" on="0"/>
        <pt x="381" y="203" on="0"/>
        <pt x="429" y="238" on="0"/>
        <pt x="465" y="298" on="0"/>
        <pt x="473" y="343" on="1"/>
        <pt x="479" y="378" on="0"/>
        <pt x="470" y="437" on="0"/>
        <pt x="436" y="479" on="0"/>
        <pt x="377" y="502" on="0"/>
        <pt x="333" y="502" on="1"/>
        <pt x="317" y="502" on="0"/>
        <pt x="293" y="500" on="0"/>
        <pt x="274" y="495" on="1"/>
        <pt x="210" y="127" on="1"/>
        <pt x="205" y="102" on="0"/>
        <pt x="206" y="70" on="0"/>
        <pt x="220" y="52" on="0"/>
        <pt x="247" y="43" on="0"/>
        <pt x="269" y="40" on="1"/>
        <pt x="274" y="20" on="0"/>
        <pt x="271" y="-3" on="1"/>
        <pt x="211" y="0" on="0"/>
        <pt x="150" y="0" on="1"/>
        <pt x="121" y="0" on="0"/>
        <pt x="55" y="-1" on="0"/>
        <pt x="29" y="-3" on="1"/>
        <pt x="29" y="22" on="0"/>
        <pt x="37" y="40" on="1"/>
        <pt x="57" y="42" on="0"/>
        <pt x="84" y="51" on="0"/>
        <pt x="101" y="70" on="0"/>
        <pt x="111" y="102" on="0"/>
        <pt x="116" y="127" on="1"/>
      </contour>
    </TTGlyph>
    <TTGlyph name="U" xMin="77" yMin="-9" xMax="700" yMax="679">
      <contour>
        <pt x="150" y="554" on="1"/>
        <pt x="154" y="577" on="0"/>
        <pt x="155" y="607" on="0"/>
        <pt x="146" y="625" on="0"/>
        <pt x="125" y="634" on="0"/>
        <pt x="109" y="636" on="1"/>
        <pt x="105" y="653" on="0"/>
        <pt x="108" y="679" on="1"/>
        <pt x="143" y="677" on="0"/>
        <pt x="190" y="676" on="0"/>
        <pt x="219" y="676" on="1"/>
        <pt x="251" y="676" on="0"/>
        <pt x="302" y="677" on="0"/>
        <pt x="339" y="679" on="1"/>
        <pt x="338" y="667" on="0"/>
        <pt x="335" y="647" on="0"/>
        <pt x="330" y="636" on="1"/>
        <pt x="307" y="634" on="0"/>
        <pt x="277" y="625" on="0"/>
        <pt x="258" y="605" on="0"/>
        <pt x="247" y="571" on="0"/>
        <pt x="242" y="544" on="1"/>
        <pt x="193" y="260" on="1"/>
        <pt x="183" y="203" on="0"/>
        <pt x="192" y="121" on="0"/>
        <pt x="227" y="68" on="0"/>
        <pt x="284" y="44" on="0"/>
        <pt x="321" y="44" on="1"/>
        <pt x="395" y="44" on="0"/>
        <pt x="492" y="149" on="0"/>
        <pt x="509" y="246" on="1"/>
        <pt x="556" y="514" on="1"/>
        <pt x="562" y="546" on="0"/>
        <pt x="562" y="587" on="0"/>
        <pt x="550" y="613" on="0"/>
        <pt x="523" y="629" on="0"/>
        <pt x="502" y="636" on="1"/>
        <pt x="498" y="655" on="0"/>
        <pt x="501" y="679" on="1"/>
        <pt x="533" y="677" on="0"/>
        <pt x="579" y="676" on="0"/>
        <pt x="600" y="676" on="1"/>
        <pt x="612" y="676" on="0"/>
        <pt x="633" y="676" on="0"/>
        <pt x="656" y="677" on="0"/>
        <pt x="683" y="678" on="0"/>
        <pt x="700" y="679" on="1"/>
        <pt x="700" y="657" on="0"/>
        <pt x="691" y="636" on="1"/>
        <pt x="670" y="629" on="0"/>
        <pt x="642" y="613" on="0"/>
        <pt x="624" y="585" on="0"/>
        <pt x="611" y="540" on="0"/>
        <pt x="605" y="504" on="1"/>
        <pt x="561" y="255" on="1"/>
        <pt x="537" y="119" on="0"/>
        <pt x="410" y="-9" on="0"/>
        <pt x="301" y="-9" on="1"/>
        <pt x="174" y="-9" on="0"/>
        <pt x="77" y="131" on="0"/>
        <pt x="99" y="256" on="1"/>
      </contour>
    </TTGlyph>
    <TTGlyph name="Uacute" xMin="77" yMin="-9" xMax="700" yMax="942">
      <component glyphName="U" x="0" y="0" flags="0x204"/>
      <component glyphName="acute" x="258" y="218" flags="0x4"/>
    </TTGlyph>
    <TTGlyph name="Ucircumflex" xMin="77" yMin="-9" xMax="700" yMax="926">
      <component glyphName="U" x="0" y="0" flags="0x204"/>
      <component glyphName="circumflex" x="236" y="218" flags="0x4"/>
    </TTGlyph>
    <TTGlyph name="Udieresis" xMin="77" yMin="-9" xMax="700" yMax="858">
      <component glyphName="dieresis" x="144" y="218" flags="0x4"/>
      <component glyphName="U" x="0" y="0" flags="0x4"/>
    </TTGlyph>
    <TTGlyph name="Ugrave" xMin="77" yMin="-9" xMax="700" yMax="932">
      <component glyphName="U" x="0" y="0" flags="0x204"/>
      <component glyphName="grave" x="172" y="218" flags="0x4"/>
    </TTGlyph>
    <TTGlyph name="V" xMin="100" yMin="-8" xMax="725" yMax="679">
      <contour>
        <pt x="631" y="676" on="1"/>
        <pt x="656" y="676" on="0"/>
        <pt x="696" y="677" on="0"/>
        <pt x="725" y="679" on="1"/>
        <pt x="725" y="657" on="0"/>
        <pt x="716" y="636" on="1"/>
        <pt x="704" y="630" on="0"/>
        <pt x="686" y="616" on="0"/>
        <pt x="665" y="589" on="0"/>
        <pt x="640" y="545" on="0"/>
        <pt x="622" y="510" on="1"/>
        <pt x="557" y="383" on="0"/>
        <pt x="421" y="132" on="0"/>
        <pt x="343" y="0" on="1"/>
        <pt x="335" y="-5" on="0"/>
        <pt x="313" y="-8" on="0"/>
        <pt x="302" y="-6" on="1"/>
        <pt x="285" y="67" on="0"/>
        <pt x="251" y="213" on="0"/>
        <pt x="217" y="351" on="0"/>
        <pt x="185" y="476" on="0"/>
        <pt x="171" y="529" on="1"/>
        <pt x="162" y="561" on="0"/>
        <pt x="149" y="601" on="0"/>
        <pt x="134" y="623" on="0"/>
        <pt x="117" y="634" on="0"/>
        <pt x="104" y="637" on="1"/>
        <pt x="100" y="655" on="0"/>
        <pt x="103" y="679" on="1"/>
        <pt x="137" y="677" on="0"/>
        <pt x="188" y="676" on="0"/>
        <pt x="218" y="676" on="1"/>
        <pt x="251" y="676" on="0"/>
        <pt x="308" y="677" on="0"/>
        <pt x="343" y="679" on="1"/>
        <pt x="343" y="670" on="0"/>
        <pt x="339" y="646" on="0"/>
        <pt x="334" y="635" on="1"/>
        <pt x="307" y="632" on="0"/>
        <pt x="275" y="623" on="0"/>
        <pt x="261" y="600" on="0"/>
        <pt x="265" y="558" on="0"/>
        <pt x="274" y="523" on="1"/>
        <pt x="299" y="432" on="0"/>
        <pt x="345" y="244" on="0"/>
        <pt x="367" y="141" on="1"/>
        <pt x="423" y="236" on="0"/>
        <pt x="523" y="422" on="0"/>
        <pt x="571" y="522" on="1"/>
        <pt x="585" y="552" on="0"/>
        <pt x="599" y="590" on="0"/>
        <pt x="593" y="615" on="0"/>
        <pt x="567" y="630" on="0"/>
        <pt x="541" y="636" on="1"/>
        <pt x="537" y="655" on="0"/>
        <pt x="540" y="679" on="1"/>
        <pt x="561" y="677" on="0"/>
        <pt x="602" y="676" on="0"/>
      </contour>
    </TTGlyph>
    <TTGlyph name="W" xMin="100" yMin="-8" xMax="1033" yMax="686">
      <contour>
        <pt x="938" y="676" on="1"/>
        <pt x="963" y="676" on="0"/>
        <pt x="1013" y="677" on="0"/>
        <pt x="1033" y="679" on="1"/>
        <pt x="1033" y="657" on="0"/>
        <pt x="1024" y="636" on="1"/>
        <pt x="1012" y="631" on="0"/>
        <pt x="991" y="614" on="0"/>
        <pt x="969" y="581" on="0"/>
        <pt x="943" y="528" on="0"/>
        <pt x="925" y="486" on="1"/>
        <pt x="872" y="364" on="0"/>
        <pt x="761" y="122" on="0"/>
        <pt x="698" y="0" on="1"/>
        <pt x="689" y="-5" on="0"/>
        <pt x="667" y="-7" on="0"/>
        <pt x="657" y="-5" on="1"/>
        <pt x="648" y="56" on="0"/>
        <pt x="625" y="192" on="0"/>
        <pt x="598" y="330" on="0"/>
        <pt x="567" y="466" on="0"/>
        <pt x="551" y="528" on="1"/>
        <pt x="490" y="394" on="0"/>
        <pt x="356" y="128" on="0"/>
        <pt x="287" y="0" on="1"/>
        <pt x="279" y="-5" on="0"/>
        <pt x="255" y="-8" on="0"/>
        <pt x="244" y="-6" on="1"/>
        <pt x="221" y="151" on="0"/>
        <pt x="177" y="418" on="0"/>
        <pt x="157" y="529" on="1"/>
        <pt x="151" y="563" on="0"/>
        <pt x="142" y="603" on="0"/>
        <pt x="131" y="624" on="0"/>
        <pt x="117" y="633" on="0"/>
        <pt x="106" y="637" on="1"/>
        <pt x="100" y="656" on="0"/>
        <pt x="103" y="679" on="1"/>
        <pt x="142" y="677" on="0"/>
        <pt x="192" y="676" on="0"/>
        <pt x="214" y="676" on="1"/>
        <pt x="239" y="676" on="0"/>
        <pt x="302" y="677" on="0"/>
        <pt x="329" y="679" on="1"/>
        <pt x="329" y="668" on="0"/>
        <pt x="327" y="646" on="0"/>
        <pt x="322" y="635" on="1"/>
        <pt x="294" y="630" on="0"/>
        <pt x="262" y="618" on="0"/>
        <pt x="249" y="594" on="0"/>
        <pt x="250" y="556" on="0"/>
        <pt x="255" y="525" on="1"/>
        <pt x="262" y="484" on="0"/>
        <pt x="278" y="390" on="0"/>
        <pt x="293" y="293" on="0"/>
        <pt x="308" y="194" on="0"/>
        <pt x="315" y="148" on="1"/>
        <pt x="382" y="278" on="0"/>
        <pt x="509" y="542" on="0"/>
        <pt x="572" y="678" on="1"/>
        <pt x="589" y="686" on="0"/>
        <pt x="615" y="683" on="1"/>
        <pt x="631" y="623" on="0"/>
        <pt x="662" y="492" on="0"/>
        <pt x="690" y="357" on="0"/>
        <pt x="715" y="222" on="0"/>
        <pt x="725" y="158" on="1"/>
        <pt x="769" y="244" on="0"/>
        <pt x="846" y="413" on="0"/>
        <pt x="881" y="499" on="1"/>
        <pt x="897" y="538" on="0"/>
        <pt x="910" y="586" on="0"/>
        <pt x="903" y="615" on="0"/>
        <pt x="875" y="630" on="0"/>
        <pt x="849" y="636" on="1"/>
        <pt x="845" y="656" on="0"/>
        <pt x="848" y="679" on="1"/>
        <pt x="868" y="677" on="0"/>
        <pt x="912" y="676" on="0"/>
      </contour>
    </TTGlyph>
    <TTGlyph name="X" xMin="-11" yMin="-3" xMax="647" yMax="679">
      <contour>
        <pt x="103" y="679" on="1"/>
        <pt x="143" y="677" on="0"/>
        <pt x="192" y="676" on="0"/>
        <pt x="219" y="676" on="1"/>
        <pt x="249" y="676" on="0"/>
        <pt x="305" y="677" on="0"/>
        <pt x="343" y="679" on="1"/>
        <pt x="343" y="656" on="0"/>
        <pt x="334" y="635" on="1"/>
        <pt x="308" y="631" on="0"/>
        <pt x="280" y="617" on="0"/>
        <pt x="271" y="593" on="0"/>
        <pt x="282" y="554" on="0"/>
        <pt x="296" y="525" on="1"/>
        <pt x="330" y="454" on="0"/>
        <pt x="362" y="384" on="1"/>
        <pt x="388" y="416" on="0"/>
        <pt x="441" y="486" on="0"/>
        <pt x="463" y="518" on="1"/>
        <pt x="485" y="550" on="0"/>
        <pt x="503" y="592" on="0"/>
        <pt x="501" y="618" on="0"/>
        <pt x="481" y="632" on="0"/>
        <pt x="463" y="636" on="1"/>
        <pt x="459" y="657" on="0"/>
        <pt x="462" y="679" on="1"/>
        <pt x="486" y="677" on="0"/>
        <pt x="526" y="676" on="0"/>
        <pt x="547" y="676" on="1"/>
        <pt x="571" y="676" on="0"/>
        <pt x="621" y="677" on="0"/>
        <pt x="647" y="679" on="1"/>
        <pt x="647" y="670" on="0"/>
        <pt x="643" y="647" on="0"/>
        <pt x="638" y="636" on="1"/>
        <pt x="624" y="634" on="0"/>
        <pt x="602" y="624" on="0"/>
        <pt x="576" y="598" on="0"/>
        <pt x="544" y="553" on="0"/>
        <pt x="519" y="517" on="1"/>
        <pt x="487" y="471" on="0"/>
        <pt x="419" y="380" on="0"/>
        <pt x="383" y="335" on="1"/>
        <pt x="403" y="289" on="0"/>
        <pt x="442" y="197" on="0"/>
        <pt x="462" y="149" on="1"/>
        <pt x="476" y="114" on="0"/>
        <pt x="497" y="75" on="0"/>
        <pt x="518" y="53" on="0"/>
        <pt x="540" y="43" on="0"/>
        <pt x="555" y="39" on="1"/>
        <pt x="559" y="22" on="0"/>
        <pt x="556" y="-3" on="1"/>
        <pt x="534" y="-2" on="0"/>
        <pt x="502" y="-1" on="0"/>
        <pt x="475" y="0" on="0"/>
        <pt x="451" y="0" on="0"/>
        <pt x="436" y="0" on="1"/>
        <pt x="404" y="0" on="0"/>
        <pt x="338" y="-1" on="0"/>
        <pt x="316" y="-3" on="1"/>
        <pt x="316" y="18" on="0"/>
        <pt x="325" y="41" on="1"/>
        <pt x="349" y="44" on="0"/>
        <pt x="375" y="55" on="0"/>
        <pt x="383" y="79" on="0"/>
        <pt x="372" y="119" on="0"/>
        <pt x="359" y="152" on="1"/>
        <pt x="346" y="185" on="0"/>
        <pt x="318" y="251" on="0"/>
        <pt x="304" y="283" on="1"/>
        <pt x="276" y="245" on="0"/>
        <pt x="223" y="179" on="0"/>
        <pt x="194" y="143" on="1"/>
        <pt x="156" y="95" on="0"/>
        <pt x="164" y="49" on="0"/>
        <pt x="197" y="40" on="1"/>
        <pt x="199" y="29" on="0"/>
        <pt x="199" y="8" on="0"/>
        <pt x="198" y="-3" on="1"/>
        <pt x="166" y="-1" on="0"/>
        <pt x="119" y="0" on="0"/>
        <pt x="93" y="0" on="1"/>
        <pt x="64" y="0" on="0"/>
        <pt x="17" y="-1" on="0"/>
        <pt x="-11" y="-3" on="1"/>
        <pt x="-11" y="19" on="0"/>
        <pt x="-2" y="40" on="1"/>
        <pt x="11" y="44" on="0"/>
        <pt x="36" y="56" on="0"/>
        <pt x="65" y="78" on="0"/>
        <pt x="101" y="114" on="0"/>
        <pt x="126" y="142" on="1"/>
        <pt x="167" y="188" on="0"/>
        <pt x="245" y="282" on="0"/>
        <pt x="283" y="332" on="1"/>
        <pt x="261" y="380" on="0"/>
        <pt x="216" y="474" on="0"/>
        <pt x="191" y="524" on="1"/>
        <pt x="173" y="560" on="0"/>
        <pt x="151" y="602" on="0"/>
        <pt x="134" y="624" on="0"/>
        <pt x="117" y="633" on="0"/>
        <pt x="104" y="637" on="1"/>
        <pt x="100" y="657" on="0"/>
      </contour>
    </TTGlyph>
    <TTGlyph name="Y" xMin="101" yMin="-3" xMax="653" yMax="679">
      <contour>
        <pt x="277" y="293" on="1"/>
        <pt x="249" y="367" on="0"/>
        <pt x="196" y="497" on="0"/>
        <pt x="176" y="541" on="1"/>
        <pt x="163" y="569" on="0"/>
        <pt x="145" y="604" on="0"/>
        <pt x="130" y="624" on="0"/>
        <pt x="115" y="633" on="0"/>
        <pt x="104" y="637" on="1"/>
        <pt x="102" y="648" on="0"/>
        <pt x="101" y="667" on="0"/>
        <pt x="103" y="679" on="1"/>
        <pt x="131" y="677" on="0"/>
        <pt x="187" y="676" on="0"/>
        <pt x="214" y="676" on="1"/>
        <pt x="244" y="676" on="0"/>
        <pt x="302" y="677" on="0"/>
        <pt x="340" y="679" on="1"/>
        <pt x="340" y="667" on="0"/>
        <pt x="335" y="646" on="0"/>
        <pt x="331" y="635" on="1"/>
        <pt x="282" y="628" on="0"/>
        <pt x="256" y="595" on="0"/>
        <pt x="273" y="556" on="1"/>
        <pt x="293" y="511" on="0"/>
        <pt x="335" y="402" on="0"/>
        <pt x="354" y="347" on="1"/>
        <pt x="374" y="374" on="0"/>
        <pt x="412" y="426" on="0"/>
        <pt x="446" y="473" on="0"/>
        <pt x="473" y="511" on="0"/>
        <pt x="482" y="524" on="1"/>
        <pt x="519" y="579" on="0"/>
        <pt x="515" y="628" on="0"/>
        <pt x="469" y="636" on="1"/>
        <pt x="465" y="655" on="0"/>
        <pt x="468" y="679" on="1"/>
        <pt x="493" y="677" on="0"/>
        <pt x="535" y="676" on="0"/>
        <pt x="564" y="676" on="1"/>
        <pt x="588" y="676" on="0"/>
        <pt x="629" y="677" on="0"/>
        <pt x="653" y="679" on="1"/>
        <pt x="653" y="657" on="0"/>
        <pt x="644" y="636" on="1"/>
        <pt x="635" y="633" on="0"/>
        <pt x="620" y="622" on="0"/>
        <pt x="596" y="597" on="0"/>
        <pt x="559" y="549" on="0"/>
        <pt x="530" y="508" on="1"/>
        <pt x="497" y="461" on="0"/>
        <pt x="416" y="353" on="0"/>
        <pt x="372" y="296" on="1"/>
        <pt x="341" y="122" on="1"/>
        <pt x="337" y="101" on="0"/>
        <pt x="337" y="73" on="0"/>
        <pt x="351" y="55" on="0"/>
        <pt x="381" y="44" on="0"/>
        <pt x="408" y="40" on="1"/>
        <pt x="413" y="19" on="0"/>
        <pt x="410" y="-3" on="1"/>
        <pt x="378" y="-1" on="0"/>
        <pt x="312" y="0" on="0"/>
        <pt x="282" y="0" on="1"/>
        <pt x="249" y="0" on="0"/>
        <pt x="178" y="-1" on="0"/>
        <pt x="151" y="-3" on="1"/>
        <pt x="151" y="22" on="0"/>
        <pt x="158" y="41" on="1"/>
        <pt x="183" y="45" on="0"/>
        <pt x="214" y="56" on="0"/>
        <pt x="233" y="75" on="0"/>
        <pt x="244" y="107" on="0"/>
        <pt x="249" y="132" on="1"/>
      </contour>
    </TTGlyph>
    <TTGlyph name="Yacute" xMin="101" yMin="-3" xMax="653" yMax="942">
      <component glyphName="Y" x="0" y="0" flags="0x204"/>
      <component glyphName="acute" x="242" y="218" flags="0x4"/>
    </TTGlyph>
    <TTGlyph name="Z" xMin="-23" yMin="-3" xMax="573" yMax="679">
      <contour>
        <pt x="259" y="45" on="1"/>
        <pt x="305" y="45" on="0"/>
        <pt x="366" y="53" on="0"/>
        <pt x="409" y="80" on="0"/>
        <pt x="441" y="130" on="0"/>
        <pt x="459" y="172" on="1"/>
        <pt x="490" y="166" on="0"/>
        <pt x="509" y="148" on="1"/>
        <pt x="496" y="117" on="0"/>
        <pt x="472" y="37" on="0"/>
        <pt x="465" y="-3" on="1"/>
        <pt x="429" y="-2" on="0"/>
        <pt x="365" y="-1" on="0"/>
        <pt x="303" y="0" on="0"/>
        <pt x="242" y="0" on="0"/>
        <pt x="208" y="0" on="1"/>
        <pt x="173" y="0" on="0"/>
        <pt x="117" y="0" on="0"/>
        <pt x="67" y="-1" on="0"/>
        <pt x="17" y="-2" on="0"/>
        <pt x="-13" y="-3" on="1"/>
        <pt x="-23" y="14" on="0"/>
        <pt x="-22" y="38" on="1"/>
        <pt x="100" y="185" on="0"/>
        <pt x="328" y="480" on="0"/>
        <pt x="439" y="632" on="1"/>
        <pt x="307" y="632" on="1"/>
        <pt x="274" y="632" on="0"/>
        <pt x="225" y="622" on="0"/>
        <pt x="186" y="594" on="0"/>
        <pt x="154" y="544" on="0"/>
        <pt x="138" y="503" on="1"/>
        <pt x="105" y="506" on="0"/>
        <pt x="86" y="522" on="1"/>
        <pt x="99" y="551" on="0"/>
        <pt x="123" y="637" on="0"/>
        <pt x="129" y="679" on="1"/>
        <pt x="159" y="678" on="0"/>
        <pt x="213" y="677" on="0"/>
        <pt x="267" y="676" on="0"/>
        <pt x="326" y="676" on="0"/>
        <pt x="361" y="676" on="1"/>
        <pt x="386" y="676" on="0"/>
        <pt x="433" y="676" on="0"/>
        <pt x="480" y="677" on="0"/>
        <pt x="530" y="678" on="0"/>
        <pt x="560" y="679" on="1"/>
        <pt x="573" y="664" on="0"/>
        <pt x="573" y="638" on="1"/>
        <pt x="460" y="484" on="0"/>
        <pt x="234" y="191" on="0"/>
        <pt x="114" y="45" on="1"/>
      </contour>
    </TTGlyph>
    <TTGlyph name="a" xMin="8" yMin="-9" xMax="444" yMax="467">
      <contour>
        <pt x="364" y="147" on="1"/>
        <pt x="358" y="118" on="0"/>
        <pt x="352" y="84" on="0"/>
        <pt x="354" y="66" on="0"/>
        <pt x="363" y="60" on="0"/>
        <pt x="371" y="60" on="1"/>
        <pt x="382" y="60" on="0"/>
        <pt x="406" y="73" on="0"/>
        <pt x="426" y="90" on="1"/>
        <pt x="433" y="83" on="0"/>
        <pt x="441" y="68" on="0"/>
        <pt x="444" y="59" on="1"/>
        <pt x="420" y="31" on="0"/>
        <pt x="359" y="-9" on="0"/>
        <pt x="333" y="-9" on="1"/>
        <pt x="299" y="-9" on="0"/>
        <pt x="268" y="24" on="0"/>
        <pt x="262" y="72" on="0"/>
        <pt x="274" y="126" on="0"/>
        <pt x="283" y="147" on="1"/>
        <pt x="282" y="147" on="1"/>
        <pt x="268" y="119" on="0"/>
        <pt x="228" y="64" on="0"/>
        <pt x="181" y="19" on="0"/>
        <pt x="128" y="-9" on="0"/>
        <pt x="100" y="-9" on="1"/>
        <pt x="50" y="-9" on="0"/>
        <pt x="8" y="91" on="0"/>
        <pt x="30" y="202" on="1"/>
        <pt x="42" y="260" on="0"/>
        <pt x="92" y="357" on="0"/>
        <pt x="163" y="427" on="0"/>
        <pt x="250" y="467" on="0"/>
        <pt x="299" y="467" on="1"/>
        <pt x="313" y="467" on="0"/>
        <pt x="344" y="462" on="0"/>
        <pt x="355" y="458" on="1"/>
        <pt x="370" y="458" on="0"/>
        <pt x="402" y="462" on="0"/>
        <pt x="412" y="467" on="1"/>
        <pt x="416" y="465" on="0"/>
        <pt x="423" y="457" on="0"/>
        <pt x="425" y="437" on="0"/>
        <pt x="421" y="401" on="0"/>
        <pt x="414" y="371" on="1"/>
      </contour>
      <contour>
        <pt x="335" y="406" on="1"/>
        <pt x="309" y="416" on="0"/>
        <pt x="274" y="416" on="1"/>
        <pt x="243" y="416" on="0"/>
        <pt x="195" y="391" on="0"/>
        <pt x="159" y="347" on="0"/>
        <pt x="134" y="285" on="0"/>
        <pt x="127" y="248" on="1"/>
        <pt x="109" y="163" on="0"/>
        <pt x="126" y="72" on="0"/>
        <pt x="156" y="72" on="1"/>
        <pt x="169" y="72" on="0"/>
        <pt x="212" y="108" on="0"/>
        <pt x="258" y="176" on="0"/>
        <pt x="303" y="274" on="0"/>
        <pt x="318" y="336" on="1"/>
      </contour>
    </TTGlyph>
    <TTGlyph name="aacute" xMin="8" yMin="-9" xMax="457" yMax="724">
      <component glyphName="a" x="0" y="0" flags="0x204"/>
      <component glyphName="acute" x="128" y="0" flags="0x4"/>
    </TTGlyph>
    <TTGlyph name="acircumflex" xMin="8" yMin="-9" xMax="462" yMax="708">
      <component glyphName="a" x="0" y="0" flags="0x204"/>
      <component glyphName="circumflex" x="106" y="0" flags="0x4"/>
    </TTGlyph>
    <TTGlyph name="acute" xMin="133" yMin="527" xMax="329" yMax="724">
      <contour>
        <pt x="226" y="716" on="1"/>
        <pt x="256" y="724" on="0"/>
        <pt x="310" y="720" on="0"/>
        <pt x="329" y="707" on="1"/>
        <pt x="291" y="671" on="0"/>
        <pt x="207" y="578" on="0"/>
        <pt x="169" y="527" on="1"/>
        <pt x="147" y="529" on="0"/>
        <pt x="133" y="541" on="1"/>
        <pt x="166" y="593" on="0"/>
        <pt x="214" y="684" on="0"/>
      </contour>
    </TTGlyph>
    <TTGlyph name="adieresis" xMin="8" yMin="-9" xMax="448" yMax="640">
      <component glyphName="a" x="0" y="0" flags="0x204"/>
      <component glyphName="dieresis" x="14" y="0" flags="0x4"/>
    </TTGlyph>
    <TTGlyph name="ae" xMin="8" yMin="-9" xMax="610" yMax="467">
      <contour>
        <pt x="282" y="148" on="1"/>
        <pt x="271" y="124" on="0"/>
        <pt x="233" y="68" on="0"/>
        <pt x="185" y="22" on="0"/>
        <pt x="129" y="-9" on="0"/>
        <pt x="100" y="-9" on="1"/>
        <pt x="50" y="-9" on="0"/>
        <pt x="8" y="91" on="0"/>
        <pt x="30" y="202" on="1"/>
        <pt x="42" y="260" on="0"/>
        <pt x="92" y="357" on="0"/>
        <pt x="163" y="427" on="0"/>
        <pt x="250" y="467" on="0"/>
        <pt x="299" y="467" on="1"/>
        <pt x="313" y="467" on="0"/>
        <pt x="344" y="462" on="0"/>
        <pt x="355" y="458" on="1"/>
        <pt x="370" y="458" on="0"/>
        <pt x="402" y="462" on="0"/>
        <pt x="412" y="467" on="1"/>
        <pt x="418" y="465" on="0"/>
        <pt x="424" y="453" on="0"/>
        <pt x="423" y="437" on="1"/>
        <pt x="470" y="467" on="0"/>
        <pt x="514" y="467" on="1"/>
        <pt x="544" y="467" on="0"/>
        <pt x="584" y="448" on="0"/>
        <pt x="605" y="417" on="0"/>
        <pt x="610" y="377" on="0"/>
        <pt x="606" y="356" on="1"/>
        <pt x="600" y="326" on="0"/>
        <pt x="554" y="275" on="0"/>
        <pt x="489" y="237" on="0"/>
        <pt x="414" y="214" on="0"/>
        <pt x="380" y="212" on="1"/>
        <pt x="377" y="184" on="0"/>
        <pt x="378" y="131" on="0"/>
        <pt x="390" y="91" on="0"/>
        <pt x="416" y="66" on="0"/>
        <pt x="438" y="66" on="1"/>
        <pt x="460" y="66" on="0"/>
        <pt x="516" y="93" on="0"/>
        <pt x="538" y="119" on="1"/>
        <pt x="553" y="108" on="0"/>
        <pt x="559" y="90" on="1"/>
        <pt x="545" y="72" on="0"/>
        <pt x="506" y="36" on="0"/>
        <pt x="461" y="8" on="0"/>
        <pt x="413" y="-9" on="0"/>
        <pt x="389" y="-9" on="1"/>
        <pt x="357" y="-9" on="0"/>
        <pt x="314" y="17" on="0"/>
        <pt x="288" y="60" on="0"/>
        <pt x="280" y="117" on="0"/>
        <pt x="283" y="148" on="1"/>
      </contour>
      <contour>
        <pt x="335" y="406" on="1"/>
        <pt x="309" y="416" on="0"/>
        <pt x="274" y="416" on="1"/>
        <pt x="243" y="416" on="0"/>
        <pt x="195" y="391" on="0"/>
        <pt x="159" y="347" on="0"/>
        <pt x="134" y="285" on="0"/>
        <pt x="127" y="248" on="1"/>
        <pt x="109" y="163" on="0"/>
        <pt x="126" y="72" on="0"/>
        <pt x="156" y="72" on="1"/>
        <pt x="169" y="72" on="0"/>
        <pt x="212" y="108" on="0"/>
        <pt x="258" y="177" on="0"/>
        <pt x="303" y="274" on="0"/>
        <pt x="318" y="336" on="1"/>
      </contour>
      <contour>
        <pt x="384" y="249" on="1"/>
        <pt x="440" y="253" on="0"/>
        <pt x="517" y="301" on="0"/>
        <pt x="525" y="343" on="1"/>
        <pt x="527" y="355" on="0"/>
        <pt x="525" y="379" on="0"/>
        <pt x="514" y="400" on="0"/>
        <pt x="495" y="413" on="0"/>
        <pt x="481" y="413" on="1"/>
        <pt x="452" y="413" on="0"/>
        <pt x="400" y="337" on="0"/>
        <pt x="387" y="271" on="1"/>
      </contour>
    </TTGlyph>
    <TTGlyph name="agrave" xMin="8" yMin="-9" xMax="444" yMax="714">
      <component glyphName="a" x="0" y="0" flags="0x204"/>
      <component glyphName="grave" x="42" y="0" flags="0x4"/>
    </TTGlyph>
    <TTGlyph name="ampersand" xMin="23" yMin="-9" xMax="645" yMax="717">
      <contour>
        <pt x="617" y="88" on="1"/>
        <pt x="635" y="78" on="0"/>
        <pt x="645" y="58" on="1"/>
        <pt x="627" y="27" on="0"/>
        <pt x="576" y="-9" on="0"/>
        <pt x="541" y="-9" on="1"/>
        <pt x="528" y="-9" on="0"/>
        <pt x="504" y="-5" on="0"/>
        <pt x="479" y="7" on="0"/>
        <pt x="450" y="30" on="0"/>
        <pt x="432" y="49" on="1"/>
        <pt x="384" y="21" on="0"/>
        <pt x="283" y="-9" on="0"/>
        <pt x="232" y="-9" on="1"/>
        <pt x="166" y="-9" on="0"/>
        <pt x="81" y="27" on="0"/>
        <pt x="34" y="85" on="0"/>
        <pt x="23" y="161" on="0"/>
        <pt x="30" y="200" on="1"/>
        <pt x="37" y="240" on="0"/>
        <pt x="70" y="302" on="0"/>
        <pt x="115" y="350" on="0"/>
        <pt x="169" y="387" on="0"/>
        <pt x="198" y="403" on="1"/>
        <pt x="174" y="459" on="0"/>
        <pt x="166" y="546" on="0"/>
        <pt x="173" y="588" on="1"/>
        <pt x="177" y="612" on="0"/>
        <pt x="202" y="658" on="0"/>
        <pt x="247" y="694" on="0"/>
        <pt x="312" y="717" on="0"/>
        <pt x="356" y="717" on="1"/>
        <pt x="395" y="717" on="0"/>
        <pt x="451" y="696" on="0"/>
        <pt x="485" y="660" on="0"/>
        <pt x="497" y="614" on="0"/>
        <pt x="492" y="589" on="1"/>
        <pt x="484" y="548" on="0"/>
        <pt x="447" y="492" on="0"/>
        <pt x="396" y="450" on="0"/>
        <pt x="334" y="419" on="0"/>
        <pt x="302" y="404" on="1"/>
        <pt x="317" y="376" on="0"/>
        <pt x="358" y="311" on="0"/>
        <pt x="384" y="271" on="1"/>
        <pt x="414" y="225" on="0"/>
        <pt x="461" y="159" on="0"/>
        <pt x="479" y="136" on="1"/>
        <pt x="502" y="162" on="0"/>
        <pt x="535" y="222" on="0"/>
        <pt x="542" y="257" on="1"/>
        <pt x="549" y="294" on="0"/>
        <pt x="545" y="343" on="0"/>
        <pt x="527" y="373" on="0"/>
        <pt x="495" y="386" on="0"/>
        <pt x="474" y="387" on="1"/>
        <pt x="466" y="404" on="0"/>
        <pt x="468" y="424" on="1"/>
        <pt x="481" y="426" on="0"/>
        <pt x="511" y="435" on="0"/>
        <pt x="540" y="447" on="0"/>
        <pt x="566" y="461" on="0"/>
        <pt x="574" y="468" on="1"/>
        <pt x="616" y="452" on="0"/>
        <pt x="637" y="373" on="0"/>
        <pt x="625" y="311" on="1"/>
        <pt x="614" y="250" on="0"/>
        <pt x="551" y="146" on="0"/>
        <pt x="506" y="105" on="1"/>
        <pt x="530" y="79" on="0"/>
        <pt x="559" y="64" on="0"/>
        <pt x="571" y="64" on="1"/>
        <pt x="583" y="64" on="0"/>
        <pt x="605" y="74" on="0"/>
      </contour>
      <contour>
        <pt x="253" y="590" on="1"/>
        <pt x="248" y="563" on="0"/>
        <pt x="257" y="498" on="0"/>
        <pt x="281" y="447" on="1"/>
        <pt x="327" y="472" on="0"/>
        <pt x="397" y="535" on="0"/>
        <pt x="407" y="585" on="1"/>
        <pt x="415" y="630" on="0"/>
        <pt x="380" y="673" on="0"/>
        <pt x="343" y="673" on="1"/>
        <pt x="305" y="673" on="0"/>
        <pt x="259" y="626" on="0"/>
      </contour>
      <contour>
        <pt x="250" y="41" on="1"/>
        <pt x="292" y="41" on="0"/>
        <pt x="370" y="61" on="0"/>
        <pt x="405" y="80" on="1"/>
        <pt x="385" y="105" on="0"/>
        <pt x="336" y="172" on="0"/>
        <pt x="304" y="218" on="1"/>
        <pt x="276" y="259" on="0"/>
        <pt x="234" y="329" on="0"/>
        <pt x="218" y="359" on="1"/>
        <pt x="180" y="334" on="0"/>
        <pt x="125" y="263" on="0"/>
        <pt x="115" y="206" on="1"/>
        <pt x="109" y="172" on="0"/>
        <pt x="121" y="112" on="0"/>
        <pt x="155" y="67" on="0"/>
        <pt x="211" y="41" on="0"/>
      </contour>
    </TTGlyph>
    <TTGlyph name="apostrophe" xMin="129" yMin="477" xMax="228" yMax="714">
      <contour>
        <pt x="223" y="669" on="1"/>
        <pt x="212" y="634" on="0"/>
        <pt x="186" y="543" on="0"/>
        <pt x="170" y="477" on="1"/>
        <pt x="158" y="477" on="0"/>
        <pt x="138" y="481" on="0"/>
        <pt x="129" y="487" on="1"/>
        <pt x="137" y="540" on="0"/>
        <pt x="149" y="643" on="0"/>
        <pt x="151" y="693" on="1"/>
        <pt x="164" y="695" on="0"/>
        <pt x="197" y="707" on="0"/>
        <pt x="208" y="714" on="1"/>
        <pt x="219" y="709" on="0"/>
        <pt x="228" y="686" on="0"/>
      </contour>
    </TTGlyph>
    <TTGlyph name="aring" xMin="8" yMin="-9" xMax="444" yMax="708">
      <component glyphName="a" x="0" y="0" flags="0x204"/>
      <component glyphName="ring" x="29" y="0" flags="0x4"/>
    </TTGlyph>
    <TTGlyph name="asciicircum" xMin="109" yMin="383" xMax="522" yMax="696">
      <contour>
        <pt x="343" y="685" on="1"/>
        <pt x="357" y="694" on="0"/>
        <pt x="383" y="696" on="0"/>
        <pt x="394" y="694" on="1"/>
        <pt x="406" y="663" on="0"/>
        <pt x="438" y="588" on="0"/>
        <pt x="473" y="510" on="0"/>
        <pt x="507" y="435" on="0"/>
        <pt x="522" y="404" on="1"/>
        <pt x="515" y="399" on="0"/>
        <pt x="491" y="392" on="0"/>
        <pt x="480" y="394" on="1"/>
        <pt x="367" y="651" on="1"/>
        <pt x="336" y="618" on="0"/>
        <pt x="271" y="548" on="0"/>
        <pt x="208" y="478" on="0"/>
        <pt x="149" y="411" on="0"/>
        <pt x="124" y="383" on="1"/>
        <pt x="109" y="401" on="0"/>
        <pt x="109" y="430" on="1"/>
      </contour>
    </TTGlyph>
    <TTGlyph name="asciitilde" xMin="33" yMin="213" xMax="532" yMax="335">
      <contour>
        <pt x="183" y="335" on="1"/>
        <pt x="211" y="335" on="0"/>
        <pt x="265" y="317" on="0"/>
        <pt x="318" y="296" on="0"/>
        <pt x="372" y="278" on="0"/>
        <pt x="399" y="278" on="1"/>
        <pt x="424" y="278" on="0"/>
        <pt x="475" y="298" on="0"/>
        <pt x="502" y="323" on="1"/>
        <pt x="522" y="323" on="0"/>
        <pt x="532" y="307" on="1"/>
        <pt x="492" y="255" on="0"/>
        <pt x="420" y="216" on="0"/>
        <pt x="388" y="216" on="1"/>
        <pt x="361" y="216" on="0"/>
        <pt x="310" y="235" on="0"/>
        <pt x="259" y="259" on="0"/>
        <pt x="207" y="278" on="0"/>
        <pt x="179" y="278" on="1"/>
        <pt x="150" y="278" on="0"/>
        <pt x="89" y="250" on="0"/>
        <pt x="54" y="213" on="1"/>
        <pt x="36" y="221" on="0"/>
        <pt x="33" y="239" on="1"/>
        <pt x="74" y="294" on="0"/>
        <pt x="148" y="335" on="0"/>
      </contour>
    </TTGlyph>
    <TTGlyph name="asterisk" xMin="126" yMin="350" xMax="450" yMax="679">
      <contour>
        <pt x="350" y="664" on="1"/>
        <pt x="336" y="635" on="0"/>
        <pt x="311" y="567" on="0"/>
        <pt x="299" y="529" on="1"/>
        <pt x="335" y="535" on="0"/>
        <pt x="401" y="550" on="0"/>
        <pt x="439" y="561" on="1"/>
        <pt x="445" y="548" on="0"/>
        <pt x="450" y="510" on="0"/>
        <pt x="447" y="494" on="1"/>
        <pt x="415" y="496" on="0"/>
        <pt x="339" y="499" on="0"/>
        <pt x="302" y="500" on="1"/>
        <pt x="319" y="467" on="0"/>
        <pt x="353" y="410" on="0"/>
        <pt x="375" y="377" on="1"/>
        <pt x="364" y="366" on="0"/>
        <pt x="331" y="352" on="0"/>
        <pt x="314" y="350" on="1"/>
        <pt x="307" y="380" on="0"/>
        <pt x="286" y="452" on="0"/>
        <pt x="275" y="487" on="1"/>
        <pt x="249" y="461" on="0"/>
        <pt x="206" y="412" on="0"/>
        <pt x="182" y="381" on="1"/>
        <pt x="147" y="399" on="0"/>
        <pt x="137" y="431" on="1"/>
        <pt x="163" y="447" on="0"/>
        <pt x="226" y="489" on="0"/>
        <pt x="256" y="511" on="1"/>
        <pt x="224" y="527" on="0"/>
        <pt x="162" y="552" on="0"/>
        <pt x="126" y="566" on="1"/>
        <pt x="134" y="606" on="0"/>
        <pt x="159" y="624" on="1"/>
        <pt x="182" y="604" on="0"/>
        <pt x="241" y="558" on="0"/>
        <pt x="271" y="536" on="1"/>
        <pt x="276" y="572" on="0"/>
        <pt x="281" y="638" on="0"/>
        <pt x="283" y="677" on="1"/>
        <pt x="297" y="679" on="0"/>
        <pt x="336" y="673" on="0"/>
      </contour>
    </TTGlyph>
    <TTGlyph name="at" xMin="19" yMin="-202" xMax="805" yMax="660">
      <contour>
        <pt x="473" y="147" on="1"/>
        <pt x="459" y="119" on="0"/>
        <pt x="419" y="64" on="0"/>
        <pt x="372" y="19" on="0"/>
        <pt x="319" y="-9" on="0"/>
        <pt x="291" y="-9" on="1"/>
        <pt x="241" y="-9" on="0"/>
        <pt x="199" y="91" on="0"/>
        <pt x="221" y="202" on="1"/>
        <pt x="233" y="260" on="0"/>
        <pt x="283" y="357" on="0"/>
        <pt x="354" y="427" on="0"/>
        <pt x="441" y="467" on="0"/>
        <pt x="490" y="467" on="1"/>
        <pt x="504" y="467" on="0"/>
        <pt x="535" y="462" on="0"/>
        <pt x="546" y="458" on="1"/>
        <pt x="561" y="458" on="0"/>
        <pt x="593" y="462" on="0"/>
        <pt x="603" y="467" on="1"/>
        <pt x="607" y="465" on="0"/>
        <pt x="614" y="457" on="0"/>
        <pt x="616" y="437" on="0"/>
        <pt x="612" y="401" on="0"/>
        <pt x="605" y="371" on="1"/>
        <pt x="555" y="147" on="1"/>
        <pt x="549" y="118" on="0"/>
        <pt x="546" y="85" on="0"/>
        <pt x="550" y="68" on="0"/>
        <pt x="561" y="64" on="0"/>
        <pt x="569" y="64" on="1"/>
        <pt x="599" y="64" on="0"/>
        <pt x="653" y="96" on="0"/>
        <pt x="698" y="154" on="0"/>
        <pt x="731" y="237" on="0"/>
        <pt x="739" y="287" on="1"/>
        <pt x="753" y="365" on="0"/>
        <pt x="727" y="488" on="0"/>
        <pt x="655" y="574" on="0"/>
        <pt x="541" y="619" on="0"/>
        <pt x="467" y="619" on="1"/>
        <pt x="398" y="619" on="0"/>
        <pt x="277" y="569" on="0"/>
        <pt x="181" y="478" on="0"/>
        <pt x="114" y="349" on="0"/>
        <pt x="101" y="271" on="1"/>
        <pt x="84" y="175" on="0"/>
        <pt x="110" y="17" on="0"/>
        <pt x="188" y="-96" on="0"/>
        <pt x="315" y="-157" on="0"/>
        <pt x="399" y="-157" on="1"/>
        <pt x="484" y="-157" on="0"/>
        <pt x="626" y="-100" on="0"/>
        <pt x="684" y="-53" on="1"/>
        <pt x="706" y="-57" on="0"/>
        <pt x="710" y="-78" on="1"/>
        <pt x="653" y="-134" on="0"/>
        <pt x="493" y="-202" on="0"/>
        <pt x="384" y="-202" on="1"/>
        <pt x="288" y="-202" on="0"/>
        <pt x="141" y="-136" on="0"/>
        <pt x="50" y="-14" on="0"/>
        <pt x="19" y="156" on="0"/>
        <pt x="37" y="260" on="1"/>
        <pt x="52" y="350" on="0"/>
        <pt x="132" y="497" on="0"/>
        <pt x="248" y="602" on="0"/>
        <pt x="396" y="660" on="0"/>
        <pt x="480" y="660" on="1"/>
        <pt x="565" y="660" on="0"/>
        <pt x="694" y="609" on="0"/>
        <pt x="776" y="514" on="0"/>
        <pt x="805" y="377" on="0"/>
        <pt x="790" y="291" on="1"/>
        <pt x="779" y="227" on="0"/>
        <pt x="729" y="118" on="0"/>
        <pt x="658" y="37" on="0"/>
        <pt x="572" y="-9" on="0"/>
        <pt x="524" y="-9" on="1"/>
        <pt x="490" y="-9" on="0"/>
        <pt x="459" y="24" on="0"/>
        <pt x="453" y="72" on="0"/>
        <pt x="465" y="126" on="0"/>
        <pt x="474" y="147" on="1"/>
      </contour>
      <contour>
        <pt x="526" y="406" on="1"/>
        <pt x="500" y="416" on="0"/>
        <pt x="465" y="416" on="1"/>
        <pt x="434" y="416" on="0"/>
        <pt x="386" y="391" on="0"/>
        <pt x="350" y="347" on="0"/>
        <pt x="325" y="285" on="0"/>
        <pt x="318" y="248" on="1"/>
        <pt x="300" y="163" on="0"/>
        <pt x="317" y="72" on="0"/>
        <pt x="347" y="72" on="1"/>
        <pt x="360" y="72" on="0"/>
        <pt x="403" y="108" on="0"/>
        <pt x="449" y="176" on="0"/>
        <pt x="494" y="274" on="0"/>
        <pt x="509" y="336" on="1"/>
      </contour>
    </TTGlyph>
    <TTGlyph name="atilde" xMin="8" yMin="-9" xMax="469" yMax="627">
      <component glyphName="a" x="0" y="0" flags="0x204"/>
      <component glyphName="tilde" x="48" y="0" flags="0x4"/>
    </TTGlyph>
    <TTGlyph name="b" xMin="9" yMin="-9" xMax="439" yMax="710">
      <contour>
        <pt x="118" y="534" on="1"/>
        <pt x="124" y="569" on="0"/>
        <pt x="128" y="608" on="0"/>
        <pt x="117" y="627" on="0"/>
        <pt x="91" y="631" on="0"/>
        <pt x="67" y="631" on="1"/>
        <pt x="65" y="654" on="0"/>
        <pt x="73" y="669" on="1"/>
        <pt x="108" y="674" on="0"/>
        <pt x="179" y="696" on="0"/>
        <pt x="208" y="710" on="1"/>
        <pt x="239" y="700" on="0"/>
        <pt x="229" y="646" on="1"/>
        <pt x="190" y="427" on="1"/>
        <pt x="183" y="389" on="0"/>
        <pt x="164" y="322" on="0"/>
        <pt x="149" y="280" on="1"/>
        <pt x="151" y="280" on="1"/>
        <pt x="163" y="310" on="0"/>
        <pt x="204" y="375" on="0"/>
        <pt x="256" y="431" on="0"/>
        <pt x="315" y="467" on="0"/>
        <pt x="347" y="467" on="1"/>
        <pt x="397" y="467" on="0"/>
        <pt x="439" y="367" on="0"/>
        <pt x="417" y="256" on="1"/>
        <pt x="405" y="198" on="0"/>
        <pt x="355" y="101" on="0"/>
        <pt x="284" y="30" on="0"/>
        <pt x="196" y="-9" on="0"/>
        <pt x="147" y="-9" on="1"/>
        <pt x="98" y="-9" on="0"/>
        <pt x="34" y="15" on="0"/>
        <pt x="9" y="41" on="1"/>
        <pt x="16" y="51" on="0"/>
        <pt x="30" y="88" on="0"/>
        <pt x="44" y="135" on="0"/>
        <pt x="57" y="189" on="0"/>
        <pt x="62" y="217" on="1"/>
      </contour>
      <contour>
        <pt x="113" y="54" on="1"/>
        <pt x="127" y="46" on="0"/>
        <pt x="156" y="42" on="0"/>
        <pt x="173" y="42" on="1"/>
        <pt x="204" y="42" on="0"/>
        <pt x="252" y="67" on="0"/>
        <pt x="288" y="111" on="0"/>
        <pt x="312" y="173" on="0"/>
        <pt x="320" y="210" on="1"/>
        <pt x="338" y="295" on="0"/>
        <pt x="321" y="386" on="0"/>
        <pt x="291" y="386" on="1"/>
        <pt x="278" y="386" on="0"/>
        <pt x="235" y="350" on="0"/>
        <pt x="188" y="282" on="0"/>
        <pt x="144" y="184" on="0"/>
        <pt x="129" y="122" on="1"/>
      </contour>
    </TTGlyph>
    <TTGlyph name="backslash" xMin="94" yMin="-9" xMax="247" yMax="720">
      <contour>
        <pt x="247" y="0" on="1"/>
        <pt x="237" y="-5" on="0"/>
        <pt x="211" y="-9" on="0"/>
        <pt x="198" y="-8" on="1"/>
        <pt x="175" y="173" on="0"/>
        <pt x="123" y="529" on="0"/>
        <pt x="94" y="709" on="1"/>
        <pt x="119" y="720" on="0"/>
        <pt x="144" y="715" on="1"/>
      </contour>
    </TTGlyph>
    <TTGlyph name="bar" xMin="-22" yMin="-246" xMax="207" yMax="712">
      <contour>
        <pt x="159" y="712" on="1"/>
        <pt x="174" y="712" on="0"/>
        <pt x="198" y="704" on="0"/>
        <pt x="207" y="693" on="1"/>
        <pt x="157" y="459" on="0"/>
        <pt x="67" y="-8" on="0"/>
        <pt x="25" y="-246" on="1"/>
        <pt x="11" y="-245" on="0"/>
        <pt x="-14" y="-237" on="0"/>
        <pt x="-22" y="-227" on="1"/>
      </contour>
    </TTGlyph>
    <TTGlyph name="braceleft" xMin="35" yMin="-271" xMax="368" yMax="742">
      <contour>
        <pt x="364" y="742" on="1"/>
        <pt x="367" y="735" on="0"/>
        <pt x="368" y="716" on="0"/>
        <pt x="366" y="708" on="1"/>
        <pt x="320" y="700" on="0"/>
        <pt x="270" y="658" on="0"/>
        <pt x="245" y="599" on="0"/>
        <pt x="239" y="529" on="0"/>
        <pt x="236" y="456" on="0"/>
        <pt x="227" y="383" on="0"/>
        <pt x="199" y="321" on="0"/>
        <pt x="141" y="272" on="0"/>
        <pt x="91" y="259" on="1"/>
        <pt x="137" y="245" on="0"/>
        <pt x="179" y="194" on="0"/>
        <pt x="190" y="127" on="0"/>
        <pt x="177" y="49" on="0"/>
        <pt x="158" y="-30" on="0"/>
        <pt x="140" y="-107" on="0"/>
        <pt x="140" y="-174" on="0"/>
        <pt x="168" y="-225" on="0"/>
        <pt x="204" y="-238" on="1"/>
        <pt x="204" y="-247" on="0"/>
        <pt x="199" y="-265" on="0"/>
        <pt x="194" y="-271" on="1"/>
        <pt x="140" y="-252" on="0"/>
        <pt x="86" y="-193" on="0"/>
        <pt x="67" y="-122" on="0"/>
        <pt x="75" y="-43" on="0"/>
        <pt x="91" y="37" on="0"/>
        <pt x="106" y="114" on="0"/>
        <pt x="103" y="179" on="0"/>
        <pt x="73" y="230" on="0"/>
        <pt x="35" y="244" on="1"/>
        <pt x="35" y="264" on="0"/>
        <pt x="46" y="276" on="1"/>
        <pt x="88" y="291" on="0"/>
        <pt x="131" y="341" on="0"/>
        <pt x="150" y="403" on="0"/>
        <pt x="154" y="475" on="0"/>
        <pt x="159" y="548" on="0"/>
        <pt x="175" y="619" on="0"/>
        <pt x="218" y="681" on="0"/>
        <pt x="298" y="728" on="0"/>
      </contour>
    </TTGlyph>
    <TTGlyph name="braceright" xMin="-42" yMin="-271" xMax="300" yMax="741">
      <contour>
        <pt x="126" y="741" on="1"/>
        <pt x="184" y="721" on="0"/>
        <pt x="244" y="667" on="0"/>
        <pt x="267" y="604" on="0"/>
        <pt x="261" y="535" on="0"/>
        <pt x="245" y="465" on="0"/>
        <pt x="229" y="398" on="0"/>
        <pt x="231" y="340" on="0"/>
        <pt x="260" y="293" on="0"/>
        <pt x="297" y="278" on="1"/>
        <pt x="300" y="265" on="0"/>
        <pt x="295" y="246" on="1"/>
        <pt x="252" y="234" on="0"/>
        <pt x="205" y="182" on="0"/>
        <pt x="180" y="113" on="0"/>
        <pt x="170" y="32" on="0"/>
        <pt x="159" y="-52" on="0"/>
        <pt x="140" y="-134" on="0"/>
        <pt x="97" y="-204" on="0"/>
        <pt x="23" y="-258" on="0"/>
        <pt x="-37" y="-271" on="1"/>
        <pt x="-40" y="-262" on="0"/>
        <pt x="-42" y="-246" on="0"/>
        <pt x="-40" y="-238" on="1"/>
        <pt x="2" y="-230" on="0"/>
        <pt x="48" y="-185" on="0"/>
        <pt x="71" y="-120" on="0"/>
        <pt x="77" y="-41" on="0"/>
        <pt x="83" y="42" on="0"/>
        <pt x="95" y="124" on="0"/>
        <pt x="128" y="193" on="0"/>
        <pt x="190" y="246" on="0"/>
        <pt x="243" y="259" on="1"/>
        <pt x="195" y="272" on="0"/>
        <pt x="152" y="318" on="0"/>
        <pt x="143" y="376" on="0"/>
        <pt x="158" y="443" on="0"/>
        <pt x="179" y="513" on="0"/>
        <pt x="197" y="581" on="0"/>
        <pt x="192" y="642" on="0"/>
        <pt x="157" y="692" on="0"/>
        <pt x="114" y="708" on="1"/>
        <pt x="116" y="718" on="0"/>
        <pt x="121" y="736" on="0"/>
      </contour>
    </TTGlyph>
    <TTGlyph name="bracketleft" xMin="-38" yMin="-269" xMax="341" yMax="742">
      <contour>
        <pt x="140" y="742" on="1"/>
        <pt x="157" y="741" on="0"/>
        <pt x="207" y="740" on="0"/>
        <pt x="261" y="740" on="0"/>
        <pt x="313" y="741" on="0"/>
        <pt x="331" y="742" on="1"/>
        <pt x="341" y="726" on="0"/>
        <pt x="336" y="704" on="1"/>
        <pt x="295" y="701" on="0"/>
        <pt x="242" y="692" on="0"/>
        <pt x="209" y="673" on="0"/>
        <pt x="192" y="639" on="0"/>
        <pt x="187" y="610" on="1"/>
        <pt x="54" y="-147" on="1"/>
        <pt x="50" y="-171" on="0"/>
        <pt x="55" y="-201" on="0"/>
        <pt x="80" y="-219" on="0"/>
        <pt x="126" y="-228" on="0"/>
        <pt x="162" y="-229" on="1"/>
        <pt x="166" y="-237" on="0"/>
        <pt x="167" y="-258" on="0"/>
        <pt x="162" y="-269" on="1"/>
        <pt x="148" y="-268" on="0"/>
        <pt x="94" y="-267" on="0"/>
        <pt x="34" y="-267" on="0"/>
        <pt x="-22" y="-268" on="0"/>
        <pt x="-38" y="-269" on="1"/>
      </contour>
    </TTGlyph>
    <TTGlyph name="bracketright" xMin="-38" yMin="-269" xMax="340" yMax="742">
      <contour>
        <pt x="162" y="-269" on="1"/>
        <pt x="142" y="-268" on="0"/>
        <pt x="88" y="-267" on="0"/>
        <pt x="32" y="-267" on="0"/>
        <pt x="-19" y="-268" on="0"/>
        <pt x="-37" y="-269" on="1"/>
        <pt x="-38" y="-259" on="0"/>
        <pt x="-33" y="-237" on="0"/>
        <pt x="-27" y="-229" on="1"/>
        <pt x="11" y="-228" on="0"/>
        <pt x="61" y="-220" on="0"/>
        <pt x="92" y="-205" on="0"/>
        <pt x="108" y="-178" on="0"/>
        <pt x="112" y="-157" on="1"/>
        <pt x="247" y="610" on="1"/>
        <pt x="252" y="639" on="0"/>
        <pt x="248" y="673" on="0"/>
        <pt x="222" y="692" on="0"/>
        <pt x="173" y="701" on="0"/>
        <pt x="134" y="704" on="1"/>
        <pt x="134" y="715" on="0"/>
        <pt x="141" y="736" on="0"/>
        <pt x="147" y="742" on="1"/>
        <pt x="165" y="741" on="0"/>
        <pt x="217" y="740" on="0"/>
        <pt x="272" y="740" on="0"/>
        <pt x="323" y="741" on="0"/>
        <pt x="340" y="742" on="1"/>
      </contour>
    </TTGlyph>
    <TTGlyph name="brokenbar" xMin="-22" yMin="-246" xMax="207" yMax="712">
      <contour>
        <pt x="159" y="712" on="1"/>
        <pt x="174" y="712" on="0"/>
        <pt x="198" y="704" on="0"/>
        <pt x="207" y="693" on="1"/>
        <pt x="188" y="602" on="0"/>
        <pt x="153" y="421" on="0"/>
        <pt x="137" y="328" on="1"/>
        <pt x="123" y="329" on="0"/>
        <pt x="98" y="337" on="0"/>
        <pt x="90" y="347" on="1"/>
      </contour>
      <contour>
        <pt x="55" y="171" on="1"/>
        <pt x="70" y="171" on="0"/>
        <pt x="94" y="163" on="0"/>
        <pt x="103" y="152" on="1"/>
        <pt x="82" y="52" on="0"/>
        <pt x="43" y="-145" on="0"/>
        <pt x="25" y="-246" on="1"/>
        <pt x="11" y="-245" on="0"/>
        <pt x="-14" y="-237" on="0"/>
        <pt x="-22" y="-227" on="1"/>
      </contour>
    </TTGlyph>
    <TTGlyph name="bullet" xMin="41" yMin="183" xMax="262" yMax="393">
      <contour>
        <pt x="258" y="275" on="1"/>
        <pt x="250" y="232" on="0"/>
        <pt x="192" y="183" on="0"/>
        <pt x="146" y="183" on="1"/>
        <pt x="117" y="183" on="0"/>
        <pt x="75" y="205" on="0"/>
        <pt x="49" y="240" on="0"/>
        <pt x="41" y="285" on="0"/>
        <pt x="46" y="309" on="1"/>
        <pt x="53" y="344" on="0"/>
        <pt x="112" y="393" on="0"/>
        <pt x="160" y="393" on="1"/>
        <pt x="186" y="393" on="0"/>
        <pt x="227" y="373" on="0"/>
        <pt x="252" y="340" on="0"/>
        <pt x="262" y="298" on="0"/>
      </contour>
    </TTGlyph>
    <TTGlyph name="c" xMin="24" yMin="-9" xMax="348" yMax="467">
      <contour>
        <pt x="133" y="-9" on="1"/>
        <pt x="90" y="-9" on="0"/>
        <pt x="43" y="33" on="0"/>
        <pt x="24" y="100" on="0"/>
        <pt x="28" y="185" on="0"/>
        <pt x="36" y="228" on="1"/>
        <pt x="45" y="274" on="0"/>
        <pt x="86" y="360" on="0"/>
        <pt x="146" y="427" on="0"/>
        <pt x="223" y="467" on="0"/>
        <pt x="269" y="467" on="1"/>
        <pt x="298" y="467" on="0"/>
        <pt x="332" y="457" on="0"/>
        <pt x="348" y="446" on="1"/>
        <pt x="325" y="393" on="0"/>
        <pt x="320" y="335" on="1"/>
        <pt x="312" y="331" on="0"/>
        <pt x="289" y="327" on="0"/>
        <pt x="277" y="327" on="1"/>
        <pt x="277" y="375" on="0"/>
        <pt x="250" y="414" on="0"/>
        <pt x="221" y="414" on="1"/>
        <pt x="206" y="414" on="0"/>
        <pt x="179" y="393" on="0"/>
        <pt x="155" y="356" on="0"/>
        <pt x="137" y="307" on="0"/>
        <pt x="132" y="280" on="1"/>
        <pt x="124" y="240" on="0"/>
        <pt x="118" y="163" on="0"/>
        <pt x="126" y="103" on="0"/>
        <pt x="153" y="66" on="0"/>
        <pt x="178" y="66" on="1"/>
        <pt x="207" y="66" on="0"/>
        <pt x="262" y="97" on="0"/>
        <pt x="281" y="118" on="1"/>
        <pt x="294" y="109" on="0"/>
        <pt x="302" y="90" on="1"/>
        <pt x="284" y="67" on="0"/>
        <pt x="241" y="31" on="0"/>
        <pt x="196" y="5" on="0"/>
        <pt x="152" y="-9" on="0"/>
      </contour>
    </TTGlyph>
    <TTGlyph name="ccedilla" xMin="24" yMin="-244" xMax="348" yMax="467">
      <contour>
        <pt x="104" y="-6" on="1"/>
        <pt x="72" y="1" on="0"/>
        <pt x="37" y="48" on="0"/>
        <pt x="24" y="112" on="0"/>
        <pt x="28" y="189" on="0"/>
        <pt x="36" y="228" on="1"/>
        <pt x="45" y="274" on="0"/>
        <pt x="86" y="360" on="0"/>
        <pt x="146" y="427" on="0"/>
        <pt x="223" y="467" on="0"/>
        <pt x="269" y="467" on="1"/>
        <pt x="298" y="467" on="0"/>
        <pt x="332" y="457" on="0"/>
        <pt x="348" y="446" on="1"/>
        <pt x="325" y="393" on="0"/>
        <pt x="320" y="335" on="1"/>
        <pt x="312" y="331" on="0"/>
        <pt x="289" y="327" on="0"/>
        <pt x="277" y="327" on="1"/>
        <pt x="277" y="375" on="0"/>
        <pt x="250" y="414" on="0"/>
        <pt x="221" y="414" on="1"/>
        <pt x="206" y="414" on="0"/>
        <pt x="179" y="393" on="0"/>
        <pt x="155" y="356" on="0"/>
        <pt x="137" y="307" on="0"/>
        <pt x="132" y="280" on="1"/>
        <pt x="124" y="240" on="0"/>
        <pt x="118" y="163" on="0"/>
        <pt x="126" y="103" on="0"/>
        <pt x="153" y="66" on="0"/>
        <pt x="178" y="66" on="1"/>
        <pt x="207" y="66" on="0"/>
        <pt x="262" y="97" on="0"/>
        <pt x="281" y="118" on="1"/>
        <pt x="294" y="109" on="0"/>
        <pt x="302" y="90" on="1"/>
        <pt x="273" y="52" on="0"/>
        <pt x="194" y="2" on="0"/>
        <pt x="159" y="-6" on="1"/>
        <pt x="119" y="-55" on="1"/>
        <pt x="156" y="-63" on="0"/>
        <pt x="189" y="-112" on="0"/>
        <pt x="180" y="-158" on="1"/>
        <pt x="171" y="-201" on="0"/>
        <pt x="90" y="-244" on="0"/>
        <pt x="33" y="-242" on="1"/>
        <pt x="29" y="-229" on="0"/>
        <pt x="32" y="-210" on="1"/>
        <pt x="69" y="-210" on="0"/>
        <pt x="116" y="-186" on="0"/>
        <pt x="121" y="-160" on="1"/>
        <pt x="126" y="-131" on="0"/>
        <pt x="95" y="-101" on="0"/>
        <pt x="67" y="-101" on="1"/>
        <pt x="60" y="-95" on="0"/>
        <pt x="54" y="-76" on="0"/>
        <pt x="57" y="-63" on="1"/>
      </contour>
    </TTGlyph>
    <TTGlyph name="cedilla" xMin="181" yMin="-244" xMax="341" yMax="16">
      <contour>
        <pt x="271" y="-55" on="1"/>
        <pt x="308" y="-63" on="0"/>
        <pt x="341" y="-112" on="0"/>
        <pt x="332" y="-158" on="1"/>
        <pt x="323" y="-201" on="0"/>
        <pt x="242" y="-244" on="0"/>
        <pt x="185" y="-242" on="1"/>
        <pt x="181" y="-229" on="0"/>
        <pt x="184" y="-210" on="1"/>
        <pt x="221" y="-210" on="0"/>
        <pt x="268" y="-186" on="0"/>
        <pt x="273" y="-160" on="1"/>
        <pt x="278" y="-131" on="0"/>
        <pt x="247" y="-101" on="0"/>
        <pt x="219" y="-101" on="1"/>
        <pt x="212" y="-95" on="0"/>
        <pt x="206" y="-76" on="0"/>
        <pt x="209" y="-63" on="1"/>
        <pt x="274" y="16" on="1"/>
        <pt x="329" y="16" on="1"/>
      </contour>
    </TTGlyph>
    <TTGlyph name="cent" xMin="24" yMin="-136" xMax="348" yMax="615">
      <contour>
        <pt x="269" y="467" on="1"/>
        <pt x="298" y="467" on="0"/>
        <pt x="332" y="457" on="0"/>
        <pt x="348" y="446" on="1"/>
        <pt x="325" y="393" on="0"/>
        <pt x="320" y="335" on="1"/>
        <pt x="312" y="331" on="0"/>
        <pt x="289" y="327" on="0"/>
        <pt x="277" y="327" on="1"/>
        <pt x="277" y="390" on="0"/>
        <pt x="252" y="406" on="1"/>
        <pt x="232" y="317" on="0"/>
        <pt x="201" y="153" on="0"/>
        <pt x="185" y="66" on="1"/>
        <pt x="212" y="68" on="0"/>
        <pt x="264" y="98" on="0"/>
        <pt x="281" y="118" on="1"/>
        <pt x="294" y="109" on="0"/>
        <pt x="302" y="90" on="1"/>
        <pt x="276" y="56" on="0"/>
        <pt x="206" y="8" on="0"/>
        <pt x="173" y="-2" on="1"/>
        <pt x="168" y="-34" on="0"/>
        <pt x="157" y="-101" on="0"/>
        <pt x="151" y="-136" on="1"/>
        <pt x="137" y="-135" on="0"/>
        <pt x="112" y="-127" on="0"/>
        <pt x="104" y="-117" on="1"/>
        <pt x="125" y="-9" on="1"/>
        <pt x="85" y="-7" on="0"/>
        <pt x="41" y="37" on="0"/>
        <pt x="24" y="104" on="0"/>
        <pt x="28" y="186" on="0"/>
        <pt x="36" y="228" on="1"/>
        <pt x="43" y="267" on="0"/>
        <pt x="75" y="341" on="0"/>
        <pt x="121" y="403" on="0"/>
        <pt x="181" y="448" on="0"/>
        <pt x="216" y="459" on="1"/>
        <pt x="246" y="615" on="1"/>
        <pt x="261" y="615" on="0"/>
        <pt x="285" y="607" on="0"/>
        <pt x="294" y="596" on="1"/>
        <pt x="286" y="562" on="0"/>
        <pt x="272" y="498" on="0"/>
        <pt x="265" y="467" on="1"/>
      </contour>
      <contour>
        <pt x="206" y="411" on="1"/>
        <pt x="181" y="401" on="0"/>
        <pt x="141" y="328" on="0"/>
        <pt x="132" y="280" on="1"/>
        <pt x="126" y="249" on="0"/>
        <pt x="119" y="189" on="0"/>
        <pt x="120" y="136" on="0"/>
        <pt x="131" y="93" on="0"/>
        <pt x="142" y="81" on="1"/>
      </contour>
    </TTGlyph>
    <TTGlyph name="circumflex" xMin="60" yMin="530" xMax="356" yMax="708">
      <contour>
        <pt x="218" y="705" on="1"/>
        <pt x="237" y="708" on="0"/>
        <pt x="256" y="698" on="1"/>
        <pt x="279" y="662" on="0"/>
        <pt x="329" y="594" on="0"/>
        <pt x="356" y="561" on="1"/>
        <pt x="353" y="551" on="0"/>
        <pt x="336" y="535" on="0"/>
        <pt x="326" y="532" on="1"/>
        <pt x="298" y="555" on="0"/>
        <pt x="239" y="596" on="0"/>
        <pt x="208" y="613" on="1"/>
        <pt x="172" y="595" on="0"/>
        <pt x="104" y="554" on="0"/>
        <pt x="71" y="530" on="1"/>
        <pt x="65" y="539" on="0"/>
        <pt x="60" y="564" on="0"/>
        <pt x="62" y="575" on="1"/>
        <pt x="104" y="605" on="0"/>
        <pt x="182" y="670" on="0"/>
      </contour>
    </TTGlyph>
    <TTGlyph name="colon" xMin="7" yMin="24" xMax="180" yMax="431">
      <contour>
        <pt x="175" y="369" on="1"/>
        <pt x="170" y="346" on="0"/>
        <pt x="143" y="320" on="0"/>
        <pt x="121" y="320" on="1"/>
        <pt x="94" y="320" on="0"/>
        <pt x="66" y="355" on="0"/>
        <pt x="72" y="384" on="1"/>
        <pt x="76" y="404" on="0"/>
        <pt x="107" y="431" on="0"/>
        <pt x="128" y="431" on="1"/>
        <pt x="151" y="431" on="0"/>
        <pt x="180" y="396" on="0"/>
      </contour>
      <contour>
        <pt x="116" y="73" on="1"/>
        <pt x="111" y="50" on="0"/>
        <pt x="84" y="24" on="0"/>
        <pt x="62" y="24" on="1"/>
        <pt x="35" y="24" on="0"/>
        <pt x="7" y="59" on="0"/>
        <pt x="13" y="88" on="1"/>
        <pt x="17" y="108" on="0"/>
        <pt x="48" y="135" on="0"/>
        <pt x="69" y="135" on="1"/>
        <pt x="92" y="135" on="0"/>
        <pt x="121" y="100" on="0"/>
      </contour>
    </TTGlyph>
    <TTGlyph name="comma" xMin="-35" yMin="-181" xMax="136" yMax="103">
      <contour>
        <pt x="108" y="103" on="1"/>
        <pt x="125" y="93" on="0"/>
        <pt x="136" y="47" on="0"/>
        <pt x="128" y="8" on="1"/>
        <pt x="119" y="-40" on="0"/>
        <pt x="49" y="-141" on="0"/>
        <pt x="-1" y="-181" on="1"/>
        <pt x="-13" y="-181" on="0"/>
        <pt x="-30" y="-169" on="0"/>
        <pt x="-35" y="-160" on="1"/>
        <pt x="-8" y="-135" on="0"/>
        <pt x="35" y="-80" on="0"/>
        <pt x="52" y="-32" on="0"/>
        <pt x="37" y="4" on="0"/>
        <pt x="6" y="12" on="1"/>
        <pt x="6" y="27" on="0"/>
        <pt x="14" y="64" on="0"/>
        <pt x="21" y="75" on="1"/>
        <pt x="42" y="77" on="0"/>
        <pt x="93" y="93" on="0"/>
      </contour>
    </TTGlyph>
    <TTGlyph name="copyright" xMin="21" yMin="-111" xMax="697" yMax="571">
      <contour>
        <pt x="395" y="571" on="1"/>
        <pt x="476" y="571" on="0"/>
        <pt x="597" y="518" on="0"/>
        <pt x="672" y="420" on="0"/>
        <pt x="697" y="284" on="0"/>
        <pt x="681" y="200" on="1"/>
        <pt x="668" y="130" on="0"/>
        <pt x="604" y="15" on="0"/>
        <pt x="510" y="-66" on="0"/>
        <pt x="391" y="-111" on="0"/>
        <pt x="324" y="-111" on="1"/>
        <pt x="244" y="-111" on="0"/>
        <pt x="122" y="-58" on="0"/>
        <pt x="47" y="40" on="0"/>
        <pt x="21" y="176" on="0"/>
        <pt x="37" y="260" on="1"/>
        <pt x="50" y="330" on="0"/>
        <pt x="115" y="445" on="0"/>
        <pt x="209" y="526" on="0"/>
        <pt x="328" y="571" on="0"/>
      </contour>
      <contour>
        <pt x="332" y="-67" on="1"/>
        <pt x="390" y="-67" on="0"/>
        <pt x="491" y="-29" on="0"/>
        <pt x="571" y="42" on="0"/>
        <pt x="626" y="140" on="0"/>
        <pt x="637" y="200" on="1"/>
        <pt x="651" y="274" on="0"/>
        <pt x="632" y="395" on="0"/>
        <pt x="569" y="481" on="0"/>
        <pt x="462" y="528" on="0"/>
        <pt x="387" y="528" on="1"/>
        <pt x="329" y="528" on="0"/>
        <pt x="228" y="490" on="0"/>
        <pt x="147" y="419" on="0"/>
        <pt x="92" y="320" on="0"/>
        <pt x="81" y="260" on="1"/>
        <pt x="67" y="186" on="0"/>
        <pt x="85" y="66" on="0"/>
        <pt x="148" y="-20" on="0"/>
        <pt x="256" y="-67" on="0"/>
      </contour>
      <contour>
        <pt x="298" y="-9" on="1"/>
        <pt x="255" y="-9" on="0"/>
        <pt x="208" y="33" on="0"/>
        <pt x="189" y="100" on="0"/>
        <pt x="193" y="185" on="0"/>
        <pt x="201" y="228" on="1"/>
        <pt x="210" y="274" on="0"/>
        <pt x="251" y="360" on="0"/>
        <pt x="311" y="427" on="0"/>
        <pt x="388" y="467" on="0"/>
        <pt x="434" y="467" on="1"/>
        <pt x="463" y="467" on="0"/>
        <pt x="497" y="457" on="0"/>
        <pt x="513" y="446" on="1"/>
        <pt x="490" y="393" on="0"/>
        <pt x="485" y="335" on="1"/>
        <pt x="477" y="331" on="0"/>
        <pt x="454" y="327" on="0"/>
        <pt x="442" y="327" on="1"/>
        <pt x="442" y="375" on="0"/>
        <pt x="415" y="414" on="0"/>
        <pt x="386" y="414" on="1"/>
        <pt x="371" y="414" on="0"/>
        <pt x="344" y="393" on="0"/>
        <pt x="320" y="356" on="0"/>
        <pt x="302" y="307" on="0"/>
        <pt x="297" y="280" on="1"/>
        <pt x="289" y="240" on="0"/>
        <pt x="283" y="163" on="0"/>
        <pt x="291" y="103" on="0"/>
        <pt x="318" y="66" on="0"/>
        <pt x="343" y="66" on="1"/>
        <pt x="372" y="66" on="0"/>
        <pt x="427" y="97" on="0"/>
        <pt x="446" y="118" on="1"/>
        <pt x="459" y="109" on="0"/>
        <pt x="467" y="90" on="1"/>
        <pt x="449" y="67" on="0"/>
        <pt x="406" y="31" on="0"/>
        <pt x="361" y="5" on="0"/>
        <pt x="317" y="-9" on="0"/>
      </contour>
    </TTGlyph>
    <TTGlyph name="currency" xMin="10" yMin="57" xMax="462" yMax="438">
      <contour>
        <pt x="398" y="361" on="1"/>
        <pt x="412" y="338" on="0"/>
        <pt x="421" y="281" on="0"/>
        <pt x="415" y="247" on="1"/>
        <pt x="409" y="213" on="0"/>
        <pt x="380" y="156" on="0"/>
        <pt x="359" y="134" on="1"/>
        <pt x="415" y="73" on="1"/>
        <pt x="408" y="66" on="0"/>
        <pt x="382" y="58" on="0"/>
        <pt x="370" y="57" on="1"/>
        <pt x="326" y="107" on="1"/>
        <pt x="280" y="75" on="0"/>
        <pt x="218" y="75" on="1"/>
        <pt x="150" y="75" on="0"/>
        <pt x="107" y="110" on="1"/>
        <pt x="52" y="58" on="1"/>
        <pt x="41" y="59" on="0"/>
        <pt x="18" y="70" on="0"/>
        <pt x="10" y="79" on="1"/>
        <pt x="80" y="140" on="1"/>
        <pt x="63" y="166" on="0"/>
        <pt x="51" y="235" on="0"/>
        <pt x="59" y="277" on="1"/>
        <pt x="68" y="330" on="0"/>
        <pt x="104" y="369" on="1"/>
        <pt x="56" y="419" on="1"/>
        <pt x="64" y="426" on="0"/>
        <pt x="90" y="435" on="0"/>
        <pt x="103" y="436" on="1"/>
        <pt x="137" y="397" on="1"/>
        <pt x="186" y="431" on="0"/>
        <pt x="255" y="431" on="1"/>
        <pt x="291" y="431" on="0"/>
        <pt x="350" y="411" on="0"/>
        <pt x="371" y="393" on="1"/>
        <pt x="423" y="438" on="1"/>
        <pt x="435" y="435" on="0"/>
        <pt x="457" y="423" on="0"/>
        <pt x="462" y="415" on="1"/>
      </contour>
      <contour>
        <pt x="359" y="239" on="1"/>
        <pt x="371" y="306" on="0"/>
        <pt x="309" y="390" on="0"/>
        <pt x="245" y="390" on="1"/>
        <pt x="195" y="390" on="0"/>
        <pt x="124" y="327" on="0"/>
        <pt x="115" y="276" on="1"/>
        <pt x="102" y="205" on="0"/>
        <pt x="163" y="116" on="0"/>
        <pt x="228" y="116" on="1"/>
        <pt x="252" y="116" on="0"/>
        <pt x="295" y="135" on="0"/>
        <pt x="330" y="168" on="0"/>
        <pt x="354" y="213" on="0"/>
      </contour>
    </TTGlyph>
    <TTGlyph name="d" xMin="8" yMin="-9" xMax="470" yMax="710">
      <contour>
        <pt x="379" y="177" on="1"/>
        <pt x="372" y="137" on="0"/>
        <pt x="365" y="90" on="0"/>
        <pt x="365" y="66" on="0"/>
        <pt x="373" y="60" on="0"/>
        <pt x="380" y="60" on="1"/>
        <pt x="391" y="60" on="0"/>
        <pt x="415" y="73" on="0"/>
        <pt x="435" y="90" on="1"/>
        <pt x="442" y="83" on="0"/>
        <pt x="450" y="68" on="0"/>
        <pt x="453" y="59" on="1"/>
        <pt x="429" y="31" on="0"/>
        <pt x="366" y="-9" on="0"/>
        <pt x="340" y="-9" on="1"/>
        <pt x="304" y="-9" on="0"/>
        <pt x="273" y="25" on="0"/>
        <pt x="268" y="75" on="0"/>
        <pt x="281" y="133" on="0"/>
        <pt x="288" y="157" on="1"/>
        <pt x="287" y="157" on="1"/>
        <pt x="273" y="128" on="0"/>
        <pt x="233" y="69" on="0"/>
        <pt x="185" y="21" on="0"/>
        <pt x="129" y="-9" on="0"/>
        <pt x="100" y="-9" on="1"/>
        <pt x="50" y="-9" on="0"/>
        <pt x="8" y="91" on="0"/>
        <pt x="30" y="202" on="1"/>
        <pt x="42" y="260" on="0"/>
        <pt x="92" y="357" on="0"/>
        <pt x="163" y="427" on="0"/>
        <pt x="250" y="467" on="0"/>
        <pt x="299" y="467" on="1"/>
        <pt x="318" y="467" on="0"/>
        <pt x="341" y="462" on="1"/>
        <pt x="342" y="478" on="0"/>
        <pt x="347" y="514" on="0"/>
        <pt x="350" y="534" on="1"/>
        <pt x="356" y="569" on="0"/>
        <pt x="360" y="608" on="0"/>
        <pt x="350" y="627" on="0"/>
        <pt x="323" y="631" on="0"/>
        <pt x="299" y="631" on="1"/>
        <pt x="299" y="642" on="0"/>
        <pt x="300" y="661" on="0"/>
        <pt x="305" y="669" on="1"/>
        <pt x="317" y="670" on="0"/>
        <pt x="354" y="679" on="0"/>
        <pt x="393" y="691" on="0"/>
        <pt x="429" y="704" on="0"/>
        <pt x="440" y="710" on="1"/>
        <pt x="470" y="700" on="0"/>
        <pt x="461" y="646" on="1"/>
      </contour>
      <contour>
        <pt x="335" y="406" on="1"/>
        <pt x="309" y="416" on="0"/>
        <pt x="274" y="416" on="1"/>
        <pt x="243" y="416" on="0"/>
        <pt x="195" y="391" on="0"/>
        <pt x="159" y="347" on="0"/>
        <pt x="134" y="285" on="0"/>
        <pt x="127" y="248" on="1"/>
        <pt x="109" y="163" on="0"/>
        <pt x="126" y="72" on="0"/>
        <pt x="156" y="72" on="1"/>
        <pt x="169" y="72" on="0"/>
        <pt x="212" y="108" on="0"/>
        <pt x="259" y="176" on="0"/>
        <pt x="304" y="274" on="0"/>
        <pt x="318" y="336" on="1"/>
      </contour>
    </TTGlyph>
    <TTGlyph name="dagger" xMin="74" yMin="-250" xMax="464" yMax="674">
      <contour>
        <pt x="464" y="458" on="1"/>
        <pt x="463" y="441" on="0"/>
        <pt x="447" y="396" on="0"/>
        <pt x="436" y="383" on="1"/>
        <pt x="401" y="390" on="0"/>
        <pt x="338" y="399" on="0"/>
        <pt x="297" y="402" on="1"/>
        <pt x="225" y="78" on="0"/>
        <pt x="168" y="-250" on="1"/>
        <pt x="156" y="-250" on="0"/>
        <pt x="135" y="-245" on="0"/>
        <pt x="127" y="-237" on="1"/>
        <pt x="155" y="-81" on="0"/>
        <pt x="205" y="238" on="0"/>
        <pt x="227" y="401" on="1"/>
        <pt x="182" y="398" on="0"/>
        <pt x="112" y="390" on="0"/>
        <pt x="74" y="385" on="1"/>
        <pt x="74" y="408" on="0"/>
        <pt x="83" y="442" on="0"/>
        <pt x="92" y="458" on="1"/>
        <pt x="234" y="458" on="1"/>
        <pt x="240" y="503" on="0"/>
        <pt x="251" y="594" on="0"/>
        <pt x="256" y="639" on="1"/>
        <pt x="281" y="644" on="0"/>
        <pt x="316" y="660" on="0"/>
        <pt x="334" y="674" on="1"/>
        <pt x="348" y="665" on="0"/>
        <pt x="353" y="644" on="0"/>
        <pt x="349" y="628" on="1"/>
        <pt x="338" y="585" on="0"/>
        <pt x="319" y="501" on="0"/>
        <pt x="309" y="458" on="1"/>
      </contour>
    </TTGlyph>
    <TTGlyph name="daggerdbl" xMin="-2" yMin="-216" xMax="464" yMax="674">
      <contour>
        <pt x="238" y="458" on="1"/>
        <pt x="242" y="490" on="0"/>
        <pt x="250" y="575" on="0"/>
        <pt x="256" y="639" on="1"/>
        <pt x="281" y="644" on="0"/>
        <pt x="316" y="660" on="0"/>
        <pt x="334" y="674" on="1"/>
        <pt x="348" y="665" on="0"/>
        <pt x="354" y="644" on="0"/>
        <pt x="349" y="628" on="1"/>
        <pt x="332" y="568" on="0"/>
        <pt x="311" y="487" on="0"/>
        <pt x="303" y="458" on="1"/>
        <pt x="464" y="458" on="1"/>
        <pt x="463" y="441" on="0"/>
        <pt x="447" y="396" on="0"/>
        <pt x="436" y="383" on="1"/>
        <pt x="399" y="391" on="0"/>
        <pt x="334" y="400" on="0"/>
        <pt x="289" y="402" on="1"/>
        <pt x="283" y="371" on="1"/>
        <pt x="277" y="341" on="0"/>
        <pt x="270" y="298" on="0"/>
        <pt x="269" y="266" on="0"/>
        <pt x="274" y="240" on="0"/>
        <pt x="279" y="227" on="1"/>
        <pt x="271" y="216" on="0"/>
        <pt x="259" y="193" on="0"/>
        <pt x="249" y="161" on="0"/>
        <pt x="240" y="116" on="0"/>
        <pt x="235" y="84" on="1"/>
        <pt x="231" y="57" on="1"/>
        <pt x="278" y="60" on="0"/>
        <pt x="350" y="68" on="0"/>
        <pt x="388" y="73" on="1"/>
        <pt x="388" y="50" on="0"/>
        <pt x="379" y="16" on="0"/>
        <pt x="370" y="0" on="1"/>
        <pt x="224" y="0" on="1"/>
        <pt x="220" y="-32" on="0"/>
        <pt x="212" y="-117" on="0"/>
        <pt x="206" y="-181" on="1"/>
        <pt x="181" y="-186" on="0"/>
        <pt x="146" y="-202" on="0"/>
        <pt x="128" y="-216" on="1"/>
        <pt x="114" y="-207" on="0"/>
        <pt x="108" y="-186" on="0"/>
        <pt x="113" y="-170" on="1"/>
        <pt x="130" y="-110" on="0"/>
        <pt x="151" y="-29" on="0"/>
        <pt x="159" y="0" on="1"/>
        <pt x="-2" y="0" on="1"/>
        <pt x="-1" y="17" on="0"/>
        <pt x="15" y="62" on="0"/>
        <pt x="26" y="75" on="1"/>
        <pt x="63" y="67" on="0"/>
        <pt x="128" y="58" on="0"/>
        <pt x="173" y="56" on="1"/>
        <pt x="179" y="87" on="1"/>
        <pt x="185" y="117" on="0"/>
        <pt x="192" y="160" on="0"/>
        <pt x="193" y="192" on="0"/>
        <pt x="188" y="217" on="0"/>
        <pt x="183" y="231" on="1"/>
        <pt x="191" y="242" on="0"/>
        <pt x="203" y="265" on="0"/>
        <pt x="213" y="297" on="0"/>
        <pt x="222" y="342" on="0"/>
        <pt x="227" y="374" on="1"/>
        <pt x="231" y="401" on="1"/>
        <pt x="184" y="398" on="0"/>
        <pt x="112" y="390" on="0"/>
        <pt x="74" y="385" on="1"/>
        <pt x="74" y="408" on="0"/>
        <pt x="83" y="442" on="0"/>
        <pt x="92" y="458" on="1"/>
      </contour>
    </TTGlyph>
    <TTGlyph name="degree" xMin="121" yMin="454" xMax="402" yMax="700">
      <contour>
        <pt x="273" y="700" on="1"/>
        <pt x="337" y="700" on="0"/>
        <pt x="402" y="629" on="0"/>
        <pt x="391" y="569" on="1"/>
        <pt x="382" y="517" on="0"/>
        <pt x="305" y="454" on="0"/>
        <pt x="250" y="454" on="1"/>
        <pt x="185" y="454" on="0"/>
        <pt x="121" y="531" on="0"/>
        <pt x="132" y="595" on="1"/>
        <pt x="140" y="643" on="0"/>
        <pt x="217" y="700" on="0"/>
      </contour>
      <contour>
        <pt x="267" y="662" on="1"/>
        <pt x="243" y="662" on="0"/>
        <pt x="207" y="626" on="0"/>
        <pt x="202" y="597" on="1"/>
        <pt x="194" y="550" on="0"/>
        <pt x="224" y="494" on="0"/>
        <pt x="256" y="494" on="1"/>
        <pt x="279" y="494" on="0"/>
        <pt x="315" y="535" on="0"/>
        <pt x="321" y="568" on="1"/>
        <pt x="329" y="610" on="0"/>
        <pt x="299" y="662" on="0"/>
      </contour>
    </TTGlyph>
    <TTGlyph name="dieresis" xMin="168" yMin="532" xMax="434" yMax="640">
      <contour>
        <pt x="174" y="596" on="1"/>
        <pt x="182" y="640" on="0"/>
        <pt x="229" y="640" on="1"/>
        <pt x="255" y="640" on="0"/>
        <pt x="278" y="607" on="0"/>
        <pt x="273" y="581" on="1"/>
        <pt x="260" y="532" on="0"/>
        <pt x="217" y="532" on="1"/>
        <pt x="192" y="532" on="0"/>
        <pt x="168" y="567" on="0"/>
      </contour>
      <contour>
        <pt x="429" y="584" on="1"/>
        <pt x="424" y="559" on="0"/>
        <pt x="395" y="533" on="0"/>
        <pt x="372" y="533" on="1"/>
        <pt x="347" y="533" on="0"/>
        <pt x="323" y="566" on="0"/>
        <pt x="328" y="593" on="1"/>
        <pt x="336" y="640" on="0"/>
        <pt x="386" y="640" on="1"/>
        <pt x="410" y="640" on="0"/>
        <pt x="434" y="610" on="0"/>
      </contour>
    </TTGlyph>
    <TTGlyph name="divide" xMin="33" yMin="56" xMax="480" yMax="467">
      <contour>
        <pt x="339" y="405" on="1"/>
        <pt x="334" y="382" on="0"/>
        <pt x="307" y="356" on="0"/>
        <pt x="285" y="356" on="1"/>
        <pt x="258" y="356" on="0"/>
        <pt x="230" y="391" on="0"/>
        <pt x="236" y="420" on="1"/>
        <pt x="240" y="440" on="0"/>
        <pt x="271" y="467" on="0"/>
        <pt x="292" y="467" on="1"/>
        <pt x="315" y="467" on="0"/>
        <pt x="344" y="432" on="0"/>
      </contour>
      <contour>
        <pt x="480" y="287" on="1"/>
        <pt x="478" y="257" on="0"/>
        <pt x="464" y="235" on="1"/>
        <pt x="416" y="235" on="0"/>
        <pt x="308" y="235" on="0"/>
        <pt x="197" y="234" on="0"/>
        <pt x="86" y="233" on="0"/>
        <pt x="35" y="232" on="1"/>
        <pt x="33" y="266" on="0"/>
        <pt x="48" y="287" on="1"/>
      </contour>
      <contour>
        <pt x="290" y="105" on="1"/>
        <pt x="285" y="82" on="0"/>
        <pt x="258" y="56" on="0"/>
        <pt x="236" y="56" on="1"/>
        <pt x="209" y="56" on="0"/>
        <pt x="181" y="91" on="0"/>
        <pt x="187" y="120" on="1"/>
        <pt x="191" y="140" on="0"/>
        <pt x="222" y="167" on="0"/>
        <pt x="243" y="167" on="1"/>
        <pt x="266" y="167" on="0"/>
        <pt x="295" y="132" on="0"/>
      </contour>
    </TTGlyph>
    <TTGlyph name="dollar" xMin="2" yMin="-93" xMax="454" yMax="748">
      <contour>
        <pt x="335" y="683" on="1"/>
        <pt x="374" y="678" on="0"/>
        <pt x="434" y="655" on="0"/>
        <pt x="454" y="638" on="1"/>
        <pt x="449" y="604" on="0"/>
        <pt x="443" y="543" on="0"/>
        <pt x="443" y="509" on="1"/>
        <pt x="418" y="499" on="0"/>
        <pt x="388" y="504" on="1"/>
        <pt x="386" y="566" on="0"/>
        <pt x="354" y="625" on="0"/>
        <pt x="325" y="634" on="1"/>
        <pt x="311" y="568" on="0"/>
        <pt x="286" y="446" on="0"/>
        <pt x="275" y="386" on="1"/>
        <pt x="305" y="365" on="0"/>
        <pt x="365" y="321" on="0"/>
        <pt x="410" y="266" on="0"/>
        <pt x="433" y="198" on="0"/>
        <pt x="425" y="153" on="1"/>
        <pt x="419" y="116" on="0"/>
        <pt x="380" y="56" on="0"/>
        <pt x="322" y="14" on="0"/>
        <pt x="246" y="-9" on="0"/>
        <pt x="202" y="-9" on="1"/>
        <pt x="187" y="-93" on="1"/>
        <pt x="173" y="-92" on="0"/>
        <pt x="148" y="-84" on="0"/>
        <pt x="140" y="-74" on="1"/>
        <pt x="153" y="-6" on="1"/>
        <pt x="102" y="1" on="0"/>
        <pt x="31" y="37" on="0"/>
        <pt x="2" y="63" on="1"/>
        <pt x="13" y="98" on="0"/>
        <pt x="29" y="168" on="0"/>
        <pt x="31" y="202" on="1"/>
        <pt x="43" y="207" on="0"/>
        <pt x="73" y="208" on="0"/>
        <pt x="85" y="204" on="1"/>
        <pt x="80" y="132" on="0"/>
        <pt x="115" y="55" on="0"/>
        <pt x="163" y="44" on="1"/>
        <pt x="213" y="306" on="1"/>
        <pt x="186" y="325" on="0"/>
        <pt x="133" y="367" on="0"/>
        <pt x="95" y="421" on="0"/>
        <pt x="77" y="489" on="0"/>
        <pt x="85" y="535" on="1"/>
        <pt x="96" y="602" on="0"/>
        <pt x="200" y="682" on="0"/>
        <pt x="285" y="685" on="1"/>
        <pt x="297" y="748" on="1"/>
        <pt x="312" y="748" on="0"/>
        <pt x="336" y="740" on="0"/>
        <pt x="345" y="729" on="1"/>
      </contour>
      <contour>
        <pt x="276" y="638" on="1"/>
        <pt x="234" y="635" on="0"/>
        <pt x="181" y="589" on="0"/>
        <pt x="173" y="541" on="1"/>
        <pt x="167" y="501" on="0"/>
        <pt x="203" y="443" on="0"/>
        <pt x="234" y="417" on="1"/>
      </contour>
      <contour>
        <pt x="211" y="39" on="1"/>
        <pt x="256" y="39" on="0"/>
        <pt x="320" y="92" on="0"/>
        <pt x="328" y="136" on="1"/>
        <pt x="332" y="160" on="0"/>
        <pt x="324" y="200" on="0"/>
        <pt x="303" y="234" on="0"/>
        <pt x="272" y="263" on="0"/>
        <pt x="254" y="277" on="1"/>
      </contour>
    </TTGlyph>
    <TTGlyph name="dotlessi" xMin="21" yMin="-9" xMax="208" yMax="467">
      <contour>
        <pt x="80" y="279" on="1"/>
        <pt x="91" y="317" on="0"/>
        <pt x="100" y="360" on="0"/>
        <pt x="92" y="382" on="0"/>
        <pt x="65" y="388" on="0"/>
        <pt x="40" y="388" on="1"/>
        <pt x="39" y="410" on="0"/>
        <pt x="46" y="426" on="1"/>
        <pt x="58" y="427" on="0"/>
        <pt x="90" y="436" on="0"/>
        <pt x="123" y="448" on="0"/>
        <pt x="152" y="461" on="0"/>
        <pt x="161" y="467" on="1"/>
        <pt x="192" y="454" on="0"/>
        <pt x="205" y="393" on="0"/>
        <pt x="188" y="331" on="1"/>
        <pt x="133" y="138" on="1"/>
        <pt x="126" y="114" on="0"/>
        <pt x="120" y="83" on="0"/>
        <pt x="122" y="67" on="0"/>
        <pt x="131" y="61" on="0"/>
        <pt x="138" y="61" on="1"/>
        <pt x="148" y="61" on="0"/>
        <pt x="175" y="75" on="0"/>
        <pt x="190" y="90" on="1"/>
        <pt x="205" y="80" on="0"/>
        <pt x="208" y="58" on="1"/>
        <pt x="179" y="26" on="0"/>
        <pt x="122" y="-9" on="0"/>
        <pt x="94" y="-9" on="1"/>
        <pt x="44" y="-9" on="0"/>
        <pt x="21" y="70" on="0"/>
        <pt x="39" y="135" on="1"/>
      </contour>
    </TTGlyph>
    <TTGlyph name="dotlessj" xMin="-119" yMin="-249" xMax="202" yMax="467">
      <contour>
        <pt x="97" y="314" on="1"/>
        <pt x="101" y="337" on="0"/>
        <pt x="102" y="366" on="0"/>
        <pt x="91" y="382" on="0"/>
        <pt x="65" y="388" on="0"/>
        <pt x="42" y="388" on="1"/>
        <pt x="41" y="398" on="0"/>
        <pt x="43" y="417" on="0"/>
        <pt x="48" y="426" on="1"/>
        <pt x="60" y="427" on="0"/>
        <pt x="93" y="436" on="0"/>
        <pt x="128" y="448" on="0"/>
        <pt x="158" y="461" on="0"/>
        <pt x="167" y="467" on="1"/>
        <pt x="180" y="461" on="0"/>
        <pt x="196" y="446" on="0"/>
        <pt x="202" y="415" on="0"/>
        <pt x="197" y="362" on="0"/>
        <pt x="189" y="319" on="1"/>
        <pt x="143" y="74" on="1"/>
        <pt x="131" y="12" on="0"/>
        <pt x="92" y="-86" on="0"/>
        <pt x="32" y="-164" on="0"/>
        <pt x="-50" y="-225" on="0"/>
        <pt x="-104" y="-249" on="1"/>
        <pt x="-118" y="-237" on="0"/>
        <pt x="-119" y="-216" on="1"/>
        <pt x="-47" y="-165" on="0"/>
        <pt x="32" y="-34" on="0"/>
        <pt x="48" y="51" on="1"/>
      </contour>
    </TTGlyph>
    <TTGlyph name="e" xMin="23" yMin="-9" xMax="353" yMax="467">
      <contour>
        <pt x="257" y="467" on="1"/>
        <pt x="287" y="467" on="0"/>
        <pt x="327" y="448" on="0"/>
        <pt x="348" y="417" on="0"/>
        <pt x="353" y="377" on="0"/>
        <pt x="349" y="356" on="1"/>
        <pt x="343" y="325" on="0"/>
        <pt x="293" y="273" on="0"/>
        <pt x="227" y="235" on="0"/>
        <pt x="153" y="213" on="0"/>
        <pt x="122" y="212" on="1"/>
        <pt x="119" y="186" on="0"/>
        <pt x="120" y="134" on="0"/>
        <pt x="132" y="92" on="0"/>
        <pt x="158" y="66" on="0"/>
        <pt x="181" y="66" on="1"/>
        <pt x="203" y="66" on="0"/>
        <pt x="259" y="93" on="0"/>
        <pt x="281" y="119" on="1"/>
        <pt x="296" y="108" on="0"/>
        <pt x="302" y="90" on="1"/>
        <pt x="288" y="72" on="0"/>
        <pt x="249" y="36" on="0"/>
        <pt x="204" y="8" on="0"/>
        <pt x="156" y="-9" on="0"/>
        <pt x="132" y="-9" on="1"/>
        <pt x="90" y="-9" on="0"/>
        <pt x="43" y="32" on="0"/>
        <pt x="23" y="98" on="0"/>
        <pt x="26" y="180" on="0"/>
        <pt x="34" y="221" on="1"/>
        <pt x="45" y="279" on="0"/>
        <pt x="93" y="371" on="0"/>
        <pt x="154" y="434" on="0"/>
        <pt x="224" y="467" on="0"/>
      </contour>
      <contour>
        <pt x="126" y="249" on="1"/>
        <pt x="151" y="250" on="0"/>
        <pt x="199" y="263" on="0"/>
        <pt x="238" y="287" on="0"/>
        <pt x="264" y="321" on="0"/>
        <pt x="268" y="343" on="1"/>
        <pt x="270" y="355" on="0"/>
        <pt x="268" y="379" on="0"/>
        <pt x="257" y="400" on="0"/>
        <pt x="238" y="413" on="0"/>
        <pt x="224" y="413" on="1"/>
        <pt x="195" y="413" on="0"/>
        <pt x="142" y="337" on="0"/>
        <pt x="130" y="271" on="1"/>
      </contour>
    </TTGlyph>
    <TTGlyph name="eacute" xMin="23" yMin="-9" xMax="414" yMax="724">
      <component glyphName="e" x="0" y="0" flags="0x204"/>
      <component glyphName="acute" x="85" y="0" flags="0x4"/>
    </TTGlyph>
    <TTGlyph name="ecircumflex" xMin="23" yMin="-9" xMax="419" yMax="708">
      <component glyphName="e" x="0" y="0" flags="0x204"/>
      <component glyphName="circumflex" x="63" y="0" flags="0x4"/>
    </TTGlyph>
    <TTGlyph name="edieresis" xMin="23" yMin="-9" xMax="406" yMax="640">
      <component glyphName="e" x="0" y="0" flags="0x204"/>
      <component glyphName="dieresis" x="-28" y="0" flags="0x4"/>
    </TTGlyph>
    <TTGlyph name="egrave" xMin="23" yMin="-9" xMax="353" yMax="714">
      <component glyphName="e" x="0" y="0" flags="0x204"/>
      <component glyphName="grave" x="0" y="0" flags="0x4"/>
    </TTGlyph>
    <TTGlyph name="eight" xMin="-3" yMin="-9" xMax="460" yMax="637">
      <contour>
        <pt x="447" y="490" on="1"/>
        <pt x="442" y="465" on="0"/>
        <pt x="416" y="424" on="0"/>
        <pt x="380" y="390" on="0"/>
        <pt x="336" y="363" on="0"/>
        <pt x="313" y="351" on="1"/>
        <pt x="380" y="295" on="0"/>
        <pt x="419" y="190" on="0"/>
        <pt x="406" y="127" on="1"/>
        <pt x="400" y="96" on="0"/>
        <pt x="364" y="46" on="0"/>
        <pt x="309" y="10" on="0"/>
        <pt x="238" y="-9" on="0"/>
        <pt x="197" y="-9" on="1"/>
        <pt x="94" y="-9" on="0"/>
        <pt x="-3" y="82" on="0"/>
        <pt x="14" y="169" on="1"/>
        <pt x="25" y="224" on="0"/>
        <pt x="106" y="303" on="0"/>
        <pt x="179" y="339" on="1"/>
        <pt x="126" y="381" on="0"/>
        <pt x="92" y="463" on="0"/>
        <pt x="103" y="514" on="1"/>
        <pt x="108" y="538" on="0"/>
        <pt x="139" y="583" on="0"/>
        <pt x="189" y="617" on="0"/>
        <pt x="256" y="637" on="0"/>
        <pt x="298" y="637" on="1"/>
        <pt x="385" y="637" on="0"/>
        <pt x="460" y="556" on="0"/>
      </contour>
      <contour>
        <pt x="277" y="378" on="1"/>
        <pt x="312" y="398" on="0"/>
        <pt x="352" y="446" on="0"/>
        <pt x="360" y="482" on="1"/>
        <pt x="366" y="510" on="0"/>
        <pt x="358" y="553" on="0"/>
        <pt x="337" y="581" on="0"/>
        <pt x="304" y="595" on="0"/>
        <pt x="285" y="595" on="1"/>
        <pt x="256" y="595" on="0"/>
        <pt x="205" y="558" on="0"/>
        <pt x="197" y="523" on="1"/>
        <pt x="194" y="505" on="0"/>
        <pt x="194" y="472" on="0"/>
        <pt x="211" y="438" on="0"/>
        <pt x="246" y="400" on="0"/>
      </contour>
      <contour>
        <pt x="314" y="121" on="1"/>
        <pt x="319" y="147" on="0"/>
        <pt x="316" y="192" on="0"/>
        <pt x="294" y="237" on="0"/>
        <pt x="250" y="284" on="0"/>
        <pt x="215" y="312" on="1"/>
        <pt x="161" y="284" on="0"/>
        <pt x="109" y="218" on="0"/>
        <pt x="101" y="172" on="1"/>
        <pt x="94" y="135" on="0"/>
        <pt x="103" y="83" on="0"/>
        <pt x="131" y="49" on="0"/>
        <pt x="175" y="33" on="0"/>
        <pt x="204" y="33" on="1"/>
        <pt x="246" y="33" on="0"/>
        <pt x="306" y="73" on="0"/>
      </contour>
    </TTGlyph>
    <TTGlyph name="ellipsis" xMin="1" yMin="-8" xMax="635" yMax="103">
      <contour>
        <pt x="110" y="41" on="1"/>
        <pt x="105" y="18" on="0"/>
        <pt x="78" y="-8" on="0"/>
        <pt x="56" y="-8" on="1"/>
        <pt x="29" y="-8" on="0"/>
        <pt x="1" y="27" on="0"/>
        <pt x="7" y="56" on="1"/>
        <pt x="11" y="76" on="0"/>
        <pt x="42" y="103" on="0"/>
        <pt x="63" y="103" on="1"/>
        <pt x="86" y="103" on="0"/>
        <pt x="115" y="68" on="0"/>
      </contour>
      <contour>
        <pt x="370" y="41" on="1"/>
        <pt x="365" y="18" on="0"/>
        <pt x="338" y="-8" on="0"/>
        <pt x="316" y="-8" on="1"/>
        <pt x="289" y="-8" on="0"/>
        <pt x="261" y="27" on="0"/>
        <pt x="267" y="56" on="1"/>
        <pt x="271" y="76" on="0"/>
        <pt x="302" y="103" on="0"/>
        <pt x="323" y="103" on="1"/>
        <pt x="346" y="103" on="0"/>
        <pt x="375" y="68" on="0"/>
      </contour>
      <contour>
        <pt x="630" y="41" on="1"/>
        <pt x="625" y="18" on="0"/>
        <pt x="598" y="-8" on="0"/>
        <pt x="576" y="-8" on="1"/>
        <pt x="549" y="-8" on="0"/>
        <pt x="521" y="27" on="0"/>
        <pt x="527" y="56" on="1"/>
        <pt x="531" y="76" on="0"/>
        <pt x="562" y="103" on="0"/>
        <pt x="583" y="103" on="1"/>
        <pt x="606" y="103" on="0"/>
        <pt x="635" y="68" on="0"/>
      </contour>
    </TTGlyph>
    <TTGlyph name="emdash" xMin="33" yMin="234" xMax="944" yMax="290">
      <contour>
        <pt x="944" y="290" on="1"/>
        <pt x="941" y="258" on="0"/>
        <pt x="926" y="237" on="1"/>
        <pt x="778" y="237" on="0"/>
        <pt x="338" y="236" on="0"/>
        <pt x="33" y="234" on="1"/>
        <pt x="36" y="270" on="0"/>
        <pt x="51" y="290" on="1"/>
      </contour>
    </TTGlyph>
    <TTGlyph name="endash" xMin="34" yMin="236" xMax="481" yMax="291">
      <contour>
        <pt x="481" y="291" on="1"/>
        <pt x="479" y="261" on="0"/>
        <pt x="465" y="239" on="1"/>
        <pt x="417" y="239" on="0"/>
        <pt x="309" y="239" on="0"/>
        <pt x="198" y="238" on="0"/>
        <pt x="87" y="237" on="0"/>
        <pt x="36" y="236" on="1"/>
        <pt x="34" y="270" on="0"/>
        <pt x="49" y="291" on="1"/>
      </contour>
    </TTGlyph>
    <TTGlyph name="equal" xMin="20" yMin="142" xMax="495" yMax="362">
      <contour>
        <pt x="495" y="362" on="1"/>
        <pt x="493" y="332" on="0"/>
        <pt x="479" y="310" on="1"/>
        <pt x="431" y="310" on="0"/>
        <pt x="323" y="310" on="0"/>
        <pt x="212" y="309" on="0"/>
        <pt x="101" y="308" on="0"/>
        <pt x="50" y="307" on="1"/>
        <pt x="48" y="341" on="0"/>
        <pt x="63" y="362" on="1"/>
      </contour>
      <contour>
        <pt x="467" y="197" on="1"/>
        <pt x="465" y="167" on="0"/>
        <pt x="451" y="145" on="1"/>
        <pt x="403" y="145" on="0"/>
        <pt x="295" y="145" on="0"/>
        <pt x="184" y="144" on="0"/>
        <pt x="73" y="143" on="0"/>
        <pt x="22" y="142" on="1"/>
        <pt x="20" y="176" on="0"/>
        <pt x="35" y="197" on="1"/>
      </contour>
    </TTGlyph>
    <TTGlyph name="eth" xMin="19" yMin="-9" xMax="439" yMax="743">
      <contour>
        <pt x="433" y="728" on="1"/>
        <pt x="437" y="714" on="0"/>
        <pt x="439" y="686" on="0"/>
        <pt x="437" y="678" on="1"/>
        <pt x="416" y="668" on="0"/>
        <pt x="368" y="646" on="0"/>
        <pt x="342" y="632" on="1"/>
        <pt x="375" y="594" on="0"/>
        <pt x="412" y="514" on="0"/>
        <pt x="427" y="431" on="0"/>
        <pt x="423" y="345" on="0"/>
        <pt x="414" y="300" on="1"/>
        <pt x="401" y="234" on="0"/>
        <pt x="342" y="120" on="0"/>
        <pt x="263" y="38" on="0"/>
        <pt x="171" y="-9" on="0"/>
        <pt x="126" y="-9" on="1"/>
        <pt x="101" y="-9" on="0"/>
        <pt x="56" y="15" on="0"/>
        <pt x="28" y="67" on="0"/>
        <pt x="19" y="146" on="0"/>
        <pt x="30" y="202" on="1"/>
        <pt x="42" y="260" on="0"/>
        <pt x="92" y="357" on="0"/>
        <pt x="163" y="427" on="0"/>
        <pt x="250" y="467" on="0"/>
        <pt x="299" y="467" on="1"/>
        <pt x="307" y="467" on="0"/>
        <pt x="326" y="465" on="0"/>
        <pt x="335" y="463" on="1"/>
        <pt x="333" y="503" on="0"/>
        <pt x="313" y="574" on="0"/>
        <pt x="291" y="607" on="1"/>
        <pt x="260" y="591" on="0"/>
        <pt x="196" y="557" on="0"/>
        <pt x="162" y="539" on="1"/>
        <pt x="157" y="553" on="0"/>
        <pt x="155" y="580" on="0"/>
        <pt x="157" y="589" on="1"/>
        <pt x="263" y="642" on="1"/>
        <pt x="231" y="680" on="0"/>
        <pt x="174" y="717" on="1"/>
        <pt x="178" y="725" on="0"/>
        <pt x="194" y="740" on="0"/>
        <pt x="202" y="743" on="1"/>
        <pt x="265" y="706" on="0"/>
        <pt x="310" y="666" on="1"/>
      </contour>
      <contour>
        <pt x="184" y="60" on="1"/>
        <pt x="202" y="60" on="0"/>
        <pt x="239" y="85" on="0"/>
        <pt x="274" y="139" on="0"/>
        <pt x="304" y="226" on="0"/>
        <pt x="316" y="289" on="1"/>
        <pt x="323" y="321" on="0"/>
        <pt x="331" y="379" on="0"/>
        <pt x="333" y="406" on="1"/>
        <pt x="309" y="416" on="0"/>
        <pt x="274" y="416" on="1"/>
        <pt x="243" y="416" on="0"/>
        <pt x="195" y="391" on="0"/>
        <pt x="159" y="347" on="0"/>
        <pt x="134" y="285" on="0"/>
        <pt x="127" y="248" on="1"/>
        <pt x="108" y="160" on="0"/>
        <pt x="142" y="60" on="0"/>
      </contour>
    </TTGlyph>
    <TTGlyph name="exclam" xMin="53" yMin="-8" xMax="283" yMax="714">
      <contour>
        <pt x="276" y="662" on="1"/>
        <pt x="265" y="623" on="0"/>
        <pt x="237" y="519" on="0"/>
        <pt x="208" y="404" on="0"/>
        <pt x="179" y="282" on="0"/>
        <pt x="167" y="225" on="1"/>
        <pt x="141" y="222" on="0"/>
        <pt x="123" y="231" on="1"/>
        <pt x="132" y="301" on="0"/>
        <pt x="144" y="421" on="0"/>
        <pt x="154" y="529" on="0"/>
        <pt x="160" y="630" on="0"/>
        <pt x="163" y="681" on="1"/>
        <pt x="186" y="686" on="0"/>
        <pt x="246" y="705" on="0"/>
        <pt x="263" y="714" on="1"/>
        <pt x="277" y="709" on="0"/>
        <pt x="283" y="686" on="0"/>
      </contour>
      <contour>
        <pt x="162" y="41" on="1"/>
        <pt x="157" y="18" on="0"/>
        <pt x="130" y="-8" on="0"/>
        <pt x="108" y="-8" on="1"/>
        <pt x="81" y="-8" on="0"/>
        <pt x="53" y="27" on="0"/>
        <pt x="59" y="56" on="1"/>
        <pt x="63" y="76" on="0"/>
        <pt x="94" y="103" on="0"/>
        <pt x="115" y="103" on="1"/>
        <pt x="138" y="103" on="0"/>
        <pt x="167" y="68" on="0"/>
      </contour>
    </TTGlyph>
    <TTGlyph name="exclamdown" xMin="-9" yMin="-255" xMax="221" yMax="467">
      <contour>
        <pt x="112" y="418" on="1"/>
        <pt x="117" y="441" on="0"/>
        <pt x="144" y="467" on="0"/>
        <pt x="166" y="467" on="1"/>
        <pt x="193" y="467" on="0"/>
        <pt x="221" y="432" on="0"/>
        <pt x="215" y="403" on="1"/>
        <pt x="211" y="383" on="0"/>
        <pt x="180" y="356" on="0"/>
        <pt x="159" y="356" on="1"/>
        <pt x="136" y="356" on="0"/>
        <pt x="107" y="391" on="0"/>
      </contour>
      <contour>
        <pt x="-2" y="-203" on="1"/>
        <pt x="9" y="-164" on="0"/>
        <pt x="37" y="-60" on="0"/>
        <pt x="66" y="55" on="0"/>
        <pt x="95" y="177" on="0"/>
        <pt x="107" y="234" on="1"/>
        <pt x="133" y="237" on="0"/>
        <pt x="151" y="228" on="1"/>
        <pt x="142" y="157" on="0"/>
        <pt x="130" y="37" on="0"/>
        <pt x="120" y="-71" on="0"/>
        <pt x="114" y="-171" on="0"/>
        <pt x="111" y="-222" on="1"/>
        <pt x="88" y="-227" on="0"/>
        <pt x="28" y="-246" on="0"/>
        <pt x="11" y="-255" on="1"/>
        <pt x="-3" y="-250" on="0"/>
        <pt x="-9" y="-227" on="0"/>
      </contour>
    </TTGlyph>
    <TTGlyph name="f" xMin="-146" yMin="-248" xMax="463" yMax="714">
      <contour>
        <pt x="124" y="454" on="1"/>
        <pt x="135" y="521" on="0"/>
        <pt x="182" y="619" on="0"/>
        <pt x="244" y="683" on="0"/>
        <pt x="319" y="714" on="0"/>
        <pt x="359" y="714" on="1"/>
        <pt x="397" y="714" on="0"/>
        <pt x="450" y="699" on="0"/>
        <pt x="463" y="689" on="1"/>
        <pt x="452" y="666" on="0"/>
        <pt x="439" y="610" on="0"/>
        <pt x="437" y="582" on="1"/>
        <pt x="420" y="572" on="0"/>
        <pt x="395" y="574" on="1"/>
        <pt x="393" y="625" on="0"/>
        <pt x="360" y="668" on="0"/>
        <pt x="329" y="668" on="1"/>
        <pt x="311" y="668" on="0"/>
        <pt x="283" y="650" on="0"/>
        <pt x="259" y="601" on="0"/>
        <pt x="235" y="515" on="0"/>
        <pt x="222" y="448" on="1"/>
        <pt x="321" y="448" on="1"/>
        <pt x="321" y="437" on="0"/>
        <pt x="318" y="417" on="0"/>
        <pt x="314" y="409" on="1"/>
        <pt x="286" y="409" on="0"/>
        <pt x="233" y="404" on="0"/>
        <pt x="213" y="401" on="1"/>
        <pt x="196" y="304" on="0"/>
        <pt x="173" y="158" on="0"/>
        <pt x="166" y="118" on="1"/>
        <pt x="152" y="38" on="0"/>
        <pt x="111" y="-97" on="0"/>
        <pt x="55" y="-194" on="0"/>
        <pt x="-14" y="-248" on="0"/>
        <pt x="-55" y="-248" on="1"/>
        <pt x="-102" y="-248" on="0"/>
        <pt x="-144" y="-212" on="1"/>
        <pt x="-146" y="-196" on="0"/>
        <pt x="-142" y="-166" on="0"/>
        <pt x="-137" y="-152" on="1"/>
        <pt x="-114" y="-160" on="0"/>
        <pt x="-58" y="-168" on="0"/>
        <pt x="-26" y="-168" on="1"/>
        <pt x="-9" y="-168" on="0"/>
        <pt x="16" y="-157" on="0"/>
        <pt x="36" y="-112" on="0"/>
        <pt x="56" y="-21" on="0"/>
        <pt x="68" y="59" on="1"/>
        <pt x="79" y="133" on="0"/>
        <pt x="99" y="299" on="0"/>
        <pt x="116" y="403" on="1"/>
        <pt x="99" y="405" on="0"/>
        <pt x="62" y="409" on="0"/>
        <pt x="45" y="409" on="1"/>
        <pt x="45" y="432" on="0"/>
        <pt x="56" y="448" on="1"/>
        <pt x="123" y="448" on="1"/>
      </contour>
    </TTGlyph>
    <TTGlyph name="f.calt" xMin="-146" yMin="-248" xMax="386" yMax="714">
      <contour>
        <pt x="124" y="454" on="1"/>
        <pt x="136" y="528" on="0"/>
        <pt x="172" y="628" on="0"/>
        <pt x="218" y="688" on="0"/>
        <pt x="275" y="714" on="0"/>
        <pt x="309" y="714" on="1"/>
        <pt x="332" y="714" on="0"/>
        <pt x="374" y="704" on="0"/>
        <pt x="386" y="696" on="1"/>
        <pt x="375" y="673" on="0"/>
        <pt x="366" y="614" on="0"/>
        <pt x="364" y="586" on="1"/>
        <pt x="356" y="581" on="0"/>
        <pt x="331" y="578" on="0"/>
        <pt x="319" y="579" on="1"/>
        <pt x="321" y="633" on="0"/>
        <pt x="306" y="667" on="0"/>
        <pt x="287" y="667" on="1"/>
        <pt x="277" y="667" on="0"/>
        <pt x="261" y="655" on="0"/>
        <pt x="245" y="612" on="0"/>
        <pt x="228" y="528" on="0"/>
        <pt x="218" y="457" on="1"/>
        <pt x="217" y="448" on="1"/>
        <pt x="321" y="448" on="1"/>
        <pt x="321" y="437" on="0"/>
        <pt x="318" y="417" on="0"/>
        <pt x="314" y="409" on="1"/>
        <pt x="287" y="409" on="0"/>
        <pt x="231" y="405" on="0"/>
        <pt x="210" y="401" on="1"/>
        <pt x="205" y="363" on="0"/>
        <pt x="195" y="298" on="0"/>
        <pt x="185" y="232" on="0"/>
        <pt x="173" y="161" on="0"/>
        <pt x="166" y="118" on="1"/>
        <pt x="152" y="38" on="0"/>
        <pt x="111" y="-97" on="0"/>
        <pt x="55" y="-194" on="0"/>
        <pt x="-14" y="-248" on="0"/>
        <pt x="-55" y="-248" on="1"/>
        <pt x="-102" y="-248" on="0"/>
        <pt x="-144" y="-212" on="1"/>
        <pt x="-146" y="-196" on="0"/>
        <pt x="-142" y="-166" on="0"/>
        <pt x="-137" y="-152" on="1"/>
        <pt x="-114" y="-160" on="0"/>
        <pt x="-58" y="-168" on="0"/>
        <pt x="-26" y="-168" on="1"/>
        <pt x="-9" y="-168" on="0"/>
        <pt x="16" y="-157" on="0"/>
        <pt x="36" y="-112" on="0"/>
        <pt x="56" y="-21" on="0"/>
        <pt x="68" y="59" on="1"/>
        <pt x="79" y="133" on="0"/>
        <pt x="99" y="299" on="0"/>
        <pt x="116" y="403" on="1"/>
        <pt x="99" y="405" on="0"/>
        <pt x="62" y="409" on="0"/>
        <pt x="45" y="409" on="1"/>
        <pt x="45" y="432" on="0"/>
        <pt x="56" y="448" on="1"/>
        <pt x="123" y="448" on="1"/>
      </contour>
    </TTGlyph>
    <TTGlyph name="f_f" xMin="-146" yMin="-248" xMax="755" yMax="714">
      <contour>
        <pt x="128" y="448" on="1"/>
        <pt x="140" y="507" on="0"/>
        <pt x="192" y="596" on="0"/>
        <pt x="260" y="655" on="0"/>
        <pt x="339" y="684" on="0"/>
        <pt x="379" y="684" on="1"/>
        <pt x="421" y="684" on="0"/>
        <pt x="482" y="661" on="0"/>
        <pt x="502" y="647" on="1"/>
        <pt x="534" y="681" on="0"/>
        <pt x="610" y="714" on="0"/>
        <pt x="651" y="714" on="1"/>
        <pt x="689" y="714" on="0"/>
        <pt x="742" y="699" on="0"/>
        <pt x="755" y="689" on="1"/>
        <pt x="744" y="666" on="0"/>
        <pt x="731" y="610" on="0"/>
        <pt x="729" y="582" on="1"/>
        <pt x="712" y="572" on="0"/>
        <pt x="687" y="574" on="1"/>
        <pt x="685" y="625" on="0"/>
        <pt x="652" y="668" on="0"/>
        <pt x="621" y="668" on="1"/>
        <pt x="603" y="668" on="0"/>
        <pt x="575" y="650" on="0"/>
        <pt x="551" y="601" on="0"/>
        <pt x="527" y="515" on="0"/>
        <pt x="514" y="448" on="1"/>
        <pt x="613" y="448" on="1"/>
        <pt x="613" y="437" on="0"/>
        <pt x="610" y="417" on="0"/>
        <pt x="606" y="409" on="1"/>
        <pt x="578" y="409" on="0"/>
        <pt x="525" y="404" on="0"/>
        <pt x="505" y="401" on="1"/>
        <pt x="493" y="327" on="0"/>
        <pt x="475" y="223" on="0"/>
        <pt x="459" y="144" on="0"/>
        <pt x="443" y="82" on="0"/>
        <pt x="433" y="51" on="1"/>
        <pt x="418" y="1" on="0"/>
        <pt x="365" y="-93" on="0"/>
        <pt x="295" y="-166" on="0"/>
        <pt x="210" y="-210" on="0"/>
        <pt x="162" y="-210" on="1"/>
        <pt x="127" y="-210" on="0"/>
        <pt x="83" y="-189" on="0"/>
        <pt x="64" y="-174" on="1"/>
        <pt x="39" y="-209" on="0"/>
        <pt x="-20" y="-248" on="0"/>
        <pt x="-55" y="-248" on="1"/>
        <pt x="-102" y="-248" on="0"/>
        <pt x="-144" y="-212" on="1"/>
        <pt x="-146" y="-196" on="0"/>
        <pt x="-142" y="-166" on="0"/>
        <pt x="-137" y="-152" on="1"/>
        <pt x="-114" y="-160" on="0"/>
        <pt x="-58" y="-168" on="0"/>
        <pt x="-26" y="-168" on="1"/>
        <pt x="-9" y="-168" on="0"/>
        <pt x="16" y="-157" on="0"/>
        <pt x="36" y="-112" on="0"/>
        <pt x="56" y="-21" on="0"/>
        <pt x="68" y="59" on="1"/>
        <pt x="79" y="134" on="0"/>
        <pt x="104" y="298" on="0"/>
        <pt x="121" y="403" on="1"/>
        <pt x="104" y="405" on="0"/>
        <pt x="67" y="409" on="0"/>
        <pt x="50" y="409" on="1"/>
        <pt x="50" y="432" on="0"/>
        <pt x="61" y="448" on="1"/>
      </contour>
      <contour>
        <pt x="416" y="454" on="1"/>
        <pt x="422" y="491" on="0"/>
        <pt x="442" y="553" on="0"/>
        <pt x="455" y="579" on="1"/>
        <pt x="440" y="606" on="0"/>
        <pt x="394" y="638" on="0"/>
        <pt x="362" y="638" on="1"/>
        <pt x="311" y="638" on="0"/>
        <pt x="244" y="541" on="0"/>
        <pt x="227" y="448" on="1"/>
        <pt x="415" y="448" on="1"/>
      </contour>
      <contour>
        <pt x="334" y="-6" on="1"/>
        <pt x="344" y="33" on="0"/>
        <pt x="361" y="108" on="0"/>
        <pt x="377" y="200" on="0"/>
        <pt x="396" y="320" on="0"/>
        <pt x="408" y="403" on="1"/>
        <pt x="389" y="405" on="0"/>
        <pt x="347" y="409" on="0"/>
        <pt x="320" y="409" on="1"/>
        <pt x="291" y="409" on="0"/>
        <pt x="240" y="404" on="0"/>
        <pt x="218" y="401" on="1"/>
        <pt x="207" y="340" on="0"/>
        <pt x="180" y="196" on="0"/>
        <pt x="166" y="118" on="1"/>
        <pt x="154" y="46" on="0"/>
        <pt x="117" y="-75" on="0"/>
        <pt x="94" y="-123" on="1"/>
        <pt x="125" y="-137" on="0"/>
        <pt x="174" y="-137" on="1"/>
        <pt x="209" y="-137" on="0"/>
        <pt x="260" y="-125" on="0"/>
        <pt x="298" y="-95" on="0"/>
        <pt x="324" y="-44" on="0"/>
      </contour>
    </TTGlyph>
    <TTGlyph name="f_f.calt" xMin="-146" yMin="-248" xMax="678" yMax="714">
      <contour>
        <pt x="128" y="448" on="1"/>
        <pt x="140" y="507" on="0"/>
        <pt x="192" y="596" on="0"/>
        <pt x="260" y="655" on="0"/>
        <pt x="339" y="684" on="0"/>
        <pt x="379" y="684" on="1"/>
        <pt x="413" y="684" on="0"/>
        <pt x="466" y="668" on="0"/>
        <pt x="486" y="657" on="1"/>
        <pt x="509" y="688" on="0"/>
        <pt x="567" y="714" on="0"/>
        <pt x="601" y="714" on="1"/>
        <pt x="624" y="714" on="0"/>
        <pt x="666" y="704" on="0"/>
        <pt x="678" y="696" on="1"/>
        <pt x="667" y="673" on="0"/>
        <pt x="658" y="614" on="0"/>
        <pt x="656" y="586" on="1"/>
        <pt x="648" y="581" on="0"/>
        <pt x="623" y="578" on="0"/>
        <pt x="611" y="579" on="1"/>
        <pt x="613" y="633" on="0"/>
        <pt x="598" y="667" on="0"/>
        <pt x="579" y="667" on="1"/>
        <pt x="569" y="667" on="0"/>
        <pt x="553" y="655" on="0"/>
        <pt x="537" y="612" on="0"/>
        <pt x="520" y="528" on="0"/>
        <pt x="510" y="457" on="1"/>
        <pt x="509" y="448" on="1"/>
        <pt x="613" y="448" on="1"/>
        <pt x="613" y="437" on="0"/>
        <pt x="610" y="417" on="0"/>
        <pt x="606" y="409" on="1"/>
        <pt x="578" y="409" on="0"/>
        <pt x="525" y="404" on="0"/>
        <pt x="505" y="401" on="1"/>
        <pt x="493" y="327" on="0"/>
        <pt x="475" y="223" on="0"/>
        <pt x="459" y="144" on="0"/>
        <pt x="443" y="82" on="0"/>
        <pt x="433" y="51" on="1"/>
        <pt x="418" y="1" on="0"/>
        <pt x="365" y="-93" on="0"/>
        <pt x="295" y="-166" on="0"/>
        <pt x="210" y="-210" on="0"/>
        <pt x="162" y="-210" on="1"/>
        <pt x="127" y="-210" on="0"/>
        <pt x="83" y="-189" on="0"/>
        <pt x="64" y="-174" on="1"/>
        <pt x="39" y="-209" on="0"/>
        <pt x="-20" y="-248" on="0"/>
        <pt x="-55" y="-248" on="1"/>
        <pt x="-102" y="-248" on="0"/>
        <pt x="-144" y="-212" on="1"/>
        <pt x="-146" y="-196" on="0"/>
        <pt x="-142" y="-166" on="0"/>
        <pt x="-137" y="-152" on="1"/>
        <pt x="-114" y="-160" on="0"/>
        <pt x="-58" y="-168" on="0"/>
        <pt x="-26" y="-168" on="1"/>
        <pt x="-9" y="-168" on="0"/>
        <pt x="16" y="-157" on="0"/>
        <pt x="36" y="-112" on="0"/>
        <pt x="56" y="-21" on="0"/>
        <pt x="68" y="59" on="1"/>
        <pt x="79" y="134" on="0"/>
        <pt x="104" y="298" on="0"/>
        <pt x="121" y="403" on="1"/>
        <pt x="104" y="405" on="0"/>
        <pt x="67" y="409" on="0"/>
        <pt x="50" y="409" on="1"/>
        <pt x="50" y="432" on="0"/>
        <pt x="61" y="448" on="1"/>
      </contour>
      <contour>
        <pt x="416" y="454" on="1"/>
        <pt x="430" y="535" on="0"/>
        <pt x="450" y="588" on="1"/>
        <pt x="434" y="611" on="0"/>
        <pt x="391" y="638" on="0"/>
        <pt x="362" y="638" on="1"/>
        <pt x="311" y="638" on="0"/>
        <pt x="244" y="541" on="0"/>
        <pt x="227" y="448" on="1"/>
        <pt x="415" y="448" on="1"/>
      </contour>
      <contour>
        <pt x="334" y="-6" on="1"/>
        <pt x="344" y="33" on="0"/>
        <pt x="361" y="108" on="0"/>
        <pt x="377" y="200" on="0"/>
        <pt x="396" y="320" on="0"/>
        <pt x="408" y="403" on="1"/>
        <pt x="389" y="405" on="0"/>
        <pt x="347" y="409" on="0"/>
        <pt x="320" y="409" on="1"/>
        <pt x="291" y="409" on="0"/>
        <pt x="240" y="404" on="0"/>
        <pt x="218" y="401" on="1"/>
        <pt x="207" y="340" on="0"/>
        <pt x="180" y="196" on="0"/>
        <pt x="166" y="118" on="1"/>
        <pt x="154" y="46" on="0"/>
        <pt x="117" y="-75" on="0"/>
        <pt x="94" y="-123" on="1"/>
        <pt x="125" y="-137" on="0"/>
        <pt x="174" y="-137" on="1"/>
        <pt x="209" y="-137" on="0"/>
        <pt x="260" y="-125" on="0"/>
        <pt x="298" y="-95" on="0"/>
        <pt x="324" y="-44" on="0"/>
      </contour>
    </TTGlyph>
    <TTGlyph name="f_f_i" xMin="-146" yMin="-248" xMax="831" yMax="714">
      <contour>
        <pt x="128" y="448" on="1"/>
        <pt x="140" y="507" on="0"/>
        <pt x="192" y="596" on="0"/>
        <pt x="260" y="655" on="0"/>
        <pt x="339" y="684" on="0"/>
        <pt x="379" y="684" on="1"/>
        <pt x="421" y="684" on="0"/>
        <pt x="484" y="660" on="0"/>
        <pt x="504" y="646" on="1"/>
        <pt x="539" y="683" on="0"/>
        <pt x="622" y="714" on="0"/>
        <pt x="667" y="714" on="1"/>
        <pt x="725" y="714" on="0"/>
        <pt x="802" y="695" on="0"/>
        <pt x="831" y="676" on="1"/>
        <pt x="822" y="652" on="0"/>
        <pt x="813" y="606" on="0"/>
        <pt x="811" y="582" on="1"/>
        <pt x="796" y="574" on="0"/>
        <pt x="744" y="569" on="0"/>
        <pt x="724" y="573" on="1"/>
        <pt x="722" y="624" on="0"/>
        <pt x="687" y="672" on="0"/>
        <pt x="651" y="672" on="1"/>
        <pt x="624" y="672" on="0"/>
        <pt x="586" y="653" on="0"/>
        <pt x="556" y="602" on="0"/>
        <pt x="530" y="515" on="0"/>
        <pt x="514" y="448" on="1"/>
        <pt x="566" y="448" on="1"/>
        <pt x="607" y="448" on="0"/>
        <pt x="664" y="451" on="0"/>
        <pt x="703" y="455" on="0"/>
        <pt x="729" y="462" on="0"/>
        <pt x="738" y="467" on="1"/>
        <pt x="769" y="454" on="0"/>
        <pt x="782" y="393" on="0"/>
        <pt x="765" y="331" on="1"/>
        <pt x="710" y="138" on="1"/>
        <pt x="703" y="114" on="0"/>
        <pt x="697" y="83" on="0"/>
        <pt x="699" y="67" on="0"/>
        <pt x="708" y="61" on="0"/>
        <pt x="715" y="61" on="1"/>
        <pt x="725" y="61" on="0"/>
        <pt x="752" y="75" on="0"/>
        <pt x="767" y="90" on="1"/>
        <pt x="782" y="80" on="0"/>
        <pt x="785" y="58" on="1"/>
        <pt x="756" y="26" on="0"/>
        <pt x="699" y="-9" on="0"/>
        <pt x="671" y="-9" on="1"/>
        <pt x="621" y="-9" on="0"/>
        <pt x="598" y="70" on="0"/>
        <pt x="616" y="135" on="1"/>
        <pt x="657" y="279" on="1"/>
        <pt x="668" y="318" on="0"/>
        <pt x="677" y="369" on="0"/>
        <pt x="666" y="398" on="0"/>
        <pt x="635" y="409" on="0"/>
        <pt x="606" y="409" on="1"/>
        <pt x="576" y="409" on="0"/>
        <pt x="527" y="404" on="0"/>
        <pt x="505" y="401" on="1"/>
        <pt x="493" y="327" on="0"/>
        <pt x="475" y="223" on="0"/>
        <pt x="459" y="144" on="0"/>
        <pt x="443" y="82" on="0"/>
        <pt x="433" y="51" on="1"/>
        <pt x="418" y="1" on="0"/>
        <pt x="365" y="-93" on="0"/>
        <pt x="295" y="-166" on="0"/>
        <pt x="210" y="-210" on="0"/>
        <pt x="162" y="-210" on="1"/>
        <pt x="127" y="-210" on="0"/>
        <pt x="83" y="-189" on="0"/>
        <pt x="64" y="-174" on="1"/>
        <pt x="39" y="-209" on="0"/>
        <pt x="-20" y="-248" on="0"/>
        <pt x="-55" y="-248" on="1"/>
        <pt x="-102" y="-248" on="0"/>
        <pt x="-144" y="-212" on="1"/>
        <pt x="-146" y="-196" on="0"/>
        <pt x="-142" y="-166" on="0"/>
        <pt x="-137" y="-152" on="1"/>
        <pt x="-114" y="-160" on="0"/>
        <pt x="-58" y="-168" on="0"/>
        <pt x="-26" y="-168" on="1"/>
        <pt x="-9" y="-168" on="0"/>
        <pt x="16" y="-157" on="0"/>
        <pt x="36" y="-112" on="0"/>
        <pt x="56" y="-21" on="0"/>
        <pt x="68" y="59" on="1"/>
        <pt x="79" y="134" on="0"/>
        <pt x="104" y="298" on="0"/>
        <pt x="121" y="403" on="1"/>
        <pt x="104" y="405" on="0"/>
        <pt x="67" y="409" on="0"/>
        <pt x="50" y="409" on="1"/>
        <pt x="50" y="432" on="0"/>
        <pt x="61" y="448" on="1"/>
      </contour>
      <contour>
        <pt x="415" y="448" on="1"/>
        <pt x="430" y="524" on="0"/>
        <pt x="456" y="576" on="1"/>
        <pt x="441" y="605" on="0"/>
        <pt x="394" y="638" on="0"/>
        <pt x="362" y="638" on="1"/>
        <pt x="311" y="638" on="0"/>
        <pt x="244" y="541" on="0"/>
        <pt x="227" y="448" on="1"/>
      </contour>
      <contour>
        <pt x="320" y="409" on="1"/>
        <pt x="291" y="409" on="0"/>
        <pt x="240" y="404" on="0"/>
        <pt x="218" y="401" on="1"/>
        <pt x="207" y="340" on="0"/>
        <pt x="180" y="196" on="0"/>
        <pt x="166" y="118" on="1"/>
        <pt x="154" y="46" on="0"/>
        <pt x="117" y="-75" on="0"/>
        <pt x="94" y="-123" on="1"/>
        <pt x="125" y="-137" on="0"/>
        <pt x="174" y="-137" on="1"/>
        <pt x="209" y="-137" on="0"/>
        <pt x="260" y="-125" on="0"/>
        <pt x="298" y="-95" on="0"/>
        <pt x="324" y="-44" on="0"/>
        <pt x="334" y="-6" on="1"/>
        <pt x="344" y="33" on="0"/>
        <pt x="361" y="108" on="0"/>
        <pt x="377" y="200" on="0"/>
        <pt x="396" y="320" on="0"/>
        <pt x="408" y="403" on="1"/>
        <pt x="389" y="405" on="0"/>
        <pt x="347" y="409" on="0"/>
      </contour>
    </TTGlyph>
    <TTGlyph name="f_f_l" xMin="-146" yMin="-248" xMax="823" yMax="714">
      <contour>
        <pt x="128" y="448" on="1"/>
        <pt x="140" y="507" on="0"/>
        <pt x="192" y="596" on="0"/>
        <pt x="260" y="655" on="0"/>
        <pt x="339" y="684" on="0"/>
        <pt x="379" y="684" on="1"/>
        <pt x="422" y="684" on="0"/>
        <pt x="485" y="659" on="0"/>
        <pt x="505" y="645" on="1"/>
        <pt x="538" y="681" on="0"/>
        <pt x="619" y="714" on="0"/>
        <pt x="664" y="714" on="1"/>
        <pt x="696" y="714" on="0"/>
        <pt x="743" y="703" on="0"/>
        <pt x="758" y="695" on="1"/>
        <pt x="780" y="701" on="0"/>
        <pt x="793" y="710" on="1"/>
        <pt x="823" y="700" on="0"/>
        <pt x="814" y="646" on="1"/>
        <pt x="794" y="532" on="0"/>
        <pt x="753" y="322" on="0"/>
        <pt x="733" y="224" on="1"/>
        <pt x="722" y="171" on="0"/>
        <pt x="714" y="106" on="0"/>
        <pt x="715" y="72" on="0"/>
        <pt x="725" y="61" on="0"/>
        <pt x="733" y="61" on="1"/>
        <pt x="743" y="61" on="0"/>
        <pt x="767" y="74" on="0"/>
        <pt x="784" y="90" on="1"/>
        <pt x="797" y="78" on="0"/>
        <pt x="802" y="60" on="1"/>
        <pt x="778" y="31" on="0"/>
        <pt x="717" y="-9" on="0"/>
        <pt x="689" y="-9" on="1"/>
        <pt x="618" y="-9" on="0"/>
        <pt x="621" y="72" on="1"/>
        <pt x="621" y="84" on="0"/>
        <pt x="623" y="112" on="0"/>
        <pt x="630" y="154" on="0"/>
        <pt x="641" y="218" on="0"/>
        <pt x="659" y="314" on="0"/>
        <pt x="686" y="450" on="0"/>
        <pt x="705" y="543" on="1"/>
        <pt x="717" y="601" on="0"/>
        <pt x="693" y="671" on="0"/>
        <pt x="644" y="671" on="1"/>
        <pt x="622" y="671" on="0"/>
        <pt x="585" y="652" on="0"/>
        <pt x="554" y="603" on="0"/>
        <pt x="527" y="516" on="0"/>
        <pt x="515" y="448" on="1"/>
        <pt x="614" y="448" on="1"/>
        <pt x="614" y="437" on="0"/>
        <pt x="611" y="417" on="0"/>
        <pt x="607" y="409" on="1"/>
        <pt x="581" y="409" on="0"/>
        <pt x="525" y="404" on="0"/>
        <pt x="505" y="401" on="1"/>
        <pt x="493" y="327" on="0"/>
        <pt x="475" y="223" on="0"/>
        <pt x="459" y="144" on="0"/>
        <pt x="443" y="82" on="0"/>
        <pt x="433" y="51" on="1"/>
        <pt x="418" y="1" on="0"/>
        <pt x="365" y="-93" on="0"/>
        <pt x="295" y="-166" on="0"/>
        <pt x="210" y="-210" on="0"/>
        <pt x="162" y="-210" on="1"/>
        <pt x="127" y="-210" on="0"/>
        <pt x="83" y="-189" on="0"/>
        <pt x="64" y="-174" on="1"/>
        <pt x="39" y="-209" on="0"/>
        <pt x="-20" y="-248" on="0"/>
        <pt x="-55" y="-248" on="1"/>
        <pt x="-102" y="-248" on="0"/>
        <pt x="-144" y="-212" on="1"/>
        <pt x="-146" y="-196" on="0"/>
        <pt x="-142" y="-166" on="0"/>
        <pt x="-137" y="-152" on="1"/>
        <pt x="-114" y="-160" on="0"/>
        <pt x="-58" y="-168" on="0"/>
        <pt x="-26" y="-168" on="1"/>
        <pt x="-9" y="-168" on="0"/>
        <pt x="16" y="-157" on="0"/>
        <pt x="36" y="-112" on="0"/>
        <pt x="56" y="-21" on="0"/>
        <pt x="68" y="59" on="1"/>
        <pt x="79" y="134" on="0"/>
        <pt x="104" y="298" on="0"/>
        <pt x="121" y="403" on="1"/>
        <pt x="104" y="405" on="0"/>
        <pt x="67" y="409" on="0"/>
        <pt x="50" y="409" on="1"/>
        <pt x="50" y="432" on="0"/>
        <pt x="61" y="448" on="1"/>
      </contour>
      <contour>
        <pt x="416" y="448" on="1"/>
        <pt x="424" y="486" on="0"/>
        <pt x="444" y="549" on="0"/>
        <pt x="457" y="575" on="1"/>
        <pt x="442" y="604" on="0"/>
        <pt x="394" y="638" on="0"/>
        <pt x="362" y="638" on="1"/>
        <pt x="311" y="638" on="0"/>
        <pt x="244" y="541" on="0"/>
        <pt x="227" y="448" on="1"/>
      </contour>
      <contour>
        <pt x="334" y="-6" on="1"/>
        <pt x="344" y="33" on="0"/>
        <pt x="361" y="108" on="0"/>
        <pt x="377" y="200" on="0"/>
        <pt x="396" y="320" on="0"/>
        <pt x="408" y="403" on="1"/>
        <pt x="389" y="405" on="0"/>
        <pt x="347" y="409" on="0"/>
        <pt x="320" y="409" on="1"/>
        <pt x="291" y="409" on="0"/>
        <pt x="240" y="404" on="0"/>
        <pt x="218" y="401" on="1"/>
        <pt x="207" y="340" on="0"/>
        <pt x="180" y="196" on="0"/>
        <pt x="166" y="118" on="1"/>
        <pt x="154" y="46" on="0"/>
        <pt x="117" y="-75" on="0"/>
        <pt x="94" y="-123" on="1"/>
        <pt x="125" y="-137" on="0"/>
        <pt x="174" y="-137" on="1"/>
        <pt x="209" y="-137" on="0"/>
        <pt x="260" y="-125" on="0"/>
        <pt x="298" y="-95" on="0"/>
        <pt x="324" y="-44" on="0"/>
      </contour>
    </TTGlyph>
    <TTGlyph name="f_f_t" xMin="-146" yMin="-248" xMax="873" yMax="676">
      <contour>
        <pt x="722" y="203" on="1"/>
        <pt x="713" y="162" on="0"/>
        <pt x="708" y="105" on="0"/>
        <pt x="715" y="69" on="0"/>
        <pt x="733" y="53" on="0"/>
        <pt x="745" y="53" on="1"/>
        <pt x="762" y="53" on="0"/>
        <pt x="803" y="78" on="0"/>
        <pt x="819" y="98" on="1"/>
        <pt x="827" y="93" on="0"/>
        <pt x="838" y="75" on="0"/>
        <pt x="840" y="66" on="1"/>
        <pt x="830" y="53" on="0"/>
        <pt x="801" y="26" on="0"/>
        <pt x="766" y="5" on="0"/>
        <pt x="727" y="-9" on="0"/>
        <pt x="707" y="-9" on="1"/>
        <pt x="644" y="-9" on="0"/>
        <pt x="605" y="88" on="0"/>
        <pt x="630" y="196" on="1"/>
        <pt x="677" y="403" on="1"/>
        <pt x="660" y="407" on="0"/>
        <pt x="631" y="409" on="0"/>
        <pt x="613" y="409" on="1"/>
        <pt x="613" y="432" on="0"/>
        <pt x="624" y="448" on="1"/>
        <pt x="689" y="448" on="1"/>
        <pt x="695" y="473" on="0"/>
        <pt x="702" y="508" on="0"/>
        <pt x="706" y="535" on="0"/>
        <pt x="708" y="557" on="0"/>
        <pt x="708" y="568" on="1"/>
        <pt x="708" y="599" on="0"/>
        <pt x="675" y="633" on="0"/>
        <pt x="640" y="633" on="1"/>
        <pt x="618" y="633" on="0"/>
        <pt x="581" y="618" on="0"/>
        <pt x="550" y="578" on="0"/>
        <pt x="524" y="505" on="0"/>
        <pt x="514" y="448" on="1"/>
        <pt x="593" y="448" on="1"/>
        <pt x="593" y="425" on="0"/>
        <pt x="583" y="409" on="1"/>
        <pt x="563" y="409" on="0"/>
        <pt x="526" y="406" on="0"/>
        <pt x="505" y="401" on="1"/>
        <pt x="493" y="327" on="0"/>
        <pt x="475" y="223" on="0"/>
        <pt x="459" y="144" on="0"/>
        <pt x="443" y="82" on="0"/>
        <pt x="433" y="51" on="1"/>
        <pt x="418" y="1" on="0"/>
        <pt x="365" y="-93" on="0"/>
        <pt x="295" y="-166" on="0"/>
        <pt x="210" y="-210" on="0"/>
        <pt x="162" y="-210" on="1"/>
        <pt x="127" y="-210" on="0"/>
        <pt x="83" y="-189" on="0"/>
        <pt x="64" y="-174" on="1"/>
        <pt x="39" y="-209" on="0"/>
        <pt x="-20" y="-248" on="0"/>
        <pt x="-55" y="-248" on="1"/>
        <pt x="-102" y="-248" on="0"/>
        <pt x="-144" y="-212" on="1"/>
        <pt x="-146" y="-196" on="0"/>
        <pt x="-142" y="-166" on="0"/>
        <pt x="-137" y="-152" on="1"/>
        <pt x="-114" y="-160" on="0"/>
        <pt x="-58" y="-168" on="0"/>
        <pt x="-26" y="-168" on="1"/>
        <pt x="-9" y="-168" on="0"/>
        <pt x="16" y="-157" on="0"/>
        <pt x="36" y="-112" on="0"/>
        <pt x="56" y="-21" on="0"/>
        <pt x="68" y="59" on="1"/>
        <pt x="79" y="134" on="0"/>
        <pt x="104" y="298" on="0"/>
        <pt x="121" y="403" on="1"/>
        <pt x="104" y="405" on="0"/>
        <pt x="67" y="409" on="0"/>
        <pt x="50" y="409" on="1"/>
        <pt x="50" y="432" on="0"/>
        <pt x="61" y="448" on="1"/>
        <pt x="128" y="448" on="1"/>
        <pt x="142" y="511" on="0"/>
        <pt x="198" y="598" on="0"/>
        <pt x="268" y="651" on="0"/>
        <pt x="344" y="675" on="0"/>
        <pt x="377" y="675" on="1"/>
        <pt x="433" y="675" on="0"/>
        <pt x="501" y="648" on="0"/>
        <pt x="521" y="634" on="1"/>
        <pt x="551" y="656" on="0"/>
        <pt x="622" y="676" on="0"/>
        <pt x="660" y="676" on="1"/>
        <pt x="692" y="676" on="0"/>
        <pt x="739" y="661" on="0"/>
        <pt x="754" y="653" on="1"/>
        <pt x="776" y="659" on="0"/>
        <pt x="789" y="668" on="1"/>
        <pt x="818" y="658" on="0"/>
        <pt x="810" y="604" on="1"/>
        <pt x="806" y="578" on="0"/>
        <pt x="793" y="510" on="0"/>
        <pt x="780" y="448" on="1"/>
        <pt x="873" y="448" on="1"/>
        <pt x="873" y="437" on="0"/>
        <pt x="870" y="417" on="0"/>
        <pt x="866" y="409" on="1"/>
        <pt x="839" y="409" on="0"/>
        <pt x="789" y="405" on="0"/>
        <pt x="769" y="402" on="1"/>
      </contour>
      <contour>
        <pt x="415" y="448" on="1"/>
        <pt x="430" y="524" on="0"/>
        <pt x="465" y="576" on="1"/>
        <pt x="449" y="600" on="0"/>
        <pt x="401" y="629" on="0"/>
        <pt x="365" y="629" on="1"/>
        <pt x="342" y="629" on="0"/>
        <pt x="300" y="610" on="0"/>
        <pt x="264" y="567" on="0"/>
        <pt x="236" y="498" on="0"/>
        <pt x="227" y="448" on="1"/>
      </contour>
      <contour>
        <pt x="334" y="-6" on="1"/>
        <pt x="344" y="33" on="0"/>
        <pt x="361" y="108" on="0"/>
        <pt x="377" y="200" on="0"/>
        <pt x="396" y="320" on="0"/>
        <pt x="408" y="403" on="1"/>
        <pt x="389" y="405" on="0"/>
        <pt x="347" y="409" on="0"/>
        <pt x="320" y="409" on="1"/>
        <pt x="291" y="409" on="0"/>
        <pt x="240" y="404" on="0"/>
        <pt x="218" y="401" on="1"/>
        <pt x="207" y="340" on="0"/>
        <pt x="180" y="196" on="0"/>
        <pt x="166" y="118" on="1"/>
        <pt x="154" y="46" on="0"/>
        <pt x="117" y="-75" on="0"/>
        <pt x="94" y="-123" on="1"/>
        <pt x="125" y="-137" on="0"/>
        <pt x="174" y="-137" on="1"/>
        <pt x="209" y="-137" on="0"/>
        <pt x="260" y="-125" on="0"/>
        <pt x="298" y="-95" on="0"/>
        <pt x="324" y="-44" on="0"/>
      </contour>
    </TTGlyph>
    <TTGlyph name="f_j" xMin="-146" yMin="-249" xMax="539" yMax="714">
      <contour>
        <pt x="425" y="74" on="1"/>
        <pt x="413" y="12" on="0"/>
        <pt x="373" y="-86" on="0"/>
        <pt x="314" y="-164" on="0"/>
        <pt x="232" y="-225" on="0"/>
        <pt x="178" y="-249" on="1"/>
        <pt x="164" y="-237" on="0"/>
        <pt x="163" y="-216" on="1"/>
        <pt x="235" y="-165" on="0"/>
        <pt x="314" y="-34" on="0"/>
        <pt x="330" y="51" on="1"/>
        <pt x="379" y="314" on="1"/>
        <pt x="384" y="339" on="0"/>
        <pt x="386" y="376" on="0"/>
        <pt x="373" y="398" on="0"/>
        <pt x="342" y="409" on="0"/>
        <pt x="314" y="409" on="1"/>
        <pt x="284" y="409" on="0"/>
        <pt x="235" y="404" on="0"/>
        <pt x="213" y="401" on="1"/>
        <pt x="196" y="304" on="0"/>
        <pt x="173" y="158" on="0"/>
        <pt x="166" y="118" on="1"/>
        <pt x="152" y="38" on="0"/>
        <pt x="111" y="-97" on="0"/>
        <pt x="55" y="-194" on="0"/>
        <pt x="-14" y="-248" on="0"/>
        <pt x="-55" y="-248" on="1"/>
        <pt x="-102" y="-248" on="0"/>
        <pt x="-144" y="-212" on="1"/>
        <pt x="-146" y="-196" on="0"/>
        <pt x="-142" y="-166" on="0"/>
        <pt x="-137" y="-152" on="1"/>
        <pt x="-114" y="-160" on="0"/>
        <pt x="-58" y="-168" on="0"/>
        <pt x="-26" y="-168" on="1"/>
        <pt x="-9" y="-168" on="0"/>
        <pt x="16" y="-157" on="0"/>
        <pt x="36" y="-112" on="0"/>
        <pt x="56" y="-21" on="0"/>
        <pt x="68" y="59" on="1"/>
        <pt x="79" y="133" on="0"/>
        <pt x="99" y="299" on="0"/>
        <pt x="116" y="403" on="1"/>
        <pt x="99" y="405" on="0"/>
        <pt x="62" y="409" on="0"/>
        <pt x="45" y="409" on="1"/>
        <pt x="45" y="432" on="0"/>
        <pt x="56" y="448" on="1"/>
        <pt x="123" y="448" on="1"/>
        <pt x="137" y="523" on="0"/>
        <pt x="189" y="625" on="0"/>
        <pt x="256" y="687" on="0"/>
        <pt x="334" y="714" on="0"/>
        <pt x="375" y="714" on="1"/>
        <pt x="433" y="714" on="0"/>
        <pt x="510" y="695" on="0"/>
        <pt x="539" y="676" on="1"/>
        <pt x="530" y="652" on="0"/>
        <pt x="521" y="606" on="0"/>
        <pt x="519" y="582" on="1"/>
        <pt x="504" y="574" on="0"/>
        <pt x="452" y="569" on="0"/>
        <pt x="432" y="573" on="1"/>
        <pt x="430" y="624" on="0"/>
        <pt x="395" y="672" on="0"/>
        <pt x="359" y="672" on="1"/>
        <pt x="332" y="672" on="0"/>
        <pt x="294" y="653" on="0"/>
        <pt x="264" y="602" on="0"/>
        <pt x="238" y="515" on="0"/>
        <pt x="222" y="448" on="1"/>
        <pt x="274" y="448" on="1"/>
        <pt x="315" y="448" on="0"/>
        <pt x="372" y="451" on="0"/>
        <pt x="411" y="455" on="0"/>
        <pt x="437" y="462" on="0"/>
        <pt x="446" y="467" on="1"/>
        <pt x="472" y="456" on="0"/>
        <pt x="489" y="405" on="0"/>
        <pt x="481" y="366" on="1"/>
      </contour>
    </TTGlyph>
</ttFont>
